<?xml version="1.0" encoding="UTF-8"?>
<svg width="59px" height="37px" viewBox="0 0 59 37" version="1.1" xmlns="http://www.w3.org/2000/svg" xmlns:xlink="http://www.w3.org/1999/xlink">
    <!-- Generator: Sketch 64 (93537) - https://sketch.com -->
    <title>logo/reverse</title>
    <desc>Created with Sketch.</desc>
    <g id="logo/reverse" stroke="none" stroke-width="1" fill="none" fill-rule="evenodd">
        <g id="Logo">
            <path d="M38.3938289,19.2782152 C41.9390738,23.5043434 44,28 44,28 C44,28 41.9418769,27.0334978 40.9043851,26.0678041 C38.3347959,23.6760493 35.03062,22.991786 34.0092775,21.5447501 C32.5549146,19.4842352 34.0434171,18.8172189 30.4065058,14.6150298 C29.3152525,13.3540721 28,11 28,11 C28,11 36.2842873,16.7634861 38.3938289,19.2782152 Z" id="Fill-1" fill="#FFFFFF"></path>
            <path d="M43,9 C43,9 51.2842873,14.7634861 53.3938289,17.2782152 C56.9390738,21.5043434 59,26 59,26 C59,26 56.9418769,25.0334978 55.9043851,24.0678041 C53.3347959,21.6760493 50.03062,20.991786 49.0092775,19.5447501 C47.5549146,17.4842352 49.0434171,16.8172189 45.4065058,12.6150298 C44.3152525,11.3540721 43,9 43,9 Z" id="Stroke-3"></path>
            <path d="M28.6797827,29.7683103 C28.0407574,29.0951411 15.1836416,37 15.1836416,37 C15.1836416,37 25.6006673,28.5871221 25.4930257,26.2839851 C25.3542677,23.3118827 22.6352021,19.7238346 21.9253601,19.2252098 C17.4219252,16.0620909 0,3 0,3 C0,3 24.0998228,12.600329 28.825322,16.5975206 C33.5508641,20.5945835 32.1001064,23.2863595 33.8597542,25.4113917 C34.9464276,26.7235848 29.3835302,30.5097273 28.6797827,29.7683103" id="Fill-5" fill="#FFFFFF"></path>
            <path d="M9,0 L24,13 C24,13 14.8304061,7.99183889 14.3659653,7.49462298 C11.4192016,4.34020513 9,0 9,0 Z" id="Fill-8" fill="#FFFFFF"></path>
        </g>
    </g>
</svg>