<?xml version="1.0" encoding="UTF-8"?>
<svg width="375px" height="375px" viewBox="0 0 375 375" version="1.1" xmlns="http://www.w3.org/2000/svg" xmlns:xlink="http://www.w3.org/1999/xlink">
    <!-- Generator: Sketch 61.2 (89653) - https://sketch.com -->
    <title>cityparks-linework</title>
    <desc>Created with Sketch.</desc>
    <g id="Page-1" stroke="none" stroke-width="1" fill="none" fill-rule="evenodd">
        <g id="Case-Study/-City-Parks" transform="translate(-48.000000, -1469.000000)">
            <g id="cityparks-linework" transform="translate(48.000000, 1469.000000)">
                <rect id="Rectangle" fill="#82AB30" x="0" y="0" width="375" height="375"></rect>
                <g id="5dfa71431ebd08af79b7f2b1_city-parks-icons" transform="translate(0.000000, 17.000000)">
                    <rect id="city" fill="#82AB30" fill-rule="nonzero" x="0" y="0" width="375" height="342"></rect>
                    <g id="Group" transform="translate(124.007937, 51.000000)" stroke="#BAF93B">
                        <g id="council-icon" stroke-linecap="round" stroke-linejoin="round" transform="translate(106.985387, 62.988636)" stroke-width="3.29279964">
                            <g id="icon-lamppost" transform="translate(0.372145, 0.300702)">
                                <line x1="4.69047133" y1="12.6222584" x2="4.69047133" y2="29.302679" id="Stroke-1"></line>
                                <line x1="1.3553499" y1="18.9817967" x2="8.05134501" y2="18.9817967" id="Stroke-2"></line>
                                <path d="M1.95216313e-12,34.0872976 C1.95216313e-12,31.4447336 0.486895316,29.302679 4.69044346,29.302679 C8.89399158,29.302679 9.38088695,31.4447336 9.38088695,34.0872976 L1.95216313e-12,34.0872976 Z" id="Stroke-3"></path>
                                <polygon id="Stroke-5" points="7.19710428 12.6222584 2.18378263 12.6222584 1.03120359 5.95102834 8.34968331 5.95102834"></polygon>
                                <path d="M0.0129318504,5.9378937 C0.0129318504,3.85838496 2.11282467,2.17263104 4.70337531,2.17263104 C7.29392592,2.17263104 9.39381877,3.85838496 9.39381877,5.9378937 L0.0129318504,5.9378937 Z" id="Stroke-7"></path>
                                <line x1="4.69047133" y1="2.15953905" x2="4.69047133" y2="-8.90865661e-14" id="Stroke-9"></line>
                            </g>
                        </g>
                        <g id="mayors-icon" stroke-linecap="round" transform="translate(7.448350, 64.357955)" stroke-width="3.29279964">
                            <g id="Group-13-Copy-3">
                                <g id="Group">
                                    <path d="M14.1090672,16.1906974 C14.1090672,25.0562236 7.14147547,27.1916417 7.14147547,27.1916417 C7.14147547,27.1916417 0.173883629,25.0562236 0.173883629,16.1906974 C0.173883629,7.32517117 7.14147547,0.138299182 7.14147547,0.138299182 C7.14147547,0.138299182 14.1090672,7.32517117 14.1090672,16.1906974 Z" id="Stroke-1" stroke-linejoin="round"></path>
                                    <line x1="7.20553236" y1="16.2067336" x2="7.20553236" y2="31.4729706" id="Stroke-3"></line>
                                </g>
                            </g>
                        </g>
                        <g id="funders-icon" stroke-linecap="round" stroke-linejoin="round" transform="translate(2.708491, 141.724432)" stroke-width="3.29279964">
                            <g id="icon-flower" transform="translate(0.285203, 0.087910)">
                                <path d="M10.134679,27.0533424 C10.134679,27.0533424 5.64341071,27.0071538 2.84477586,24.2056332 C0.0461410147,21.4041126 -2.21317323e-13,16.9083391 -2.21317323e-13,16.9083391 C-2.21317323e-13,16.9083391 4.49126831,16.9545276 7.28990313,19.7560483 C10.0884123,22.557443 10.134679,27.0533424 10.134679,27.0533424 Z" id="Stroke-1"></path>
                                <path d="M11.7055543,21.9808407 C11.7055543,21.9808407 16.1968225,21.9346522 18.9954574,19.1331315 C21.7940923,16.3316109 21.8402333,11.8358373 21.8402333,11.8358373 C21.8402333,11.8358373 17.348965,11.8820259 14.5503301,14.6835465 C11.751821,17.4849414 11.7055543,21.9808407 11.7055543,21.9808407 Z" id="Stroke-3"></path>
                                <line x1="10.8103243" y1="27.0533424" x2="10.8103243" y2="5.4106685" id="Stroke-5"></line>
                                <path d="M18.2424222,2.97139456 C18.2424222,6.93325396 14.9149427,10.821337 10.8103243,10.821337 C6.70570584,10.821337 3.37822634,6.93325396 3.37822634,2.97139456 C3.37822634,-0.990464854 18.2424222,-0.990464854 18.2424222,2.97139456 Z" id="Stroke-7"></path>
                            </g>
                        </g>
                        <g id="icon-sign" stroke-linecap="round" stroke-linejoin="round" transform="translate(97.505669, 138.985795)" stroke-width="3.29279964">
                            <g id="icon" transform="translate(0.037376, 0.400936)">
                                <line x1="14.127327" y1="31.8531761" x2="14.127327" y2="9.26707051e-05" id="Stroke-1"></line>
                                <line x1="9.31337985" y1="31.8531761" x2="18.834252" y2="31.8531761" id="Stroke-3"></line>
                                <polygon id="Stroke-5" points="24.9454787 5.68426655 14.1272662 5.68426655 14.1272662 3.82494541e-13 24.9454787 3.82494541e-13 28.254654 2.8422105"></polygon>
                                <polygon id="Stroke-7" points="3.30917539 9.30843247 14.1273878 9.30843247 14.1273878 3.62432035 3.30917539 3.62432035 1.92209284e-12 6.46653086"></polygon>
                            </g>
                        </g>
                        <g id="tree-icon" stroke-linecap="round" stroke-linejoin="round" transform="translate(4.739859, 0.000000)" stroke-width="3">
                            <g id="Group-9">
                                <path d="M18.7184368,9.40301963 C18.7184368,14.5564486 14.5441537,18.7342604 9.39507748,18.7342604 C4.24600127,18.7342604 0.071718149,14.5564486 0.071718149,9.40301963 C0.071718149,4.24959064 4.24600127,0.0717787759 9.39507748,0.0717787759 C14.5441537,0.0717787759 18.7184368,4.24959064 18.7184368,9.40301963 Z" id="Stroke-1"></path>
                                <line x1="9.39507748" y1="7.32143513" x2="9.39507748" y2="26.7017045" id="Stroke-3"></line>
                                <path d="M9.39507748,19.0213756 C9.39507748,14.2839763 13.985039,10.55148 13.985039,10.55148" id="Stroke-5"></path>
                                <path d="M9.39507748,19.0213756 C9.39507748,14.2839763 4.80511596,10.55148 4.80511596,10.55148" id="Stroke-7"></path>
                            </g>
                        </g>
                        <g id="Group-12" stroke-linecap="round" stroke-linejoin="round" transform="translate(96.828546, 0.000000)" stroke-width="3">
                            <g id="Group-8" transform="translate(0.146669, 0.000000)">
                                <line x1="11.1285238" y1="26.1882102" x2="19.0486594" y2="26.1882102" id="Stroke-1"></line>
                                <polygon id="Stroke-3" points="10.6005148 6.16193182 10.6005148 15.4048295 20.2495133 10.7833343"></polygon>
                                <g id="Group-7" transform="translate(0.361173, 0.000000)">
                                    <polygon id="Stroke-4" points="0 21.053267 29.4548375 21.053267 29.4548375 0 0 0"></polygon>
                                    <line x1="14.9813398" y1="21.053267" x2="14.9813398" y2="26.1882102" id="Stroke-6"></line>
                                </g>
                            </g>
                        </g>
                        <g id="equity-icon" transform="translate(0.000000, 215.667614)" stroke-width="3">
                            <g id="Group-7">
                                <path d="M18.790155,4.3647017 C18.790155,6.77528634 16.8574703,8.72940341 14.4734977,8.72940341 C12.0894476,8.72940341 10.1568405,6.77528634 10.1568405,4.3647017 C10.1568405,1.95419545 12.0894476,0 14.4734977,0 C16.8574703,0 18.790155,1.95419545 18.790155,4.3647017 Z" id="Stroke-1"></path>
                                <path d="M12.1882086,18.4313144 C12.1882086,18.4313144 10.6584234,11.3784868 7.77705148,8.49080834 C4.89575601,5.60320653 0,6.21642926 0,6.21642926 C0,6.21642926 1.52978519,13.2692569 4.41108068,16.1568587 C7.29245264,19.0444605 12.1882086,18.4313144 12.1882086,18.4313144 Z" id="Stroke-3"></path>
                                <path d="M16.7587868,18.4313144 C16.7587868,18.4313144 18.288572,11.3784868 21.1698675,8.49080834 C24.0512395,5.60320653 28.9469955,6.21642926 28.9469955,6.21642926 C28.9469955,6.21642926 27.4172103,13.2692569 24.5359148,16.1568587 C21.6546193,19.0444605 16.7587868,18.4313144 16.7587868,18.4313144 Z" id="Stroke-5"></path>
                            </g>
                        </g>
                        <g id="Group-9" stroke-linejoin="round" transform="translate(95.474301, 208.136364)" stroke-width="3">
                            <path d="M32.4011207,16.380741 C32.4011207,25.4277437 25.1478476,32.7616139 16.2005604,32.7616139 C7.2532731,32.7616139 0,25.4277437 0,16.380741 C0,7.33387018 7.2532731,0 16.2005604,0 C25.1478476,0 32.4011207,7.33387018 32.4011207,16.380741 Z" id="Stroke-1"></path>
                            <path d="M20.5021896,8.43665503 C20.1531105,8.29608144 16.159909,6.74596062 13.7116918,8.62457512 C13.4567694,8.82011752 12.7950496,9.32802947 12.4016617,10.243297 C11.9332107,11.3332921 12.0197882,12.5956695 12.4002041,13.4772227 C13.6138913,16.2894277 17.8311157,15.2558673 20.0398603,18.5924015 C20.7999634,19.7407369 20.8269278,20.6582032 20.8209519,20.9781951 C20.8209519,20.9781951 20.793696,22.4306912 19.6208197,23.7253169 C18.0619888,25.4456212 14.6768698,25.6372058 11.1725246,24.2078699" id="Stroke-3"></path>
                            <line x1="16.3162096" y1="3.59446023" x2="16.2005604" y2="29.2691761" id="Stroke-7"></line>
                        </g>
                    </g>
                </g>
            </g>
        </g>
    </g>
</svg>