<?xml version="1.0" encoding="UTF-8"?>
<svg width="171px" height="171px" viewBox="0 0 171 171" version="1.1" xmlns="http://www.w3.org/2000/svg" xmlns:xlink="http://www.w3.org/1999/xlink">
    <!-- Generator: Sketch 64 (93537) - https://sketch.com -->
    <title>cityparks-leaves1</title>
    <desc>Created with Sketch.</desc>
    <g id="Page-1" stroke="none" stroke-width="1" fill="none" fill-rule="evenodd">
        <g id="Case-Study/-City-Parks" transform="translate(-1205.000000, -450.000000)" fill="#B8D97A">
            <g id="cityparks-leaves1" transform="translate(1185.000000, 436.000000)">
                <path d="M54.2620806,110.444055 C55.7242672,109.769244 57.2059126,109.133198 58.6430808,108.409098 C60.1786547,107.635432 61.7464746,107.209556 63.463571,107.614665 C65.3988834,108.071 66.7440395,109.303493 66.9263958,110.778276 C67.1204274,112.345268 66.2887045,113.751933 64.277503,114.567965 C62.3152263,115.364337 60.2156264,115.818457 58.2088725,116.51542 C55.9480429,117.300716 53.6936069,118.120625 51.499771,119.071231 C50.7336519,119.403237 50.1562828,120.168319 49.0955025,121.075452 C51.4021992,121.710666 52.8888483,120.882451 54.2990522,120.238098 C57.1097307,118.954101 60.0032479,118.668061 62.9790479,119.211621 C64.2327478,119.440342 65.5214735,119.833544 66.6228392,120.453805 C68.363842,121.434871 68.5623213,123.118439 67.2905526,124.663832 C66.1077381,126.100679 64.4896034,126.802904 62.6854986,126.943294 C60.0113094,127.151524 57.3257229,127.219089 54.6456961,127.351171 C52.7915545,127.442549 51.0185837,127.74548 49.306769,129.396927 C50.1757415,129.723672 50.7125252,130.09666 51.249031,130.095829 C52.9113648,130.093891 54.5778684,129.828341 56.2343646,129.888706 C58.9927825,129.988668 61.7503664,130.209913 64.496275,130.495677 C65.294362,130.57847 66.1055142,130.959488 66.8157589,131.368197 C68.7291107,132.468884 69.0190462,134.031999 67.6396983,135.734119 C66.3665396,137.304987 64.6480533,138.293253 62.6838308,138.566555 C59.4820312,139.011538 56.2388123,139.154973 53.0325651,139.574204 C51.216785,139.811509 49.4157381,140.263691 47.6569444,140.783714 C46.9230712,141.000806 46.316514,141.645712 45.532604,142.177088 C46.6411972,143.630272 47.9557753,143.333156 49.1677779,143.163692 C53.1156818,142.610994 57.0613618,142.080172 61.0601364,142.489157 C62.2557381,142.611271 63.5141637,142.617363 64.6113597,143.027732 C65.3555181,143.305743 66.1652804,144.097961 66.4132406,144.837291 C66.7504331,145.843001 65.8720092,146.645187 64.9402127,146.84788 C62.0650423,147.473403 59.1748608,148.091449 56.2577151,148.4445 C53.3275043,148.799212 50.3467006,148.730264 47.4098182,149.045379 C45.6866062,149.23035 43.9873007,149.770863 42.9509829,151.493474 C43.9692319,152.756704 45.2571236,152.349934 46.3515397,152.20456 C48.6412795,151.899967 50.8907119,151.291612 53.1807296,150.990065 C56.0167045,150.616524 58.8726941,150.34599 61.7286837,150.199786 C62.8028072,150.144959 63.9561555,150.41577 64.9766283,150.795957 C67.2285625,151.634141 67.7987041,153.920525 66.1352583,155.681348 C65.3435649,156.518979 64.2430332,157.257755 63.1461152,157.578962 C60.9408821,158.224422 58.6611496,158.741952 56.3778035,158.967351 C52.9722429,159.303511 49.5338805,159.291881 46.1166447,159.527802 C44.5574423,159.635517 42.9832288,159.862854 41.4762871,160.263255 C40.5950834,160.496684 39.833968,161.178141 39.018646,161.65829 C39.0645131,161.875936 39.1106581,162.093581 39.1565252,162.311226 C40.192843,162.502012 41.2600169,162.596436 42.2574172,162.90989 C43.371848,163.259895 44.5949699,163.6027 45.4628305,164.319047 C46.8035389,165.426103 46.5625283,166.87458 44.9735817,167.642985 C43.8255151,168.198175 42.525948,168.45514 41.2783637,168.786869 C40.6562394,168.951903 40.0007573,169.048266 39.3572284,169.069033 C36.6052041,169.158473 35.2008378,170.749555 34.5422979,173.232263 C34.3085148,174.11309 34.0180234,174.978688 33.6597042,176.160508 C32.4704962,175.867268 31.3635709,175.594242 29.9756055,175.25199 C30.265263,173.290136 30.4095358,171.469778 30.8226174,169.711724 C31.424727,167.146776 30.5613141,165.284883 28.6404568,163.594116 C27.0567919,162.199912 25.5979411,160.624336 24.2980961,158.962644 C23.0594072,157.379038 23.0569053,156.000063 23.8964117,155.195938 C24.9065992,154.227887 26.553922,154.467408 28.1139584,155.822292 C28.8606187,156.470798 29.5911561,157.137579 30.8059385,157.518043 C30.6808465,156.97393 30.7247677,156.283058 30.4003624,155.911455 C29.2511838,154.593952 27.963848,153.397179 26.7515674,152.133119 C25.0297454,150.33796 23.1928387,148.630025 21.653651,146.689215 C19.9332188,144.520237 19.2802385,141.909877 19.5604446,139.132267 C19.8400948,136.359088 21.8310036,135.117457 24.2319363,136.52523 C25.8467352,137.47196 27.1618692,138.994093 28.4519848,140.403527 C29.6295176,141.690016 30.5171149,143.23984 31.6938138,144.526883 C32.082155,144.951374 33.3155622,145.265105 33.5632444,145.022538 C34.0594427,144.536851 34.4814198,143.54471 34.3190781,142.920294 C34.0522152,141.892709 33.4200835,140.88783 32.7206802,140.058506 C31.2337532,138.295191 29.5405633,136.704109 28.0525243,134.941901 C26.6879095,133.325621 25.3466451,131.658944 24.2452795,129.8624 C23.2317562,128.210123 23.140022,126.352107 24.2327703,124.602913 C25.2921606,122.906885 26.9094613,122.412614 28.4589344,123.664768 C29.8705282,124.805883 30.9427058,126.359583 32.1936259,127.704499 C33.0639883,128.64043 33.8959892,129.652508 34.9209097,130.387408 C35.3945915,130.727444 36.5184737,130.766487 36.9257177,130.431989 C37.3296259,130.099983 37.4908556,129.00068 37.2509569,128.462658 C36.7366897,127.31102 36.0094882,126.201472 35.1588625,125.264157 C34.0460996,124.038032 32.7123407,123.013216 31.5045079,121.869054 C29.263137,119.746319 28.0794886,117.087778 27.6741905,114.071755 C27.4014899,112.04289 27.9897003,110.667792 29.3776657,110.067191 C31.0500069,109.343644 32.5563927,109.864221 33.6558125,111.114436 C34.8667032,112.491749 35.8137887,114.096954 36.9009773,115.584474 C37.6554211,116.616767 38.3325858,117.814924 40.1236255,117.421446 C40.1236255,116.845211 40.3284984,116.146863 40.0849859,115.681113 C39.3639,114.301308 38.4607357,113.016757 37.6387421,111.688732 C36.5248673,109.89025 35.2155709,108.174008 34.3874618,106.252581 C33.8795882,105.07353 33.7839623,103.498508 34.0852951,102.239709 C34.6876826,99.7246034 37.0519216,99.106003 39.0044689,100.817261 C39.8278523,101.539146 40.4496986,102.487814 41.1777341,103.32046 C41.8151474,104.050098 42.4728534,104.761738 43.4138233,105.805107 C44.1779965,104.485666 44.8315328,103.611485 45.2190401,102.632634 C45.8962048,100.919992 46.3718324,99.1300936 46.9995164,97.3966836 C48.3260476,93.7346473 50.5429561,90.720563 53.816197,88.5582309 C55.9335878,87.1595961 58.2316671,86.7273512 60.6937558,87.6436218 C63.4363287,88.6642846 64.7517407,90.6837349 63.9886794,93.4954035 C63.4674627,95.4162765 62.5679122,97.3119514 61.4765538,98.9852735 C59.6132388,101.842354 57.449703,104.503941 55.4487868,107.273798 C54.8388937,108.117797 54.349367,109.047635 53.8047998,109.937877 C53.957134,110.106788 54.1094683,110.275421 54.2620806,110.444055" id="Fill-4" transform="translate(43.997789, 131.660508) rotate(-29.000000) translate(-43.997789, -131.660508) "></path>
                <path d="M125.424048,140.425025 C125.534056,139.581367 125.728947,138.738812 125.741397,137.893671 C125.938121,124.639475 126.138302,111.385277 126.247453,98.1307517 C126.2587,96.7680249 125.861703,95.3356475 125.362059,94.0501141 C124.431793,91.6574543 123.429314,89.271021 122.204359,87.0210797 C118.550977,80.3106404 117.470099,73.2122917 118.833437,65.7307511 C119.912313,59.8091043 119.586528,53.9513191 118.433798,48.0905883 C117.170813,41.6663773 117.953712,35.5004189 121.22599,29.7956003 C124.319466,24.402607 126.753608,18.7759643 128.090703,12.6834256 C128.220906,12.0915942 128.603805,11.5559944 128.866496,11 C134.638541,13.4980909 144.360246,24.8717954 145.42589,30.5734436 C145.796414,32.557415 145.716303,34.6934752 145.469185,36.7149238 C144.955255,40.9246972 145.481191,44.9267688 147.169861,48.7867236 C149.619833,54.3855112 149.525147,60.0747713 147.519248,65.7297223 C146.491094,68.6280924 145.325814,71.5373657 143.775848,74.1772776 C140.074154,80.4830035 136.097172,86.6251325 132.262633,92.8533058 C131.802396,93.6002385 131.283329,94.44725 131.217113,95.2816106 C130.605307,102.972407 130.07377,110.670105 129.565279,118.36856 C129.518736,119.072353 129.794815,119.797183 130.030557,121.131554 C130.950761,120.056393 131.604452,119.509031 131.987838,118.811975 C135.947832,111.611895 139.867894,104.389825 143.789108,97.1685254 C144.831611,95.2489248 145.795021,93.2849553 146.872848,91.3858037 C148.318666,88.8390469 150.376702,86.9245884 153.166186,85.9884392 C157.907271,84.3978745 161.887011,81.732069 165.082443,77.8647307 C165.488742,77.3735356 165.971446,76.9290287 166.47831,76.5420588 C171.017802,73.0740216 176.522622,71.8282818 182.051455,69.0772777 C181.837128,70.8754479 181.849913,71.8994106 181.579676,72.8416682 C180.16266,77.7862984 178.727978,82.7270773 177.193454,87.6358609 C175.959906,91.5834405 173.452992,94.4993687 170.076042,96.9291698 C166.555375,99.4625804 163.273371,102.371281 160.108468,105.353295 C157.238725,108.057401 154.147733,110.182647 150.302752,111.144966 C148.939779,111.486135 147.642293,112.126611 146.269768,112.389762 C141.2802,113.345477 138.32139,116.58229 136.046715,120.904822 C132.387623,127.858276 130.309258,135.107361 130.172797,143.045445 C130.039941,150.752157 129.291778,158.448448 128.830528,166.150736 C128.773839,167.101741 128.82162,168.058472 128.820654,169.561017 C132.551229,166.725418 134.747236,163.486777 136.138523,159.729908 C137.163519,156.962482 137.933161,154.092861 138.697416,151.237148 C140.075387,146.087054 142.230117,141.335852 145.281462,136.951792 C155.809508,121.824952 154.189332,123.146996 170.176913,115.080544 C173.695941,113.304974 177.150525,111.399275 180.988897,109.365865 C181.137997,110.448066 181.382901,111.272956 181.333602,112.079882 C181.247045,113.489008 181.117836,114.923268 180.764751,116.283896 C179.176446,122.398999 178.027121,128.570214 177.540643,134.887396 C177.236978,138.835151 175.530895,142.346562 172.898746,145.296175 C169.051226,149.609288 165.161478,153.888437 161.170779,158.066837 C156.28224,163.18558 149.879688,164.606099 143.233502,164.42187 C139.475242,164.317675 136.780278,165.200846 134.859679,168.416521 C134.532465,168.964445 134.113867,169.467622 133.684149,169.942223 C128.152774,176.049814 125.112277,183.275183 124.075379,191.41354 C123.979255,192.16835 123.744486,192.905868 123.502982,193.961667 L118.661134,193.964775 C119.0784,191.947852 119.386787,190.214899 119.798862,188.5066 C122.27516,178.245602 124.508339,167.968538 125.069019,157.356502 C125.580317,147.681561 121.567141,140.220466 112.777657,135.964905 C108.7498,134.014182 104.688802,132.232661 101.102831,129.402916 C95.3689611,124.878103 91.6215571,119.238046 89.2569533,112.288072 C86.0474094,102.855385 85.560665,93.4526236 87.7254651,83.7905264 C88.6480099,79.6712615 89.352423,75.5026954 90.150522,71.3842828 C90.6402378,71.3839685 90.9998093,71.2864006 91.0827014,71.3975899 C94.1028917,75.4475017 97.8076236,78.756517 101.835955,81.7613392 C104.748655,83.9341044 106.418696,86.898338 106.626786,90.6182587 C106.68374,91.6452831 106.944263,92.6690869 106.920946,93.6899827 C106.79486,99.229781 108.723402,103.9745 112.125999,108.253604 C114.61021,111.377612 115.504259,115.14074 115.789812,119.053353 C116.186156,124.489299 116.899052,129.830795 120.091712,134.458052 C121.537235,136.552962 123.075749,138.582535 124.571995,140.641491 C124.855885,140.569465 125.140158,140.497438 125.424048,140.425025" id="Fill-1" transform="translate(134.228086, 102.482387) rotate(20.000000) translate(-134.228086, -102.482387) "></path>
                <path d="M65.0115087,61.2700285 C66.9411376,61.3622654 68.9078373,61.2661853 70.7851771,61.6251405 C71.7509671,61.8096143 72.9824957,62.6293696 73.3411062,63.4725684 C73.9619434,64.9326014 72.616471,65.9057005 71.4309882,66.3449787 C69.5118951,67.0552027 67.473005,67.4595077 65.4723564,67.942214 C64.8522996,68.092099 64.1908798,68.0767261 62.9698871,68.1916379 C64.0207447,69.2323774 64.9081008,69.8907182 65.4988912,70.7477525 C66.4260496,72.0921051 67.4932964,73.4864193 67.8839048,75.0129397 C68.4446483,77.2024127 66.6843741,78.516404 64.6462644,77.4733585 C62.8379933,76.5475308 61.2595607,75.1854995 59.3225176,73.8373038 C58.8320134,75.1347692 58.3957494,76.5221657 57.7920819,77.835004 C56.7072753,80.1947309 54.8658356,81.6078768 53.5121687,81.0321649 C51.4030394,80.1351612 51.7187259,78.1263188 51.7023367,76.383426 C51.6918008,75.2612106 51.9645634,74.1366893 52.1756714,72.5110143 C50.4551994,72.7223905 48.9801746,72.981038 47.4946139,73.0678944 C45.3394389,73.1939515 43.8901685,72.2673552 43.5697994,70.7150853 C43.2357726,69.0955594 44.0618645,67.6601229 46.0886578,66.9249181 C47.6327512,66.3649633 49.2993731,66.1324495 50.8984873,65.7569685 C49.6263759,63.3691863 48.3515331,61.1040021 47.2070231,58.7769425 C46.6088186,57.5601843 46.435952,56.0167538 47.8610288,55.4164454 C48.8779374,54.9883125 50.5788986,54.9783202 51.4299644,55.557491 C53.4181261,56.9106829 55.0781143,58.7312083 57.0779826,60.5505809 C57.4736638,59.8953147 57.9196832,59.058265 58.4605256,58.2857811 C59.1937456,57.2392768 59.8298013,56.0179067 60.823687,55.290004 C61.750065,54.6116786 63.2586485,53.9406553 64.2092201,54.2292798 C65.8106755,54.7158294 65.7139014,56.4056859 65.3705094,57.8461186 C65.133647,58.839971 64.8156191,59.8146074 64.534662,60.7984675 C64.4886163,60.9867844 64.4417901,61.1743328 64.3949639,61.3622654 C64.6006089,61.3315198 64.8062539,61.3007742 65.0115087,61.2700285" id="Fill-3"></path>
            </g>
        </g>
    </g>
</svg>