<?xml version="1.0" encoding="UTF-8"?>
<svg id="Layer_1" data-name="Layer 1" xmlns="http://www.w3.org/2000/svg" version="1.1" viewBox="0 0 25 25">
  <defs>
    <style>
      .cls-1 {
        fill: #fff;
        stroke-width: 0px;
      }
    </style>
  </defs>
  <g id="Page-1">
    <g id="Desktop-HD-Copy">
      <g id="dribble-logo">
        <path id="Fill-3" class="cls-1" d="M12.5,0C5.6,0,0,5.6,0,12.5s5.6,12.5,12.5,12.5,12.5-5.6,12.5-12.5S19.4,0,12.5,0ZM20.8,5.8c1.5,1.8,2.4,4.1,2.4,6.6-.4,0-3.9-.8-7.4-.3,0-.2-.1-.4-.2-.6-.2-.5-.5-1-.7-1.5,3.9-1.6,5.7-3.9,6-4.2ZM12.5,1.8c2.7,0,5.2,1,7.1,2.7-.2.3-1.8,2.4-5.6,3.9-1.7-3.2-3.7-5.8-4-6.2.8-.2,1.6-.3,2.5-.3ZM8,2.8c.3.4,2.2,3,4,6.2-5,1.3-9.4,1.3-9.9,1.3.7-3.3,2.9-6.1,5.9-7.5ZM1.8,12.5v-.3c.5,0,5.6,0,11-1.5.3.6.6,1.2.9,1.8-.1,0-.3,0-.4.1-5.5,1.8-8.4,6.6-8.7,7-1.7-1.9-2.7-4.4-2.7-7.1ZM12.5,23.2c-2.5,0-4.7-.8-6.5-2.3.2-.4,2.4-4.6,8.4-6.7,0,0,0,0,0,0,1.5,3.9,2.1,7.2,2.3,8.1-1.3.6-2.7.9-4.2.9ZM18.5,21.4c-.1-.7-.7-3.8-2.1-7.6,3.3-.5,6.3.3,6.6.5-.5,3-2.2,5.5-4.6,7.1Z"/>
      </g>
    </g>
  </g>
</svg>