<?xml version="1.0" encoding="UTF-8"?>
<svg width="61px" height="49px" viewBox="0 0 61 49" version="1.1" xmlns="http://www.w3.org/2000/svg" xmlns:xlink="http://www.w3.org/1999/xlink">
    <!-- Generator: Sketch 52.6 (67491) - http://www.bohemiancoding.com/sketch -->
    <title>hip-dinosaur-logo</title>
    <desc>Created with Sketch.</desc>
    <g id="Page-1" stroke="none" stroke-width="1" fill="none" fill-rule="evenodd">
        <g id="Desktop-HD-Copy" transform="translate(-132.000000, -4039.000000)" fill="#E16644">
            <g id="hip-dinosaur-logo" transform="translate(132.000000, 4039.000000)">
                <path d="M53.2709039,26.4215962 C58.1586496,32.0501799 61,38.0377358 61,38.0377358 C61,38.0377358 58.1625142,36.7504966 56.7321486,35.464334 C53.1895164,32.2788669 48.6341268,31.3675286 47.226026,29.4402887 C45.2209301,26.6959848 47.2730934,25.8076168 42.2589693,20.2109165 C40.7544841,18.5315056 38.9411765,15.3962264 38.9411765,15.3962264 C38.9411765,15.3962264 50.3625285,23.0723455 53.2709039,26.4215962 Z" id="Fill-1"></path>
                <path d="M38.6630048,39.3731443 C37.8015391,38.4770202 20.468945,48.9999829 20.468945,48.9999829 C20.468945,48.9999829 34.5120694,37.8007442 34.3669585,34.7348041 C34.1798997,30.7783359 30.5143452,26.0019196 29.5574118,25.3381494 C23.4863607,21.1273997 -2.31436836e-05,3.73912013 -2.31436836e-05,3.73912013 C-2.31436836e-05,3.73912013 32.4887907,16.5190959 38.8592054,21.8401646 C45.2296779,27.1610621 43.2739209,30.7443594 45.6460906,33.5732061 C47.111028,35.32 39.6117223,40.3601199 38.6630048,39.3731443" id="Fill-5"></path>
                <path d="M12.4842202,0.0320470336 L33.5294118,17.3018868 C33.5294118,17.3018868 20.6643544,10.6487991 20.012738,9.98827303 C15.878391,5.79778912 12.4842202,0.0320470336 12.4842202,0.0320470336 Z" id="Fill-8"></path>
            </g>
        </g>
    </g>
</svg>