<?xml version="1.0" encoding="UTF-8"?>
<svg id="Layer_1" data-name="Layer 1" xmlns="http://www.w3.org/2000/svg" xmlns:xlink="http://www.w3.org/1999/xlink" version="1.1" viewBox="0 0 25 25">
  <defs>
    <style>
      .cls-1 {
        mask: url(#mask);
      }

      .cls-2 {
        fill: #fff;
        stroke-width: 0px;
      }
    </style>
    <mask id="mask" x="0" y="0" width="25" height="25" maskUnits="userSpaceOnUse">
      <g id="mask-2">
        <polygon id="path-1" class="cls-2" points="0 0 25 0 25 25 0 25 0 0"/>
      </g>
    </mask>
  </defs>
  <g id="Page-1">
    <g id="Desktop-HD-Copy">
      <g id="instagram-logo">
        <g id="Group-3">
          <g class="cls-1">
            <path id="Fill-1" class="cls-2" d="M12.5,0C9.1,0,8.7,0,7.3,0c-1.3,0-2.2.3-3,.6-.8.3-1.5.7-2.2,1.4-.7.7-1.1,1.4-1.4,2.2-.3.8-.5,1.7-.6,3,0,1.3,0,1.8,0,5.2s0,3.8,0,5.2c0,1.3.3,2.2.6,3,.3.8.7,1.5,1.4,2.2.7.7,1.4,1.1,2.2,1.4.8.3,1.7.5,3,.6,1.3,0,1.8,0,5.2,0s3.8,0,5.2,0c1.3,0,2.2-.3,3-.6.8-.3,1.5-.7,2.2-1.4.7-.7,1.1-1.4,1.4-2.2.3-.8.5-1.7.6-3,0-1.3,0-1.8,0-5.2s0-3.8,0-5.2c0-1.3-.3-2.2-.6-3-.3-.8-.7-1.5-1.4-2.2-.7-.7-1.4-1.1-2.2-1.4-.8-.3-1.7-.5-3-.6-1.3,0-1.8,0-5.2,0ZM12.5,2.3c3.3,0,3.7,0,5,0,1.2,0,1.9.3,2.3.4.6.2,1,.5,1.4.9.4.4.7.9.9,1.4.2.4.4,1.1.4,2.3,0,1.3,0,1.7,0,5s0,3.7,0,5c0,1.2-.3,1.9-.4,2.3-.2.6-.5,1-.9,1.4-.4.4-.9.7-1.4.9-.4.2-1.1.4-2.3.4-1.3,0-1.7,0-5,0s-3.7,0-5,0c-1.2,0-1.9-.3-2.3-.4-.6-.2-1-.5-1.4-.9-.4-.4-.7-.9-.9-1.4-.2-.4-.4-1.1-.4-2.3,0-1.3,0-1.7,0-5s0-3.7,0-5c0-1.2.3-1.9.4-2.3.2-.6.5-1,.9-1.4.4-.4.9-.7,1.4-.9.4-.2,1.1-.4,2.3-.4,1.3,0,1.7,0,5,0Z"/>
          </g>
        </g>
        <path id="Fill-4" class="cls-2" d="M12.5,16.7c-2.3,0-4.2-1.9-4.2-4.2s1.9-4.2,4.2-4.2,4.2,1.9,4.2,4.2-1.9,4.2-4.2,4.2ZM12.5,6c-3.6,0-6.5,2.9-6.5,6.5s2.9,6.5,6.5,6.5,6.5-2.9,6.5-6.5-2.9-6.5-6.5-6.5Z"/>
        <path id="Fill-5" class="cls-2" d="M20.5,6c0,.8-.7,1.5-1.5,1.5s-1.5-.7-1.5-1.5.7-1.5,1.5-1.5,1.5.7,1.5,1.5"/>
      </g>
    </g>
  </g>
</svg>