<?xml version="1.0" encoding="UTF-8"?>
<svg width="12px" height="12px" viewBox="0 0 12 12" version="1.1" xmlns="http://www.w3.org/2000/svg" xmlns:xlink="http://www.w3.org/1999/xlink">
    <!-- Generator: Sketch 61.2 (89653) - https://sketch.com -->
    <title>link-out</title>
    <desc>Created with Sketch.</desc>
    <g id="Symbols" stroke="none" stroke-width="1" fill="none" fill-rule="evenodd">
        <g id="collaborator" transform="translate(-436.000000, -7.000000)">
            <g id="link-out" transform="translate(434.000000, 5.000000)">
                <g id="baseline-open_in_new-24px">
                    <polygon id="Path" points="0 0 16 0 16 16 0 16"></polygon>
                    <path d="M12.6666667,12.6666667 L3.33333333,12.6666667 L3.33333333,3.33333333 L8,3.33333333 L8,2 L3.33333333,2 C2.59333333,2 2,2.6 2,3.33333333 L2,12.6666667 C2,13.4 2.59333333,14 3.33333333,14 L12.6666667,14 C13.4,14 14,13.4 14,12.6666667 L14,8 L12.6666667,8 L12.6666667,12.6666667 Z M9.33333333,2 L9.33333333,3.33333333 L11.7266667,3.33333333 L5.17333333,9.88666667 L6.11333333,10.8266667 L12.6666667,4.27333333 L12.6666667,6.66666667 L14,6.66666667 L14,2 L9.33333333,2 Z" id="Shape" fill="#29B4C0" fill-rule="nonzero"></path>
                </g>
            </g>
        </g>
    </g>
</svg>