<?xml version="1.0" encoding="utf-8"?>
<!-- Generator: Adobe Illustrator 24.1.3, SVG Export Plug-In . SVG Version: 6.00 Build 0)  -->
<svg version="1.1" id="Layer_1" xmlns="http://www.w3.org/2000/svg" xmlns:xlink="http://www.w3.org/1999/xlink" x="0px" y="0px"
	 viewBox="0 0 44 37" style="enable-background:new 0 0 44 37;" xml:space="preserve">
<style type="text/css">
	.st0{fill-rule:evenodd;clip-rule:evenodd;fill:#FFFFFF;}
</style>
<desc>Created with Sketch.</desc>
<g id="Logo">
	<g>
		<path id="Fill-1" class="st0" d="M38.4,19.3C41.9,23.5,44,28,44,28s-2.1-1-3.1-1.9C38.3,23.7,35,23,34,21.5
			c-1.5-2.1,0-2.7-3.6-6.9C29.3,13.4,28,11,28,11S36.3,16.8,38.4,19.3z"/>
		<path id="Fill-5" class="st0" d="M28.7,29.8C28,29.1,15.2,37,15.2,37s10.4-8.4,10.3-10.7c-0.1-3-2.9-6.6-3.6-7.1
			C17.4,16.1,0,3,0,3s24.1,9.6,28.8,13.6c4.7,4,3.3,6.7,5,8.8C34.9,26.7,29.4,30.5,28.7,29.8"/>
		<path id="Fill-8" class="st0" d="M9,0l15,13c0,0-9.2-5-9.6-5.5C11.4,4.3,9,0,9,0z"/>
	</g>
</g>
</svg>
