<svg width="160" height="160" viewBox="0 0 160 160" fill="none" xmlns="http://www.w3.org/2000/svg">
<path d="M1.11016 0.00475867L0 0.562012L79.2657 159.643L80.3759 159.086L1.11016 0.00475867Z" fill="#CB9AEA"/>
<path d="M9.02739 0.00971365L7.89551 0.520996L79.2312 159.612L80.363 159.101L9.02739 0.00971365Z" fill="#CB9AEA"/>
<path d="M16.9787 0.0666012L15.8262 0.529297L79.2304 159.625L80.3828 159.162L16.9787 0.0666012Z" fill="#CB9AEA"/>
<path d="M24.9 0.0625087L23.7285 0.474121L79.2185 159.569L80.3899 159.157L24.9 0.0625087Z" fill="#CB9AEA"/>
<path d="M32.8446 0.10875L31.6558 0.466797L79.2242 159.581L80.4131 159.223L32.8446 0.10875Z" fill="#CB9AEA"/>
<path d="M40.7764 0.1255L39.5723 0.427734L79.2162 159.54L80.4203 159.237L40.7764 0.1255Z" fill="#CB9AEA"/>
<path d="M48.7064 0.171223L47.4893 0.415527L79.1881 159.511L80.4052 159.267L48.7064 0.171223Z" fill="#CB9AEA"/>
<path d="M56.6337 0.159359L55.4062 0.344238L79.1891 159.412L80.4166 159.227L56.6337 0.159359Z" fill="#CB9AEA"/>
<path d="M64.5568 0.178749L63.3218 0.302734L79.1764 159.398L80.4114 159.274L64.5568 0.178749Z" fill="#CB9AEA"/>
<path d="M72.5088 0.261516L71.269 0.32373L79.1936 159.405L80.4334 159.343L72.5088 0.261516Z" fill="#CB9AEA"/>
<path d="M80.4224 0.278809H79.1812V159.359H80.4224V0.278809Z" fill="#CB9AEA"/>
<path d="M87.1903 0.284421L79.1548 159.35L80.3944 159.413L88.4299 0.347505L87.1903 0.284421Z" fill="#CB9AEA"/>
<path d="M95.0906 0.213387L79.1934 159.309L80.4284 159.433L96.3256 0.337705L95.0906 0.213387Z" fill="#CB9AEA"/>
<path d="M102.999 0.185865L79.1997 159.254L80.4271 159.439L104.226 0.370867L102.999 0.185865Z" fill="#CB9AEA"/>
<path d="M110.89 0.133837L79.2886 159.246L80.5058 159.489L112.108 0.377391L110.89 0.133837Z" fill="#CB9AEA"/>
<path d="M118.837 0.127598L79.2588 159.256L80.463 159.558L120.042 0.42933L118.837 0.127598Z" fill="#CB9AEA"/>
<path d="M126.751 0.0649041L79.2822 159.212L80.4713 159.569L127.94 0.4222L126.751 0.0649041Z" fill="#CB9AEA"/>
<path d="M134.705 0.0134614L79.2822 159.142L80.4539 159.553L135.877 0.424575L134.705 0.0134614Z" fill="#CB9AEA"/>
<path d="M142.614 0.0067142L79.312 159.137L80.4647 159.599L143.767 0.468657L142.614 0.0067142Z" fill="#CB9AEA"/>
<path d="M150.581 0.00967754L79.2803 159.119L80.4123 159.63L151.713 0.520705L150.581 0.00967754Z" fill="#CB9AEA"/>
<path d="M158.535 -0.000146755L79.2866 159.081L80.3968 159.638L159.645 0.556975L158.535 -0.000146755Z" fill="#CB9AEA"/>
</svg>
