<svg width="492" height="314" viewBox="0 0 492 314" fill="none" xmlns="http://www.w3.org/2000/svg">
<g clip-path="url(#clip0_99_9487)">
<g filter="url(#filter0_d_99_9487)">
<rect width="643.273" height="301.681" rx="5.59839" fill="white"/>
</g>
<path d="M51.7204 20.3668C52.219 20.3668 52.679 20.437 53.1004 20.5775C53.5217 20.718 53.8764 20.89 54.1643 21.0937L53.5112 22.2524C53.2514 22.0698 52.9599 21.9223 52.6369 21.81C52.3209 21.6976 52.0189 21.6414 51.731 21.6414C51.3798 21.6414 51.1059 21.7152 50.9093 21.8627C50.7127 22.0031 50.6143 22.1997 50.6143 22.4526C50.6143 22.7054 50.7302 22.9055 50.962 23.053C51.1937 23.1934 51.5484 23.3479 52.0259 23.5165C52.5175 23.6921 52.9108 23.8536 53.2057 24.0011C53.5007 24.1485 53.757 24.3662 53.9747 24.6542C54.1994 24.9351 54.3118 25.2967 54.3118 25.7392C54.3118 26.2097 54.1889 26.617 53.9431 26.9611C53.7043 27.3052 53.3672 27.5721 52.9318 27.7617C52.4964 27.9443 51.9978 28.0356 51.436 28.0356C50.9795 28.0356 50.5125 27.9759 50.035 27.8565C49.5645 27.7301 49.1501 27.5616 48.792 27.3509L49.2765 26.0657C49.6136 26.2483 49.9683 26.3958 50.3405 26.5082C50.7197 26.6135 51.0919 26.6662 51.4571 26.6662C51.8574 26.6662 52.1558 26.5889 52.3525 26.4344C52.5561 26.2799 52.6579 26.0763 52.6579 25.8234C52.6579 25.5706 52.5491 25.374 52.3314 25.2335C52.1137 25.0931 51.7801 24.9491 51.3307 24.8016C50.825 24.6401 50.4177 24.4856 50.1087 24.3381C49.7997 24.1836 49.5329 23.9624 49.3081 23.6745C49.0904 23.3795 48.9816 22.9968 48.9816 22.5263C48.9816 22.0909 49.0939 21.7117 49.3187 21.3886C49.5504 21.0586 49.8735 20.8057 50.2878 20.6302C50.7021 20.4546 51.1797 20.3668 51.7204 20.3668ZM60.1769 26.8768C60.3103 26.8768 60.4086 26.8733 60.4718 26.8663L60.3665 27.8354C60.2049 27.9689 59.9486 28.0356 59.5975 28.0356C59.0497 28.0356 58.7126 27.7898 58.5862 27.2982C58.1649 27.8179 57.6101 28.0777 56.9218 28.0777C56.5847 28.0777 56.2722 28.011 55.9843 27.8776C55.7034 27.7441 55.4787 27.551 55.3101 27.2982C55.1486 27.0384 55.0678 26.7364 55.0678 26.3923C55.0678 25.8515 55.2715 25.4372 55.6788 25.1493C56.0932 24.8543 56.6199 24.7068 57.2589 24.7068C57.4485 24.7068 57.6522 24.7174 57.8699 24.7384C58.0946 24.7595 58.2702 24.7876 58.3966 24.8227V24.3803C58.3966 23.7412 58.0384 23.4217 57.3221 23.4217C57.0623 23.4217 56.8095 23.4673 56.5637 23.5586C56.3179 23.6499 56.0932 23.7658 55.8895 23.9063L55.3312 22.9898C55.6191 22.744 55.9562 22.5544 56.3425 22.421C56.7357 22.2875 57.1325 22.2208 57.5328 22.2208C58.3123 22.2208 58.8952 22.3999 59.2815 22.758C59.6747 23.1092 59.8714 23.6148 59.8714 24.2749V26.4766C59.8714 26.7434 59.9732 26.8768 60.1769 26.8768ZM57.2484 26.9822C57.4942 26.9822 57.7189 26.926 57.9226 26.8136C58.1332 26.6943 58.2983 26.5327 58.4177 26.3291V25.7286C58.0806 25.6444 57.7505 25.6022 57.4275 25.6022C57.1395 25.6022 56.9043 25.6619 56.7217 25.7813C56.5391 25.8937 56.4478 26.0692 56.4478 26.308C56.4478 26.5327 56.5251 26.7013 56.6796 26.8136C56.8341 26.926 57.0237 26.9822 57.2484 26.9822ZM62.8661 27.9092H61.3913V19.9876H62.8661V27.9092ZM66.9072 26.919C67.5111 26.919 68.0413 26.7434 68.4978 26.3923L69.0456 27.3509C68.4276 27.8354 67.6551 28.0777 66.7281 28.0777C66.1874 28.0777 65.7028 27.9724 65.2744 27.7617C64.8531 27.544 64.5195 27.2174 64.2737 26.782C64.0279 26.3466 63.905 25.8094 63.905 25.1703C63.905 24.5875 64.0174 24.0748 64.2421 23.6324C64.4668 23.1829 64.7828 22.8353 65.1901 22.5895C65.5975 22.3437 66.068 22.2208 66.6017 22.2208C67.1495 22.2208 67.6095 22.3402 67.9817 22.579C68.3539 22.8177 68.6313 23.1338 68.8138 23.527C69.0035 23.9203 69.0983 24.3487 69.0983 24.8122C69.0983 25.1142 69.0737 25.3775 69.0245 25.6022H65.3798C65.5202 26.4801 66.0294 26.919 66.9072 26.919ZM66.6333 23.3269C65.8889 23.3269 65.4675 23.7693 65.3692 24.6542H67.7499C67.7359 24.2258 67.634 23.8992 67.4444 23.6745C67.2548 23.4428 66.9844 23.3269 66.6333 23.3269ZM72.2194 22.2208C72.5846 22.2208 72.9357 22.27 73.2728 22.3683C73.6099 22.4666 73.8978 22.5965 74.1366 22.758L73.7047 23.7693C73.508 23.6569 73.2728 23.5657 72.9989 23.4954C72.732 23.4182 72.4862 23.3796 72.2615 23.3796C72.0157 23.3796 71.8226 23.4252 71.6821 23.5165C71.5487 23.6078 71.482 23.7307 71.482 23.8852C71.482 24.0467 71.5592 24.1696 71.7137 24.2539C71.8753 24.3381 72.1316 24.4294 72.4827 24.5278C72.8549 24.6331 73.1604 24.7384 73.3992 24.8438C73.645 24.9491 73.8557 25.1142 74.0312 25.3389C74.2068 25.5636 74.2946 25.8586 74.2946 26.2237C74.2946 26.8066 74.0769 27.2631 73.6415 27.5932C73.2131 27.9162 72.6583 28.0777 71.9771 28.0777C71.5768 28.0777 71.1976 28.0215 70.8394 27.9092C70.4813 27.7968 70.1863 27.6564 69.9546 27.4878L70.3127 26.3607C70.5374 26.5082 70.7832 26.624 71.0501 26.7083C71.324 26.7856 71.5944 26.8242 71.8612 26.8242C72.1562 26.8242 72.3879 26.775 72.5565 26.6767C72.725 26.5714 72.8093 26.4344 72.8093 26.2659C72.8093 26.1044 72.732 25.9815 72.5775 25.8972C72.423 25.8129 72.1702 25.7146 71.8191 25.6022C71.4609 25.4899 71.1625 25.381 70.9237 25.2757C70.6849 25.1633 70.4813 24.9983 70.3127 24.7806C70.1442 24.5629 70.0599 24.2785 70.0599 23.9273C70.0599 23.4006 70.253 22.9863 70.6393 22.6843C71.0325 22.3753 71.5592 22.2208 72.2194 22.2208ZM78.2852 20.5354H80.8661C81.7861 20.5354 82.4883 20.746 82.9729 21.1674C83.4645 21.5817 83.7103 22.1471 83.7103 22.8634C83.7103 23.3409 83.6014 23.7763 83.3837 24.1696C83.166 24.5558 82.843 24.8648 82.4146 25.0966C81.9862 25.3283 81.47 25.4442 80.8661 25.4442H79.8337V27.9092H78.2852V20.5354ZM80.8239 24.1275C81.2172 24.1275 81.5192 24.0221 81.7299 23.8114C81.9476 23.6008 82.0564 23.3093 82.0564 22.9371C82.0564 22.5719 81.9476 22.3016 81.7299 22.126C81.5192 21.9434 81.2137 21.8521 80.8134 21.8521H79.8337V24.1275H80.8239ZM86.1569 27.9092H84.6821V22.3894H86.1569V27.9092ZM85.4195 20.0719C85.6653 20.0719 85.8725 20.1421 86.041 20.2825C86.2166 20.416 86.3044 20.6126 86.3044 20.8725C86.3044 21.1323 86.2166 21.3289 86.041 21.4624C85.8725 21.5958 85.6653 21.6625 85.4195 21.6625C85.1807 21.6625 84.9736 21.5958 84.798 21.4624C84.6294 21.3289 84.5452 21.1323 84.5452 20.8725C84.5452 20.6126 84.6294 20.416 84.798 20.2825C84.9736 20.1421 85.1807 20.0719 85.4195 20.0719ZM90.5216 22.2208C90.9289 22.2208 91.3046 22.3297 91.6487 22.5474C91.9999 22.758 92.2808 23.0741 92.4914 23.4954C92.7021 23.9098 92.8075 24.4084 92.8075 24.9913C92.8075 25.6233 92.6916 26.1746 92.4598 26.6451C92.2281 27.1086 91.9121 27.4632 91.5118 27.709C91.1185 27.9548 90.6796 28.0777 90.195 28.0777C89.7386 28.0777 89.3558 27.9864 89.0468 27.8038V30.0792H87.5721V22.3894H88.6149L88.8677 23.053H88.8993C89.1241 22.7651 89.3628 22.5544 89.6157 22.421C89.8755 22.2875 90.1775 22.2208 90.5216 22.2208ZM90.1529 23.527C89.9282 23.527 89.728 23.5832 89.5525 23.6956C89.3769 23.8079 89.2083 23.98 89.0468 24.2117V26.5819C89.1662 26.6802 89.2961 26.7539 89.4366 26.8031C89.577 26.8452 89.7421 26.8663 89.9317 26.8663C90.3249 26.8663 90.6515 26.7118 90.9113 26.4028C91.1712 26.0868 91.3011 25.6619 91.3011 25.1282C91.3011 24.5945 91.1958 24.1942 90.9851 23.9273C90.7744 23.6605 90.497 23.527 90.1529 23.527ZM96.6061 26.919C97.2101 26.919 97.7403 26.7434 98.1968 26.3923L98.7445 27.3509C98.1265 27.8354 97.354 28.0777 96.4271 28.0777C95.8863 28.0777 95.4017 27.9724 94.9734 27.7617C94.552 27.544 94.2184 27.2174 93.9726 26.782C93.7268 26.3466 93.6039 25.8094 93.6039 25.1703C93.6039 24.5875 93.7163 24.0748 93.941 23.6324C94.1658 23.1829 94.4818 22.8353 94.8891 22.5895C95.2964 22.3437 95.7669 22.2208 96.3006 22.2208C96.8484 22.2208 97.3084 22.3402 97.6806 22.579C98.0528 22.8177 98.3302 23.1338 98.5128 23.527C98.7024 23.9203 98.7972 24.3487 98.7972 24.8122C98.7972 25.1142 98.7726 25.3775 98.7235 25.6022H95.0787C95.2192 26.4801 95.7283 26.919 96.6061 26.919ZM96.3322 23.3269C95.5878 23.3269 95.1665 23.7693 95.0682 24.6542H97.4489C97.4348 24.2258 97.333 23.8992 97.1434 23.6745C96.9538 23.4428 96.6834 23.3269 96.3322 23.3269ZM101.505 27.9092H100.03V19.9876H101.505V27.9092ZM104.396 27.9092H102.921V22.3894H104.396V27.9092ZM103.659 20.0719C103.904 20.0719 104.112 20.1421 104.28 20.2825C104.456 20.416 104.543 20.6126 104.543 20.8725C104.543 21.1323 104.456 21.3289 104.28 21.4624C104.112 21.5958 103.904 21.6625 103.659 21.6625C103.42 21.6625 103.213 21.5958 103.037 21.4624C102.869 21.3289 102.784 21.1323 102.784 20.8725C102.784 20.6126 102.869 20.416 103.037 20.2825C103.213 20.1421 103.42 20.0719 103.659 20.0719ZM105.811 22.3894H106.812L107.044 23.2005H107.096C107.356 22.8704 107.634 22.6246 107.928 22.4631C108.223 22.3016 108.571 22.2208 108.971 22.2208C109.568 22.2208 110.035 22.3858 110.372 22.7159C110.709 23.046 110.878 23.513 110.878 24.1169V27.9092H109.403V24.591C109.403 24.2398 109.337 23.994 109.203 23.8536C109.07 23.7061 108.88 23.6324 108.634 23.6324C108.122 23.6324 107.672 23.9098 107.286 24.4646V27.9092H105.811V22.3894ZM114.886 26.919C115.49 26.919 116.021 26.7434 116.477 26.3923L117.025 27.3509C116.407 27.8354 115.634 28.0777 114.707 28.0777C114.167 28.0777 113.682 27.9724 113.254 27.7617C112.832 27.544 112.499 27.2174 112.253 26.782C112.007 26.3466 111.884 25.8094 111.884 25.1703C111.884 24.5875 111.997 24.0748 112.221 23.6324C112.446 23.1829 112.762 22.8353 113.169 22.5895C113.577 22.3437 114.047 22.2208 114.581 22.2208C115.129 22.2208 115.589 22.3402 115.961 22.579C116.333 22.8177 116.61 23.1338 116.793 23.527C116.983 23.9203 117.077 24.3487 117.077 24.8122C117.077 25.1142 117.053 25.3775 117.004 25.6022H113.359C113.499 26.4801 114.009 26.919 114.886 26.919ZM114.612 23.3269C113.868 23.3269 113.447 23.7693 113.348 24.6542H115.729C115.715 24.2258 115.613 23.8992 115.424 23.6745C115.234 23.4428 114.964 23.3269 114.612 23.3269Z" fill="#444A53"/>
<path d="M49.0693 56.4655H50.2943V61.1988H52.986V62.2988H49.0693V56.4655ZM58.1312 57.5072H55.4229V58.8238H57.7562V59.8738H55.4229V61.2405H58.1312V62.2988H54.1979V56.4655H58.1312V57.5072ZM63.0948 61.1655H60.8115L60.4281 62.2988H59.1531L61.3364 56.4655H62.5698L64.8198 62.2988H63.4948L63.0948 61.1655ZM62.7614 60.1905L61.9448 57.8572L61.1448 60.1905H62.7614ZM67.8923 56.4655C68.4812 56.4655 69.0034 56.5766 69.4589 56.7989C69.92 57.0155 70.2811 57.3405 70.5423 57.7739C70.8089 58.2072 70.9422 58.7322 70.9422 59.3488C70.9422 59.9711 70.8089 60.5044 70.5423 60.9488C70.2811 61.3877 69.92 61.7238 69.4589 61.9572C68.9978 62.1849 68.4756 62.2988 67.8923 62.2988H66.0256V56.4655H67.8923ZM67.2673 57.5739V61.1988H67.9006C69.0617 61.1988 69.6423 60.5822 69.6423 59.3488C69.6423 58.7266 69.495 58.2766 69.2006 57.9989C68.9117 57.7155 68.4784 57.5739 67.9006 57.5739H67.2673ZM51.036 68.3322C51.4304 68.3322 51.7943 68.3878 52.1276 68.4989C52.461 68.61 52.7415 68.7461 52.9693 68.9072L52.4526 69.8239C52.2471 69.6794 52.0165 69.5627 51.761 69.4739C51.511 69.385 51.2721 69.3405 51.0443 69.3405C50.7665 69.3405 50.5499 69.3989 50.3943 69.5155C50.2388 69.6266 50.161 69.7822 50.161 69.9822C50.161 70.1822 50.2527 70.3405 50.436 70.4572C50.6193 70.5683 50.8999 70.6905 51.2777 70.8238C51.6665 70.9627 51.9776 71.0905 52.211 71.2072C52.4443 71.3238 52.6471 71.4961 52.8193 71.7238C52.9971 71.9461 53.086 72.2322 53.086 72.5822C53.086 72.9544 52.9888 73.2766 52.7943 73.5488C52.6054 73.8211 52.3388 74.0322 51.9943 74.1822C51.6499 74.3266 51.2554 74.3988 50.811 74.3988C50.4499 74.3988 50.0804 74.3516 49.7027 74.2572C49.3304 74.1572 49.0027 74.0238 48.7193 73.8572L49.1027 72.8405C49.3693 72.9849 49.6499 73.1016 49.9443 73.1905C50.2443 73.2738 50.5388 73.3155 50.8277 73.3155C51.1443 73.3155 51.3804 73.2544 51.536 73.1322C51.6971 73.0099 51.7776 72.8488 51.7776 72.6488C51.7776 72.4488 51.6915 72.2933 51.5193 72.1822C51.3471 72.0711 51.0832 71.9572 50.7277 71.8405C50.3277 71.7127 50.0054 71.5905 49.761 71.4738C49.5166 71.3516 49.3054 71.1766 49.1277 70.9488C48.9554 70.7155 48.8693 70.4127 48.8693 70.0405C48.8693 69.6961 48.9582 69.3961 49.136 69.1405C49.3193 68.8794 49.5749 68.6794 49.9027 68.5405C50.2304 68.4016 50.6082 68.3322 51.036 68.3322Z" fill="#444A53"/>
<path d="M189.329 59.3572C189.329 60.085 189.171 60.6905 188.854 61.1738C188.538 61.6516 188.118 61.9961 187.596 62.2072L189.321 62.9238L188.754 63.8238L186.246 62.4322C185.757 62.4044 185.304 62.2738 184.888 62.0405C184.471 61.8072 184.135 61.4655 183.879 61.0155C183.624 60.5599 183.496 60.0072 183.496 59.3572C183.496 58.685 183.632 58.1239 183.904 57.6739C184.177 57.2183 184.535 56.8822 184.979 56.6655C185.424 56.4433 185.902 56.3322 186.413 56.3322C186.924 56.3322 187.402 56.4433 187.846 56.6655C188.291 56.8822 188.649 57.2183 188.921 57.6739C189.193 58.1239 189.329 58.685 189.329 59.3572ZM184.796 59.3572C184.796 59.7738 184.863 60.1294 184.996 60.4238C185.135 60.7127 185.324 60.9322 185.563 61.0822C185.807 61.2322 186.085 61.3072 186.396 61.3072C186.702 61.3072 186.977 61.2349 187.221 61.0905C187.471 60.9405 187.666 60.7183 187.804 60.4238C187.949 60.1294 188.021 59.7738 188.021 59.3572C188.021 58.7405 187.871 58.2711 187.571 57.9489C187.271 57.6211 186.882 57.4572 186.404 57.4572C185.927 57.4572 185.538 57.6211 185.238 57.9489C184.943 58.2711 184.796 58.7405 184.796 59.3572ZM193.113 62.4322C192.413 62.4322 191.841 62.2488 191.397 61.8822C190.958 61.5155 190.738 60.9488 190.738 60.1822V56.4655H191.963V60.1572C191.963 60.5238 192.06 60.8072 192.255 61.0072C192.455 61.2016 192.741 61.2988 193.113 61.2988C193.48 61.2988 193.76 61.2016 193.955 61.0072C194.155 60.8072 194.255 60.5238 194.255 60.1572V56.4655H195.48V60.1822C195.48 60.9488 195.258 61.5155 194.813 61.8822C194.374 62.2488 193.808 62.4322 193.113 62.4322ZM200.311 61.1655H198.027L197.644 62.2988H196.369L198.552 56.4655H199.786L202.036 62.2988H200.711L200.311 61.1655ZM199.977 60.1905L199.161 57.8572L198.361 60.1905H199.977ZM203.241 56.4655H204.466V61.1988H207.158V62.2988H203.241V56.4655ZM209.595 62.2988H208.37V56.4655H209.595V62.2988ZM211.261 56.4655H214.961V57.5155H212.486V59.1155H214.644V60.1655H212.486V62.2988H211.261V56.4655ZM217.508 62.2988H216.283V56.4655H217.508V62.2988ZM223.107 57.5072H220.399V58.8238H222.732V59.8738H220.399V61.2405H223.107V62.2988H219.174V56.4655H223.107V57.5072ZM226.478 56.4655C227.067 56.4655 227.589 56.5766 228.045 56.7989C228.506 57.0155 228.867 57.3405 229.128 57.7739C229.395 58.2072 229.528 58.7322 229.528 59.3488C229.528 59.9711 229.395 60.5044 229.128 60.9488C228.867 61.3877 228.506 61.7238 228.045 61.9572C227.584 62.1849 227.062 62.2988 226.478 62.2988H224.612V56.4655H226.478ZM225.853 57.5739V61.1988H226.487C227.648 61.1988 228.228 60.5822 228.228 59.3488C228.228 58.7266 228.081 58.2766 227.787 57.9989C227.498 57.7155 227.064 57.5739 226.487 57.5739H225.853Z" fill="#444A53"/>
<path d="M323.646 59.3572C323.646 60.085 323.487 60.6905 323.171 61.1738C322.854 61.6516 322.435 61.9961 321.912 62.2072L323.637 62.9238L323.071 63.8238L320.562 62.4322C320.074 62.4044 319.621 62.2738 319.204 62.0405C318.787 61.8072 318.451 61.4655 318.196 61.0155C317.94 60.5599 317.812 60.0072 317.812 59.3572C317.812 58.685 317.949 58.1239 318.221 57.6739C318.493 57.2183 318.851 56.8822 319.296 56.6655C319.74 56.4433 320.218 56.3322 320.729 56.3322C321.24 56.3322 321.718 56.4433 322.162 56.6655C322.607 56.8822 322.965 57.2183 323.237 57.6739C323.51 58.1239 323.646 58.685 323.646 59.3572ZM319.112 59.3572C319.112 59.7738 319.179 60.1294 319.312 60.4238C319.451 60.7127 319.64 60.9322 319.879 61.0822C320.124 61.2322 320.401 61.3072 320.712 61.3072C321.018 61.3072 321.293 61.2349 321.537 61.0905C321.787 60.9405 321.982 60.7183 322.121 60.4238C322.265 60.1294 322.337 59.7738 322.337 59.3572C322.337 58.7405 322.187 58.2711 321.887 57.9489C321.587 57.6211 321.199 57.4572 320.721 57.4572C320.243 57.4572 319.854 57.6211 319.554 57.9489C319.26 58.2711 319.112 58.7405 319.112 59.3572ZM327.43 62.4322C326.73 62.4322 326.157 62.2488 325.713 61.8822C325.274 61.5155 325.055 60.9488 325.055 60.1822V56.4655H326.28V60.1572C326.28 60.5238 326.377 60.8072 326.571 61.0072C326.771 61.2016 327.057 61.2988 327.43 61.2988C327.796 61.2988 328.077 61.2016 328.271 61.0072C328.471 60.8072 328.571 60.5238 328.571 60.1572V56.4655H329.796V60.1822C329.796 60.9488 329.574 61.5155 329.13 61.8822C328.691 62.2488 328.124 62.4322 327.43 62.4322ZM334.128 56.3322C334.639 56.3322 335.116 56.4433 335.561 56.6655C336.005 56.8822 336.364 57.2183 336.636 57.6739C336.908 58.1239 337.044 58.685 337.044 59.3572C337.044 60.0294 336.908 60.5961 336.636 61.0572C336.364 61.5183 336.005 61.8627 335.561 62.0905C335.116 62.3183 334.639 62.4322 334.128 62.4322C333.616 62.4322 333.139 62.3183 332.694 62.0905C332.25 61.8627 331.891 61.5183 331.619 61.0572C331.347 60.5961 331.211 60.0294 331.211 59.3572C331.211 58.685 331.347 58.1239 331.619 57.6739C331.891 57.2183 332.25 56.8822 332.694 56.6655C333.139 56.4433 333.616 56.3322 334.128 56.3322ZM334.119 57.4572C333.641 57.4572 333.253 57.6211 332.953 57.9489C332.658 58.2711 332.511 58.7405 332.511 59.3572C332.511 59.7738 332.578 60.1294 332.711 60.4238C332.85 60.7127 333.039 60.9322 333.278 61.0822C333.522 61.2322 333.8 61.3072 334.111 61.3072C334.416 61.3072 334.691 61.2349 334.936 61.0905C335.186 60.9405 335.38 60.7183 335.519 60.4238C335.664 60.1294 335.736 59.7738 335.736 59.3572C335.736 58.7405 335.586 58.2711 335.286 57.9489C334.986 57.6211 334.597 57.4572 334.119 57.4572ZM339.493 57.5155H337.727V56.4655H342.485V57.5155H340.718V62.2988H339.493V57.5155ZM347.645 57.5072H344.937V58.8238H347.27V59.8738H344.937V61.2405H347.645V62.2988H343.712V56.4655H347.645V57.5072ZM351.016 56.4655C351.605 56.4655 352.127 56.5766 352.583 56.7989C353.044 57.0155 353.405 57.3405 353.666 57.7739C353.933 58.2072 354.066 58.7322 354.066 59.3488C354.066 59.9711 353.933 60.5044 353.666 60.9488C353.405 61.3877 353.044 61.7238 352.583 61.9572C352.122 62.1849 351.6 62.2988 351.016 62.2988H349.15V56.4655H351.016ZM350.391 57.5739V61.1988H351.025C352.186 61.1988 352.766 60.5822 352.766 59.3488C352.766 58.7266 352.619 58.2766 352.325 57.9989C352.036 57.7155 351.602 57.5739 351.025 57.5739H350.391Z" fill="#444A53"/>
<path d="M462.607 56.4655L460.782 62.2988H459.699L458.491 58.3239L457.282 62.2988H456.191L454.366 56.4655H455.674L456.807 60.6238L458.049 56.4655H458.999L460.224 60.5988L461.357 56.4655H462.607ZM466.267 56.3322C466.778 56.3322 467.256 56.4433 467.7 56.6655C468.145 56.8822 468.503 57.2183 468.775 57.6739C469.047 58.1239 469.184 58.685 469.184 59.3572C469.184 60.0294 469.047 60.5961 468.775 61.0572C468.503 61.5183 468.145 61.8627 467.7 62.0905C467.256 62.3183 466.778 62.4322 466.267 62.4322C465.756 62.4322 465.278 62.3183 464.834 62.0905C464.389 61.8627 464.031 61.5183 463.759 61.0572C463.486 60.5961 463.35 60.0294 463.35 59.3572C463.35 58.685 463.486 58.1239 463.759 57.6739C464.031 57.2183 464.389 56.8822 464.834 56.6655C465.278 56.4433 465.756 56.3322 466.267 56.3322ZM466.259 57.4572C465.781 57.4572 465.392 57.6211 465.092 57.9489C464.797 58.2711 464.65 58.7405 464.65 59.3572C464.65 59.7738 464.717 60.1294 464.85 60.4238C464.989 60.7127 465.178 60.9322 465.417 61.0822C465.661 61.2322 465.939 61.3072 466.25 61.3072C466.556 61.3072 466.831 61.2349 467.075 61.0905C467.325 60.9405 467.52 60.7183 467.659 60.4238C467.803 60.1294 467.875 59.7738 467.875 59.3572C467.875 58.7405 467.725 58.2711 467.425 57.9489C467.125 57.6211 466.736 57.4572 466.259 57.4572ZM475.617 56.4655V62.2988H474.584L471.817 58.5988V62.2988H470.592V56.4655H471.634L474.376 60.1988V56.4655H475.617Z" fill="#444A53"/>
<rect x="24.6504" y="43.1021" width="618.622" height="1.0497" fill="#EBEFF5"/>
<rect x="48.9692" y="73.0185" width="117.916" height="63.3318" rx="5.07354" stroke="#E0E5EC" stroke-width="1.0497"/>
<circle cx="63.8404" cy="122.879" r="4.19879" fill="#FFB800"/>
<rect x="58.2412" y="85.0903" width="92.3735" height="5.59839" rx="2.7992" fill="#EFF7F8"/>
<rect x="58.2412" y="99.0859" width="65.7811" height="5.59839" rx="2.7992" fill="#EFF7F8"/>
<rect x="73.6357" y="120.08" width="36.3895" height="5.59839" rx="2.7992" fill="#EFF7F8"/>
<rect x="48.9692" y="145.797" width="117.916" height="63.3318" rx="5.07354" stroke="#E0E5EC" stroke-width="1.0497"/>
<circle cx="63.8404" cy="195.658" r="4.19879" fill="#FBB188"/>
<rect x="58.2412" y="157.869" width="92.3735" height="5.59839" rx="2.7992" fill="#EFF7F8"/>
<rect x="58.2412" y="171.865" width="65.7811" height="5.59839" rx="2.7992" fill="#EFF7F8"/>
<rect x="73.6357" y="192.859" width="36.3895" height="5.59839" rx="2.7992" fill="#EFF7F8"/>
<rect x="48.9692" y="218.577" width="117.916" height="63.3318" rx="5.07354" stroke="#E0E5EC" stroke-width="1.0497"/>
<circle cx="63.8404" cy="268.438" r="4.19879" fill="#FBB188"/>
<rect x="58.2412" y="230.648" width="92.3735" height="5.59839" rx="2.7992" fill="#EFF7F8"/>
<rect x="58.2412" y="244.644" width="65.7811" height="5.59839" rx="2.7992" fill="#EFF7F8"/>
<rect x="73.6357" y="265.638" width="36.3895" height="5.59839" rx="2.7992" fill="#EFF7F8"/>
<rect x="318.108" y="217.323" width="117.624" height="63.0396" rx="4.92743" fill="#EEDDF8" stroke="#CB9AEA" stroke-width="1.34191"/>
<rect x="182.45" y="218.841" width="117.959" height="63.3751" rx="4.86444" fill="#FAFBFC"/>
<rect x="182.45" y="218.841" width="117.959" height="63.3751" rx="4.86444" stroke="#B7BEC8" stroke-width="1.00644" stroke-dasharray="2.68 2.68"/>
<g filter="url(#filter1_d_99_9487)">
<rect x="248.857" y="250.196" width="118.966" height="64.3815" rx="5.59839" transform="rotate(-8.77481 248.857 250.196)" fill="white"/>
<path d="M261.665 264.144L264.038 263.778C264.883 263.647 265.559 263.741 266.064 264.06C266.574 264.371 266.881 264.856 266.982 265.514C267.05 265.953 267.012 266.369 266.867 266.761C266.722 267.147 266.469 267.477 266.108 267.751C265.747 268.024 265.289 268.204 264.734 268.29L263.785 268.436L264.135 270.702L262.712 270.922L261.665 264.144ZM264.509 267.086C264.87 267.03 265.133 266.89 265.296 266.667C265.467 266.442 265.525 266.159 265.473 265.817C265.421 265.481 265.282 265.248 265.057 265.117C264.838 264.979 264.544 264.939 264.176 264.996L263.276 265.135L263.598 267.226L264.509 267.086ZM270.825 268.737C271.381 268.652 271.843 268.415 272.213 268.028L272.852 268.831C272.353 269.364 271.677 269.696 270.825 269.828C270.328 269.905 269.868 269.877 269.444 269.744C269.026 269.603 268.673 269.351 268.385 268.985C268.098 268.62 267.908 268.144 267.818 267.556C267.735 267.02 267.766 266.533 267.909 266.095C268.052 265.65 268.293 265.285 268.633 265.002C268.972 264.718 269.387 264.538 269.878 264.462C270.382 264.385 270.821 264.429 271.197 264.596C271.573 264.762 271.873 265.014 272.097 265.349C272.327 265.684 272.475 266.064 272.54 266.49C272.583 266.768 272.598 267.013 272.585 267.227L269.235 267.744C269.488 268.531 270.019 268.862 270.825 268.737ZM270.064 265.475C269.38 265.58 269.055 266.047 269.09 266.874L271.279 266.536C271.205 266.144 271.065 265.859 270.859 265.679C270.652 265.493 270.387 265.425 270.064 265.475ZM275.747 269.068C275.288 269.139 274.926 269.083 274.66 268.899C274.394 268.715 274.224 268.388 274.151 267.917L273.733 265.206L272.968 265.324L272.79 264.172L273.555 264.053L273.464 263.463L273.942 262.645L274.717 262.526L274.92 263.843L276.16 263.651L276.338 264.804L275.098 264.995L275.473 267.425C275.517 267.709 275.668 267.831 275.926 267.791C276.146 267.758 276.359 267.682 276.565 267.564L277.043 268.472C276.669 268.794 276.237 268.993 275.747 269.068ZM280.149 267.298C280.704 267.213 281.166 266.976 281.536 266.589L282.175 267.392C281.676 267.925 281.001 268.257 280.148 268.389C279.651 268.466 279.191 268.437 278.767 268.305C278.349 268.164 277.996 267.911 277.709 267.546C277.421 267.181 277.232 266.704 277.141 266.117C277.058 265.581 277.089 265.094 277.233 264.656C277.375 264.211 277.617 263.846 277.956 263.562C278.296 263.279 278.711 263.099 279.201 263.023C279.705 262.946 280.145 262.99 280.52 263.157C280.896 263.323 281.196 263.574 281.42 263.91C281.65 264.245 281.798 264.625 281.864 265.051C281.907 265.329 281.921 265.574 281.908 265.788L278.558 266.305C278.812 267.092 279.342 267.423 280.149 267.298ZM279.387 264.035C278.703 264.141 278.378 264.608 278.414 265.435L280.602 265.097C280.528 264.705 280.388 264.42 280.182 264.24C279.975 264.054 279.71 263.986 279.387 264.035ZM282.539 262.667L283.585 262.505L283.915 263.228L283.944 263.223C284.035 262.872 284.17 262.613 284.349 262.447C284.527 262.274 284.749 262.167 285.014 262.126C285.265 262.087 285.493 262.108 285.697 262.189L285.644 263.446C285.457 263.396 285.287 263.383 285.132 263.406C284.9 263.442 284.706 263.558 284.551 263.754C284.402 263.942 284.297 264.229 284.238 264.615L284.688 267.53L283.323 267.74L282.539 262.667ZM291.159 259.433C291.617 259.362 292.05 259.361 292.457 259.431C292.864 259.5 293.215 259.608 293.508 259.754L293.072 260.912C292.808 260.781 292.519 260.687 292.206 260.629C291.899 260.571 291.614 260.562 291.349 260.603C291.026 260.653 290.785 260.759 290.625 260.923C290.465 261.08 290.402 261.275 290.438 261.507C290.474 261.739 290.609 261.907 290.843 262.01C291.076 262.106 291.424 262.197 291.886 262.285C292.363 262.376 292.748 262.469 293.04 262.563C293.332 262.656 293.598 262.82 293.839 263.054C294.085 263.28 294.24 263.597 294.303 264.003C294.37 264.436 294.314 264.828 294.137 265.179C293.967 265.529 293.695 265.822 293.321 266.058C292.947 266.288 292.502 266.442 291.985 266.522C291.566 266.587 291.128 266.598 290.672 266.556C290.222 266.507 289.817 266.411 289.458 266.268L289.721 265.018C290.057 265.138 290.404 265.223 290.762 265.274C291.125 265.317 291.475 265.312 291.81 265.26C292.178 265.204 292.442 265.09 292.601 264.92C292.766 264.749 292.83 264.548 292.795 264.315C292.759 264.083 292.631 263.918 292.411 263.819C292.191 263.721 291.864 263.636 291.43 263.564C290.942 263.488 290.546 263.404 290.241 263.312C289.935 263.214 289.658 263.048 289.411 262.815C289.169 262.575 289.014 262.239 288.948 261.806C288.886 261.406 288.935 261.042 289.096 260.713C289.262 260.377 289.523 260.098 289.879 259.878C290.235 259.658 290.662 259.51 291.159 259.433ZM296.264 261.183C296.448 260.877 296.656 260.643 296.889 260.481C297.122 260.32 297.403 260.214 297.732 260.163C298.255 260.082 298.695 260.17 299.052 260.425C299.408 260.681 299.634 261.115 299.729 261.728L300.253 265.127L298.898 265.336L298.418 262.228C298.371 261.925 298.263 261.717 298.094 261.604C297.931 261.49 297.73 261.452 297.491 261.489C297.104 261.549 296.759 261.863 296.457 262.432L296.951 265.637L295.596 265.846L294.472 258.565L295.828 258.355L296.264 261.183ZM305.708 263.313C305.831 263.294 305.921 263.277 305.978 263.262L306.018 264.168C305.889 264.313 305.663 264.411 305.34 264.461C304.837 264.538 304.492 264.36 304.306 263.926C303.992 264.464 303.519 264.781 302.887 264.879C302.577 264.927 302.28 264.91 301.997 264.828C301.719 264.745 301.485 264.6 301.295 264.391C301.109 264.175 300.992 263.909 300.943 263.593C300.867 263.096 300.995 262.686 301.329 262.364C301.668 262.034 302.131 261.823 302.718 261.733C302.893 261.706 303.081 261.687 303.284 261.675C303.494 261.663 303.659 261.664 303.78 261.678L303.718 261.271C303.627 260.684 303.252 260.441 302.594 260.543C302.355 260.579 302.129 260.657 301.916 260.776C301.703 260.895 301.513 261.033 301.346 261.191L300.703 260.428C300.933 260.161 301.215 259.939 301.552 259.762C301.894 259.583 302.249 259.466 302.617 259.409C303.334 259.298 303.895 259.38 304.301 259.655C304.712 259.922 304.965 260.358 305.058 260.965L305.371 262.989C305.408 263.234 305.521 263.342 305.708 263.313ZM303.031 263.826C303.257 263.791 303.456 263.707 303.627 263.575C303.804 263.436 303.933 263.264 304.014 263.059L303.928 262.508C303.607 262.478 303.297 262.486 303 262.532C302.736 262.573 302.528 262.661 302.377 262.797C302.225 262.926 302.166 263.1 302.2 263.32C302.232 263.526 302.327 263.67 302.485 263.751C302.643 263.833 302.825 263.858 303.031 263.826ZM306.188 259.016L307.234 258.855L307.563 259.577L307.592 259.573C307.683 259.222 307.819 258.963 307.998 258.796C308.176 258.624 308.397 258.517 308.662 258.476C308.914 258.437 309.142 258.458 309.346 258.539L309.292 259.796C309.106 259.746 308.935 259.732 308.78 259.756C308.548 259.792 308.354 259.908 308.199 260.104C308.05 260.292 307.946 260.579 307.886 260.965L308.336 263.879L306.971 264.09L306.188 259.016ZM315.946 257.351C316.449 257.274 316.877 257.366 317.228 257.629C317.585 257.885 317.804 258.281 317.887 258.816L318.428 262.321L317.043 262.535L316.531 259.214C316.495 258.982 316.41 258.816 316.276 258.718C316.147 258.612 315.98 258.576 315.773 258.607C315.334 258.675 315.028 258.98 314.854 259.523L315.359 262.795L313.964 263.01L313.45 259.68C313.413 259.441 313.328 259.276 313.195 259.184C313.061 259.085 312.897 259.051 312.704 259.081C312.491 259.114 312.304 259.212 312.144 259.376C311.984 259.533 311.86 259.74 311.774 259.998L312.28 263.271L310.895 263.484L310.112 258.411L311.167 258.248L311.41 258.924L311.439 258.919C311.581 258.594 311.764 258.344 311.988 258.171C312.219 257.996 312.496 257.884 312.818 257.834C313.561 257.72 314.11 257.939 314.466 258.492C314.756 257.839 315.249 257.459 315.946 257.351ZM323.891 260.507C324.014 260.488 324.104 260.471 324.161 260.455L324.202 261.361C324.072 261.506 323.846 261.604 323.523 261.654C323.02 261.732 322.675 261.554 322.489 261.12C322.175 261.657 321.702 261.975 321.07 262.072C320.76 262.12 320.463 262.103 320.18 262.021C319.902 261.939 319.669 261.793 319.478 261.584C319.292 261.369 319.175 261.102 319.127 260.786C319.05 260.289 319.178 259.879 319.512 259.557C319.851 259.227 320.314 259.017 320.901 258.926C321.076 258.899 321.264 258.88 321.467 258.868C321.677 258.856 321.842 258.857 321.963 258.871L321.901 258.465C321.81 257.877 321.436 257.634 320.777 257.736C320.538 257.773 320.312 257.851 320.099 257.969C319.886 258.088 319.696 258.227 319.529 258.385L318.886 257.621C319.116 257.355 319.399 257.132 319.735 256.955C320.077 256.777 320.432 256.659 320.8 256.602C321.517 256.492 322.078 256.573 322.484 256.848C322.895 257.115 323.148 257.552 323.241 258.158L323.554 260.182C323.592 260.427 323.704 260.536 323.891 260.507ZM321.214 261.019C321.44 260.984 321.639 260.901 321.81 260.768C321.987 260.629 322.116 260.457 322.197 260.253L322.111 259.701C321.79 259.671 321.48 259.679 321.183 259.725C320.919 259.766 320.711 259.854 320.56 259.99C320.408 260.119 320.349 260.293 320.383 260.513C320.415 260.719 320.51 260.863 320.668 260.945C320.826 261.026 321.008 261.051 321.214 261.019Z" fill="#444A53"/>
<path d="M265.931 277.647C266.57 277.548 267.157 277.58 267.691 277.742C268.23 277.897 268.684 278.203 269.052 278.662C269.426 279.113 269.671 279.716 269.787 280.472C269.903 281.22 269.852 281.876 269.635 282.438C269.424 282.999 269.087 283.448 268.623 283.784C268.159 284.113 267.61 284.327 266.978 284.424L265.002 284.729L263.956 277.952L265.931 277.647ZM264.992 278.624L265.784 283.756L266.772 283.604C268.418 283.35 269.107 282.354 268.839 280.618C268.704 279.747 268.399 279.139 267.923 278.797C267.454 278.453 266.806 278.344 265.979 278.472L264.992 278.624ZM275.018 277.989L275.802 283.062L275.172 283.16L274.872 282.433C274.69 282.752 274.474 283.006 274.226 283.197C273.985 283.386 273.673 283.51 273.292 283.569C272.795 283.645 272.372 283.559 272.023 283.309C271.68 283.058 271.462 282.629 271.368 282.022L270.845 278.633L271.707 278.5L272.199 281.685C272.324 282.499 272.7 282.857 273.326 282.76C273.636 282.713 273.895 282.593 274.104 282.403C274.318 282.204 274.516 281.949 274.699 281.637L274.157 278.122L275.018 277.989ZM280.684 277.114L279.414 282.505L278.562 282.636L275.804 277.868L276.743 277.723L278.877 281.656L279.754 277.258L280.684 277.114ZM286.509 280.775L286.53 281.367C286.432 281.455 286.273 281.516 286.053 281.549C285.827 281.584 285.638 281.557 285.485 281.469C285.338 281.372 285.223 281.205 285.14 280.967C284.774 281.545 284.248 281.887 283.564 281.993C283.093 282.066 282.68 282.004 282.326 281.808C281.977 281.604 281.767 281.269 281.695 280.804C281.616 280.295 281.751 279.884 282.1 279.572C282.448 279.261 282.916 279.06 283.504 278.969C283.71 278.937 283.928 278.917 284.158 278.908C284.395 278.898 284.59 278.897 284.743 278.907L284.64 278.238C284.581 277.858 284.426 277.601 284.174 277.468C283.928 277.327 283.624 277.285 283.262 277.341C282.765 277.418 282.326 277.654 281.944 278.05L281.48 277.547C281.947 277.018 282.548 276.698 283.284 276.584C283.923 276.485 284.431 276.562 284.807 276.815C285.183 277.067 285.417 277.494 285.51 278.094L285.876 280.466C285.918 280.738 286.045 280.857 286.258 280.824L286.509 280.775ZM283.631 281.269C283.921 281.224 284.185 281.114 284.422 280.939C284.659 280.763 284.841 280.547 284.966 280.29L284.85 279.534C284.709 279.523 284.521 279.522 284.284 279.532C284.055 279.542 283.846 279.56 283.659 279.589C283.297 279.645 283.008 279.759 282.79 279.932C282.572 280.104 282.486 280.339 282.532 280.636C282.572 280.9 282.7 281.082 282.913 281.182C283.127 281.281 283.366 281.31 283.631 281.269ZM288.518 281.1L287.646 281.234L286.522 273.953L287.394 273.818L288.518 281.1ZM291.916 273.636L294.008 273.313C294.776 273.194 295.391 273.284 295.854 273.583C296.316 273.882 296.595 274.341 296.691 274.961C296.755 275.374 296.722 275.762 296.593 276.126C296.463 276.483 296.236 276.789 295.912 277.044C295.587 277.292 295.173 277.455 294.669 277.533L293.468 277.718L293.863 280.275L292.962 280.413L291.916 273.636ZM294.48 276.759C294.958 276.685 295.304 276.506 295.518 276.222C295.731 275.938 295.804 275.577 295.737 275.138C295.607 274.299 295.052 273.955 294.071 274.106L292.938 274.281L293.347 276.934L294.48 276.759ZM302.218 276.07C302.248 276.264 302.262 276.46 302.26 276.659L298.58 277.227C298.849 278.328 299.491 278.801 300.504 278.645C300.833 278.594 301.122 278.496 301.371 278.352C301.626 278.207 301.838 278.036 302.005 277.838L302.5 278.346C302.264 278.614 301.985 278.839 301.663 279.021C301.339 279.196 300.952 279.319 300.5 279.389C300.048 279.459 299.623 279.425 299.226 279.288C298.827 279.145 298.487 278.893 298.207 278.533C297.926 278.167 297.741 277.697 297.652 277.122C297.566 276.567 297.592 276.071 297.73 275.633C297.867 275.196 298.1 274.842 298.428 274.574C298.762 274.297 299.165 274.123 299.636 274.05C300.114 273.976 300.538 274.023 300.907 274.191C301.276 274.352 301.569 274.601 301.786 274.938C302.008 275.267 302.153 275.644 302.218 276.07ZM299.774 274.752C299.329 274.821 298.989 275.016 298.754 275.336C298.525 275.649 298.431 276.067 298.472 276.589L301.396 276.138C301.3 275.644 301.114 275.273 300.838 275.024C300.561 274.776 300.207 274.686 299.774 274.752ZM305.363 278.628C304.601 278.746 304.163 278.437 304.05 277.701L303.533 274.351L302.69 274.481L302.575 273.735L303.418 273.605L303.302 272.86L303.642 272.232L304.097 272.162L304.299 273.469L305.538 273.278L305.653 274.023L304.414 274.215L304.907 277.41C304.933 277.578 304.991 277.694 305.08 277.76C305.169 277.825 305.275 277.849 305.398 277.83C305.592 277.8 305.806 277.711 306.041 277.562L306.375 278.185C306.074 278.423 305.737 278.571 305.363 278.628ZM311.348 270.507C311.793 270.439 312.192 270.437 312.546 270.501C312.9 270.565 313.233 270.669 313.546 270.813L313.255 271.561C312.976 271.426 312.681 271.333 312.369 271.282C312.063 271.223 311.764 271.216 311.474 271.261C311.041 271.328 310.714 271.474 310.491 271.7C310.267 271.92 310.18 272.194 310.231 272.524C310.263 272.73 310.359 272.9 310.518 273.034C310.683 273.161 310.873 273.257 311.088 273.323C311.303 273.389 311.606 273.468 311.997 273.56C312.498 273.681 312.892 273.788 313.177 273.883C313.463 273.978 313.721 274.133 313.953 274.348C314.183 274.557 314.326 274.842 314.382 275.204C314.443 275.598 314.396 275.958 314.242 276.286C314.094 276.613 313.849 276.889 313.507 277.113C313.171 277.331 312.754 277.477 312.257 277.554C311.857 277.616 311.435 277.625 310.992 277.581C310.555 277.529 310.159 277.429 309.805 277.278L310.011 276.493C310.334 276.615 310.681 276.7 311.052 276.749C311.428 276.79 311.781 276.785 312.11 276.734C312.62 276.655 312.983 276.497 313.197 276.259C313.411 276.021 313.494 275.741 313.444 275.418C313.411 275.205 313.315 275.035 313.157 274.907C313.004 274.772 312.82 274.672 312.605 274.606C312.39 274.54 312.094 274.467 311.718 274.386C311.24 274.288 310.849 274.19 310.543 274.091C310.242 273.986 309.972 273.823 309.734 273.602C309.5 273.373 309.353 273.066 309.294 272.678C309.24 272.33 309.286 272.005 309.431 271.705C309.582 271.398 309.819 271.14 310.144 270.931C310.475 270.721 310.876 270.58 311.348 270.507ZM319.233 271.164L320.016 276.238L319.387 276.335L319.086 275.608C318.904 275.927 318.689 276.181 318.441 276.372C318.199 276.561 317.888 276.685 317.507 276.744C317.01 276.821 316.587 276.734 316.237 276.484C315.895 276.233 315.676 275.804 315.583 275.197L315.06 271.808L315.921 271.675L316.413 274.861C316.539 275.674 316.914 276.032 317.541 275.936C317.85 275.888 318.11 275.769 318.318 275.578C318.532 275.379 318.73 275.124 318.913 274.812L318.371 271.297L319.233 271.164ZM323.106 270.437C323.493 270.378 323.856 270.417 324.195 270.557C324.54 270.695 324.832 270.941 325.072 271.294C325.318 271.646 325.483 272.099 325.569 272.654C325.655 273.209 325.621 273.717 325.467 274.177C325.319 274.629 325.085 274.999 324.766 275.286C324.446 275.567 324.079 275.739 323.666 275.803C323.389 275.846 323.146 275.857 322.938 275.836C322.73 275.815 322.529 275.76 322.337 275.671L322.676 277.869L321.805 278.004L320.714 270.935L321.324 270.841L321.61 271.54L321.63 271.537C321.805 271.22 322.008 270.97 322.238 270.789C322.468 270.608 322.757 270.491 323.106 270.437ZM323.051 271.239C322.767 271.283 322.527 271.399 322.331 271.588C322.136 271.777 321.969 272.044 321.831 272.389L322.218 274.896C322.406 275.006 322.586 275.078 322.756 275.111C322.932 275.136 323.146 275.13 323.398 275.091C323.669 275.049 323.915 274.932 324.136 274.739C324.357 274.54 324.518 274.28 324.621 273.96C324.729 273.633 324.751 273.263 324.687 272.85C324.594 272.243 324.391 271.808 324.08 271.546C323.775 271.282 323.432 271.18 323.051 271.239ZM328.732 269.569C329.119 269.509 329.482 269.549 329.821 269.688C330.166 269.827 330.458 270.072 330.698 270.425C330.944 270.777 331.11 271.231 331.195 271.786C331.281 272.341 331.247 272.848 331.093 273.308C330.945 273.761 330.711 274.131 330.392 274.418C330.072 274.699 329.705 274.871 329.292 274.935C329.015 274.977 328.772 274.988 328.564 274.968C328.356 274.947 328.155 274.892 327.963 274.803L328.303 277.001L327.431 277.135L326.34 270.067L326.95 269.973L327.236 270.672L327.256 270.669C327.431 270.351 327.634 270.102 327.864 269.921C328.094 269.74 328.383 269.623 328.732 269.569ZM328.677 270.37C328.393 270.414 328.153 270.531 327.957 270.719C327.762 270.908 327.595 271.175 327.457 271.52L327.844 274.028C328.032 274.138 328.212 274.209 328.382 274.242C328.558 274.268 328.772 274.261 329.024 274.223C329.295 274.181 329.541 274.063 329.762 273.871C329.983 273.671 330.144 273.412 330.247 273.092C330.355 272.765 330.377 272.395 330.313 271.981C330.22 271.375 330.017 270.94 329.706 270.677C329.401 270.414 329.058 270.312 328.677 270.37ZM333.696 274.126L332.825 274.26L331.701 266.979L332.572 266.845L333.696 274.126ZM338.906 268.127L337.764 273.825C337.645 274.425 337.452 274.891 337.186 275.223C336.927 275.554 336.568 275.755 336.11 275.825C335.819 275.87 335.535 275.871 335.257 275.828L335.308 275.126C335.389 275.14 335.486 275.148 335.599 275.151C335.718 275.152 335.823 275.146 335.913 275.132C336.126 275.099 336.314 274.987 336.476 274.797C336.646 274.612 336.764 274.369 336.83 274.068L336.886 273.792L333.939 268.894L334.859 268.752L337.175 272.836L337.996 268.268L338.906 268.127Z" fill="#444A53"/>
<path d="M290.628 294.789C290.689 295.186 290.601 295.532 290.363 295.829C290.13 296.124 289.777 296.325 289.302 296.431L289.446 297.131L288.92 297.213L288.845 296.495C288.601 296.509 288.354 296.497 288.103 296.461C287.856 296.423 287.627 296.362 287.416 296.276L287.555 295.71C287.78 295.793 288.018 295.851 288.269 295.883C288.518 295.91 288.765 295.905 289.01 295.868C289.36 295.813 289.615 295.703 289.773 295.537C289.936 295.366 290 295.169 289.965 294.948C289.941 294.791 289.873 294.667 289.759 294.576C289.651 294.485 289.522 294.417 289.374 294.374C289.226 294.331 288.978 294.27 288.631 294.191C288.298 294.115 288.024 294.037 287.809 293.957C287.598 293.876 287.417 293.76 287.266 293.609C287.12 293.457 287.027 293.254 286.988 293C286.932 292.636 287.011 292.319 287.224 292.05C287.441 291.776 287.771 291.588 288.213 291.487L288.085 290.841L288.611 290.76L288.678 291.422C289.145 291.388 289.589 291.468 290.011 291.663L289.803 292.198C289.599 292.102 289.384 292.038 289.157 292.007C288.93 291.971 288.71 291.97 288.498 292.002C288.203 292.048 287.978 292.149 287.823 292.305C287.672 292.46 287.613 292.646 287.647 292.863C287.67 293.015 287.734 293.138 287.838 293.23C287.947 293.322 288.076 293.394 288.225 293.447C288.379 293.494 288.595 293.548 288.874 293.608L289.174 293.675C289.482 293.746 289.733 293.823 289.925 293.906C290.117 293.985 290.273 294.096 290.394 294.238C290.514 294.375 290.592 294.559 290.628 294.789ZM294.328 294.983L294.418 295.564L291.651 295.991L291.562 295.41L292.738 295.228L292.193 291.701L291.158 292.378L290.855 291.929L292.253 290.941L292.73 290.868L293.388 295.128L294.328 294.983ZM296.372 290.213C296.695 290.164 296.989 290.173 297.254 290.24C297.519 290.303 297.733 290.421 297.897 290.594C298.064 290.762 298.167 290.968 298.205 291.212C298.244 291.47 298.208 291.705 298.094 291.916C297.979 292.123 297.813 292.285 297.596 292.404C297.878 292.426 298.124 292.542 298.336 292.75C298.552 292.957 298.683 293.213 298.73 293.517C298.773 293.794 298.735 294.055 298.617 294.3C298.499 294.54 298.308 294.744 298.046 294.912C297.788 295.074 297.479 295.183 297.12 295.239C296.769 295.293 296.449 295.281 296.158 295.203C295.868 295.125 295.63 294.99 295.444 294.796C295.262 294.598 295.15 294.36 295.107 294.084C295.061 293.784 295.11 293.503 295.253 293.24C295.401 292.976 295.606 292.786 295.866 292.671C295.619 292.624 295.409 292.522 295.239 292.364C295.072 292.201 294.969 291.993 294.93 291.739C294.891 291.49 294.924 291.261 295.029 291.051C295.137 290.836 295.305 290.657 295.533 290.513C295.765 290.364 296.045 290.264 296.372 290.213ZM296.458 290.767C296.153 290.814 295.922 290.92 295.764 291.086C295.604 291.248 295.543 291.446 295.579 291.681C295.617 291.926 295.739 292.103 295.944 292.213C296.155 292.322 296.405 292.354 296.696 292.309C296.986 292.264 297.213 292.158 297.376 291.992C297.539 291.825 297.602 291.619 297.564 291.375C297.528 291.14 297.409 290.969 297.209 290.863C297.012 290.752 296.762 290.72 296.458 290.767ZM296.775 292.778C296.549 292.813 296.353 292.886 296.186 292.997C296.019 293.107 295.896 293.244 295.817 293.408C295.743 293.565 295.719 293.737 295.748 293.921C295.793 294.212 295.932 294.426 296.166 294.565C296.399 294.699 296.698 294.737 297.062 294.681C297.422 294.626 297.69 294.502 297.868 294.309C298.05 294.111 298.12 293.874 298.077 293.597C298.032 293.306 297.89 293.085 297.649 292.934C297.408 292.777 297.116 292.726 296.775 292.778ZM300.15 293.865C300.27 293.846 300.376 293.875 300.468 293.95C300.559 294.021 300.617 294.135 300.641 294.292C300.672 294.495 300.644 294.709 300.556 294.935C300.474 295.165 300.323 295.382 300.104 295.585L299.871 295.451C299.979 295.326 300.063 295.195 300.122 295.059C300.186 294.921 300.222 294.791 300.232 294.666C300.124 294.674 300.028 294.646 299.943 294.584C299.857 294.517 299.805 294.428 299.788 294.317C299.769 294.193 299.794 294.092 299.862 294.015C299.934 293.933 300.03 293.883 300.15 293.865ZM302.71 289.235C303.056 289.182 303.384 289.223 303.693 289.36C304.006 289.495 304.275 289.737 304.499 290.085C304.726 290.427 304.882 290.873 304.967 291.422C305.052 291.975 305.039 292.456 304.928 292.865C304.816 293.274 304.63 293.596 304.368 293.83C304.112 294.063 303.806 294.207 303.451 294.262C303.101 294.316 302.768 294.275 302.455 294.139C302.141 293.999 301.867 293.755 301.634 293.409C301.406 293.062 301.249 292.614 301.165 292.065C301.08 291.517 301.094 291.04 301.206 290.636C301.322 290.226 301.511 289.904 301.772 289.67C302.038 289.436 302.351 289.291 302.71 289.235ZM302.79 289.796C302.403 289.856 302.123 290.076 301.95 290.457C301.777 290.833 301.738 291.332 301.834 291.955C301.928 292.563 302.11 293.022 302.379 293.329C302.653 293.632 302.978 293.754 303.356 293.695C303.739 293.636 304.015 293.419 304.183 293.044C304.352 292.668 304.388 292.167 304.291 291.54C304.197 290.927 304.017 290.468 303.753 290.165C303.494 289.86 303.173 289.737 302.79 289.796ZM307.236 288.537C307.581 288.483 307.909 288.525 308.218 288.661C308.531 288.797 308.8 289.039 309.024 289.386C309.251 289.729 309.407 290.175 309.492 290.723C309.577 291.277 309.564 291.758 309.453 292.167C309.341 292.576 309.155 292.897 308.894 293.131C308.637 293.364 308.331 293.508 307.976 293.563C307.626 293.617 307.294 293.576 306.98 293.441C306.666 293.3 306.392 293.057 306.159 292.711C305.931 292.363 305.775 291.915 305.69 291.367C305.605 290.818 305.619 290.342 305.731 289.937C305.847 289.527 306.036 289.206 306.297 288.972C306.563 288.737 306.876 288.592 307.236 288.537ZM307.315 289.098C306.928 289.158 306.648 289.378 306.475 289.759C306.302 290.135 306.264 290.634 306.36 291.256C306.454 291.865 306.635 292.323 306.905 292.631C307.178 292.933 307.504 293.055 307.882 292.997C308.264 292.938 308.54 292.721 308.709 292.345C308.877 291.97 308.913 291.469 308.816 290.842C308.722 290.228 308.542 289.77 308.278 289.466C308.019 289.162 307.698 289.039 307.315 289.098ZM311.761 287.838C312.107 287.785 312.434 287.826 312.743 287.963C313.057 288.098 313.325 288.34 313.549 288.688C313.776 289.03 313.933 289.476 314.017 290.025C314.103 290.578 314.09 291.059 313.978 291.468C313.867 291.877 313.68 292.199 313.419 292.433C313.162 292.666 312.856 292.81 312.501 292.865C312.151 292.919 311.819 292.878 311.505 292.742C311.191 292.602 310.917 292.358 310.684 292.012C310.456 291.665 310.3 291.217 310.215 290.668C310.13 290.12 310.144 289.643 310.256 289.239C310.372 288.829 310.561 288.507 310.822 288.273C311.088 288.039 311.401 287.894 311.761 287.838ZM311.84 288.399C311.453 288.459 311.173 288.679 311.001 289.06C310.827 289.436 310.789 289.935 310.885 290.558C310.979 291.166 311.16 291.625 311.43 291.932C311.703 292.235 312.029 292.357 312.407 292.298C312.789 292.239 313.065 292.022 313.234 291.647C313.402 291.271 313.438 290.77 313.342 290.143C313.247 289.53 313.068 289.071 312.804 288.768C312.544 288.463 312.223 288.34 311.84 288.399Z" fill="#6D7582"/>
<rect x="249.456" y="250.635" width="117.916" height="63.3318" rx="5.07354" transform="rotate(-8.77481 249.456 250.635)" stroke="#E0E5EC" stroke-width="1.0497"/>
<circle cx="271.545" cy="296.26" r="4.19879" transform="rotate(-8.77481 271.545 296.26)" fill="#2AC9A3"/>
<g clip-path="url(#clip1_99_9487)">
<path d="M376.293 299.012C376.4 299.027 376.508 299.016 376.609 298.98C376.71 298.944 376.8 298.883 376.872 298.804L386.543 288.123C386.593 288.068 386.633 288.004 386.662 287.934C386.712 287.811 387.131 286.665 386.268 284.446C385.179 281.647 382.592 278.384 378.58 274.751L376.09 272.497C375.883 272.285 374.257 270.679 372.498 270.684C371.691 270.687 370.99 271.011 370.413 271.648C369.913 272.2 369.645 272.813 369.614 273.472C369.041 272.953 367.712 271.92 366.299 271.924C365.493 271.927 364.791 272.25 364.214 272.887C363.638 273.524 363.376 274.222 363.417 274.982C362.894 274.695 362.312 274.538 361.72 274.524C360.896 274.527 360.172 274.868 359.562 275.541C358.964 276.202 358.7 276.947 358.773 277.758C358.844 278.527 359.223 279.214 359.616 279.735C358.889 279.796 358.247 280.13 357.703 280.73C357.138 281.354 356.887 282.075 356.959 282.872C357.12 284.631 358.888 286.117 359.106 286.295L362.48 289.351C362.279 289.363 362.081 289.398 361.889 289.455C361.348 289.622 360.614 290.062 360.21 291.232C360.09 291.576 360.052 291.945 360.097 292.309C360.143 292.674 360.272 293.024 360.474 293.334C361.464 294.934 364.454 296.377 369.359 297.622C372.921 298.525 376.26 299.006 376.293 299.012Z" fill="black"/>
<path d="M375.154 273.422L377.699 275.727C385.789 283.052 385.557 286.734 385.447 287.341L376.115 297.648C372.296 297.07 363.184 295.205 361.603 292.648C361.505 292.508 361.442 292.347 361.419 292.178C361.396 292.01 361.413 291.839 361.47 291.68C361.653 291.15 361.923 290.837 362.296 290.723C363.122 290.47 364.348 291.145 364.823 291.475L365.71 290.495L359.973 285.309L359.94 285.279C359.511 284.936 358.376 283.817 358.281 282.772C358.243 282.354 358.378 281.979 358.693 281.631C359.048 281.239 359.441 281.051 359.894 281.054C360.572 281.057 361.302 281.485 361.84 281.899L363.185 283.117L364.068 282.142L361.436 279.759L361.405 279.731C361.068 279.459 360.175 278.561 360.094 277.657C360.057 277.223 360.206 276.825 360.554 276.442C360.911 276.047 361.299 275.854 361.74 275.851C362.641 275.846 363.608 276.647 363.904 276.954L366.574 279.372L367.457 278.397L365.895 276.983C365.393 276.461 364.826 275.717 364.752 275.038C364.703 274.588 364.853 274.177 365.211 273.782C365.535 273.424 365.898 273.252 366.327 273.246C367.374 273.241 368.582 274.264 368.959 274.657L371.42 276.886C371.431 276.883 371.876 276.382 371.876 276.382L372.303 275.911C371.915 275.553 371.002 274.646 370.945 273.717C370.918 273.299 371.07 272.915 371.409 272.541C371.734 272.182 372.099 272.006 372.525 272.005C373.569 272.006 374.781 273.03 375.154 273.422Z" fill="white"/>
</g>
</g>
<path d="M196.613 168.154L194.487 165.382L193.958 165.96V168.154H192.479V161.296H193.958V164.216L196.466 161.296H198.279L195.506 164.294L198.475 168.154H196.613ZM203.555 167.194C203.679 167.194 203.771 167.191 203.83 167.184L203.732 168.086C203.581 168.21 203.343 168.272 203.016 168.272C202.507 168.272 202.194 168.043 202.076 167.586C201.684 168.069 201.168 168.311 200.528 168.311C200.214 168.311 199.924 168.249 199.656 168.125C199.395 168.001 199.186 167.821 199.029 167.586C198.879 167.344 198.804 167.064 198.804 166.744C198.804 166.241 198.993 165.855 199.372 165.587C199.757 165.313 200.247 165.176 200.842 165.176C201.018 165.176 201.207 165.186 201.41 165.205C201.619 165.225 201.782 165.251 201.9 165.284V164.872C201.9 164.278 201.567 163.981 200.9 163.981C200.659 163.981 200.424 164.023 200.195 164.108C199.966 164.193 199.757 164.301 199.568 164.431L199.049 163.579C199.316 163.35 199.63 163.174 199.989 163.05C200.355 162.926 200.724 162.864 201.096 162.864C201.821 162.864 202.363 163.03 202.723 163.363C203.088 163.69 203.271 164.16 203.271 164.774V166.822C203.271 167.07 203.366 167.194 203.555 167.194ZM200.832 167.292C201.06 167.292 201.269 167.24 201.459 167.135C201.655 167.024 201.808 166.874 201.919 166.685V166.126C201.606 166.048 201.299 166.009 200.998 166.009C200.73 166.009 200.512 166.064 200.342 166.175C200.172 166.28 200.087 166.443 200.087 166.665C200.087 166.874 200.159 167.031 200.303 167.135C200.446 167.24 200.623 167.292 200.832 167.292ZM206.028 168.154H204.657V163.021H206.028V168.154ZM205.343 160.865C205.571 160.865 205.764 160.931 205.921 161.061C206.084 161.185 206.166 161.368 206.166 161.61C206.166 161.851 206.084 162.034 205.921 162.158C205.764 162.283 205.571 162.345 205.343 162.345C205.121 162.345 204.928 162.283 204.765 162.158C204.608 162.034 204.529 161.851 204.529 161.61C204.529 161.368 204.608 161.185 204.765 161.061C204.928 160.931 205.121 160.865 205.343 160.865ZM209.216 162.864C209.556 162.864 209.882 162.91 210.196 163.001C210.509 163.092 210.777 163.213 210.999 163.363L210.597 164.304C210.414 164.2 210.196 164.115 209.941 164.049C209.693 163.977 209.464 163.942 209.255 163.942C209.026 163.942 208.847 163.984 208.716 164.069C208.592 164.154 208.53 164.268 208.53 164.412C208.53 164.562 208.602 164.676 208.746 164.755C208.896 164.833 209.134 164.918 209.461 165.009C209.807 165.107 210.091 165.205 210.313 165.303C210.542 165.401 210.738 165.555 210.901 165.764C211.064 165.973 211.146 166.247 211.146 166.587C211.146 167.129 210.943 167.553 210.539 167.86C210.14 168.161 209.624 168.311 208.991 168.311C208.618 168.311 208.266 168.259 207.932 168.154C207.599 168.05 207.325 167.919 207.109 167.762L207.443 166.714C207.652 166.851 207.88 166.959 208.128 167.037C208.383 167.109 208.635 167.145 208.883 167.145C209.157 167.145 209.373 167.099 209.529 167.008C209.686 166.91 209.765 166.783 209.765 166.626C209.765 166.476 209.693 166.361 209.549 166.283C209.405 166.205 209.17 166.113 208.844 166.009C208.51 165.904 208.233 165.803 208.011 165.705C207.789 165.6 207.599 165.447 207.443 165.245C207.286 165.042 207.207 164.778 207.207 164.451C207.207 163.961 207.387 163.576 207.746 163.295C208.112 163.008 208.602 162.864 209.216 162.864ZM213.5 163.648C213.729 163.373 213.97 163.174 214.225 163.05C214.48 162.926 214.774 162.864 215.107 162.864C215.636 162.864 216.057 163.017 216.371 163.324C216.684 163.631 216.841 164.095 216.841 164.715V168.154H215.469V165.009C215.469 164.702 215.394 164.48 215.244 164.343C215.1 164.206 214.908 164.137 214.666 164.137C214.274 164.137 213.885 164.395 213.5 164.911V168.154H212.128V160.787H213.5V163.648ZM222.509 167.194C222.633 167.194 222.724 167.191 222.783 167.184L222.685 168.086C222.535 168.21 222.296 168.272 221.97 168.272C221.46 168.272 221.147 168.043 221.029 167.586C220.637 168.069 220.121 168.311 219.481 168.311C219.168 168.311 218.877 168.249 218.609 168.125C218.348 168.001 218.139 167.821 217.982 167.586C217.832 167.344 217.757 167.064 217.757 166.744C217.757 166.241 217.946 165.855 218.325 165.587C218.711 165.313 219.2 165.176 219.795 165.176C219.971 165.176 220.161 165.186 220.363 165.205C220.572 165.225 220.735 165.251 220.853 165.284V164.872C220.853 164.278 220.52 163.981 219.854 163.981C219.612 163.981 219.377 164.023 219.148 164.108C218.92 164.193 218.711 164.301 218.521 164.431L218.002 163.579C218.27 163.35 218.583 163.174 218.943 163.05C219.308 162.926 219.677 162.864 220.05 162.864C220.775 162.864 221.317 163.03 221.676 163.363C222.042 163.69 222.225 164.16 222.225 164.774V166.822C222.225 167.07 222.319 167.194 222.509 167.194ZM219.785 167.292C220.014 167.292 220.223 167.24 220.412 167.135C220.608 167.024 220.762 166.874 220.873 166.685V166.126C220.559 166.048 220.252 166.009 219.952 166.009C219.684 166.009 219.465 166.064 219.295 166.175C219.125 166.28 219.04 166.443 219.04 166.665C219.04 166.874 219.112 167.031 219.256 167.135C219.4 167.24 219.576 167.292 219.785 167.292ZM227.014 168.311C226.537 168.311 226.129 168.259 225.789 168.154L225.907 166.959C226.155 167.005 226.433 167.028 226.74 167.028C227.151 167.028 227.465 166.923 227.68 166.714C227.902 166.505 228.013 166.188 228.013 165.764V161.296H229.473V165.725C229.473 166.672 229.251 167.341 228.807 167.733C228.369 168.118 227.771 168.311 227.014 168.311ZM233.213 162.864C233.684 162.864 234.118 162.965 234.517 163.168C234.915 163.363 235.235 163.667 235.477 164.079C235.725 164.484 235.849 164.987 235.849 165.587C235.849 166.188 235.725 166.695 235.477 167.106C235.235 167.511 234.915 167.815 234.517 168.017C234.118 168.213 233.684 168.311 233.213 168.311C232.743 168.311 232.309 168.213 231.91 168.017C231.512 167.815 231.189 167.511 230.941 167.106C230.699 166.695 230.578 166.188 230.578 165.587C230.578 164.987 230.699 164.484 230.941 164.079C231.189 163.667 231.512 163.363 231.91 163.168C232.309 162.965 232.743 162.864 233.213 162.864ZM233.213 164.079C232.822 164.079 232.515 164.209 232.293 164.471C232.077 164.732 231.969 165.104 231.969 165.587C231.969 166.071 232.077 166.443 232.293 166.704C232.515 166.966 232.822 167.096 233.213 167.096C233.605 167.096 233.909 166.966 234.125 166.704C234.347 166.437 234.458 166.064 234.458 165.587C234.458 165.111 234.347 164.742 234.125 164.48C233.909 164.213 233.605 164.079 233.213 164.079ZM238.232 163.648C238.461 163.373 238.702 163.174 238.957 163.05C239.212 162.926 239.506 162.864 239.839 162.864C240.368 162.864 240.789 163.017 241.103 163.324C241.416 163.631 241.573 164.095 241.573 164.715V168.154H240.201V165.009C240.201 164.702 240.126 164.48 239.976 164.343C239.832 164.206 239.64 164.137 239.398 164.137C239.006 164.137 238.618 164.395 238.232 164.911V168.154H236.861V160.787H238.232V163.648ZM242.773 163.021H243.704L243.92 163.775H243.969C244.21 163.468 244.468 163.239 244.743 163.089C245.017 162.939 245.34 162.864 245.712 162.864C246.268 162.864 246.702 163.017 247.015 163.324C247.329 163.631 247.486 164.066 247.486 164.627V168.154H246.114V165.068C246.114 164.742 246.052 164.513 245.928 164.382C245.804 164.245 245.628 164.177 245.399 164.177C244.922 164.177 244.504 164.435 244.145 164.951V168.154H242.773V163.021ZM250.557 162.864C250.897 162.864 251.224 162.91 251.537 163.001C251.851 163.092 252.118 163.213 252.34 163.363L251.939 164.304C251.756 164.2 251.537 164.115 251.282 164.049C251.034 163.977 250.806 163.942 250.597 163.942C250.368 163.942 250.188 163.984 250.058 164.069C249.934 164.154 249.872 164.268 249.872 164.412C249.872 164.562 249.943 164.676 250.087 164.755C250.237 164.833 250.476 164.918 250.802 165.009C251.148 165.107 251.433 165.205 251.655 165.303C251.883 165.401 252.079 165.555 252.242 165.764C252.406 165.973 252.487 166.247 252.487 166.587C252.487 167.129 252.285 167.553 251.88 167.86C251.482 168.161 250.966 168.311 250.332 168.311C249.96 168.311 249.607 168.259 249.274 168.154C248.941 168.05 248.666 167.919 248.451 167.762L248.784 166.714C248.993 166.851 249.222 166.959 249.47 167.037C249.725 167.109 249.976 167.145 250.224 167.145C250.499 167.145 250.714 167.099 250.871 167.008C251.028 166.91 251.106 166.783 251.106 166.626C251.106 166.476 251.034 166.361 250.89 166.283C250.747 166.205 250.512 166.113 250.185 166.009C249.852 165.904 249.574 165.803 249.352 165.705C249.13 165.6 248.941 165.447 248.784 165.245C248.627 165.042 248.549 164.778 248.549 164.451C248.549 163.961 248.729 163.576 249.088 163.295C249.454 163.008 249.943 162.864 250.557 162.864ZM255.214 168.311C254.75 168.311 254.401 168.2 254.165 167.978C253.93 167.756 253.813 167.406 253.813 166.93V164.186H253.039V163.021H253.813V162.423L254.41 161.688H255.194V163.021H256.448V164.186H255.194V166.646C255.194 166.933 255.325 167.077 255.586 167.077C255.808 167.077 256.03 167.034 256.252 166.949L256.585 167.919C256.167 168.18 255.71 168.311 255.214 168.311ZM259.677 162.864C260.148 162.864 260.582 162.965 260.98 163.168C261.379 163.363 261.699 163.667 261.941 164.079C262.189 164.484 262.313 164.987 262.313 165.587C262.313 166.188 262.189 166.695 261.941 167.106C261.699 167.511 261.379 167.815 260.98 168.017C260.582 168.213 260.148 168.311 259.677 168.311C259.207 168.311 258.773 168.213 258.374 168.017C257.976 167.815 257.653 167.511 257.404 167.106C257.163 166.695 257.042 166.188 257.042 165.587C257.042 164.987 257.163 164.484 257.404 164.079C257.653 163.667 257.976 163.363 258.374 163.168C258.773 162.965 259.207 162.864 259.677 162.864ZM259.677 164.079C259.285 164.079 258.978 164.209 258.756 164.471C258.541 164.732 258.433 165.104 258.433 165.587C258.433 166.071 258.541 166.443 258.756 166.704C258.978 166.966 259.285 167.096 259.677 167.096C260.069 167.096 260.373 166.966 260.588 166.704C260.811 166.437 260.922 166.064 260.922 165.587C260.922 165.111 260.811 164.742 260.588 164.48C260.373 164.213 260.069 164.079 259.677 164.079ZM263.324 163.021H264.255L264.471 163.775H264.52C264.761 163.468 265.019 163.239 265.294 163.089C265.568 162.939 265.891 162.864 266.264 162.864C266.819 162.864 267.253 163.017 267.567 163.324C267.88 163.631 268.037 164.066 268.037 164.627V168.154H266.665V165.068C266.665 164.742 266.603 164.513 266.479 164.382C266.355 164.245 266.179 164.177 265.95 164.177C265.473 164.177 265.055 164.435 264.696 164.951V168.154H263.324V163.021Z" fill="#444A53"/>
<path d="M196.045 178.525C196.463 178.617 196.806 178.813 197.074 179.113C197.348 179.407 197.485 179.786 197.485 180.25C197.485 180.877 197.266 181.35 196.829 181.67C196.391 181.99 195.807 182.15 195.075 182.15H192.636V175.292H194.82C195.552 175.292 196.107 175.439 196.486 175.733C196.865 176.021 197.054 176.429 197.054 176.958C197.054 177.298 196.963 177.608 196.78 177.889C196.597 178.163 196.352 178.375 196.045 178.525ZM193.557 178.31H194.713C195.15 178.31 195.496 178.205 195.751 177.996C196.006 177.787 196.133 177.5 196.133 177.134C196.133 176.422 195.65 176.066 194.683 176.066H193.557V178.31ZM194.977 181.376C195.5 181.376 195.888 181.275 196.143 181.073C196.398 180.864 196.525 180.58 196.525 180.22C196.525 179.43 196.022 179.035 195.016 179.035H193.557V181.376H194.977ZM199.61 182.15H198.728V174.783H199.61V182.15ZM205.596 181.523L205.527 182.111C205.416 182.183 205.249 182.219 205.027 182.219C204.799 182.219 204.616 182.163 204.479 182.052C204.348 181.935 204.26 181.752 204.214 181.504C203.763 182.02 203.192 182.278 202.5 182.278C202.023 182.278 201.624 182.154 201.304 181.905C200.991 181.651 200.834 181.288 200.834 180.818C200.834 180.302 201.03 179.917 201.422 179.662C201.814 179.407 202.307 179.28 202.901 179.28C203.11 179.28 203.329 179.293 203.558 179.319C203.793 179.345 203.986 179.375 204.136 179.407V178.731C204.136 178.346 204.021 178.068 203.793 177.898C203.571 177.722 203.277 177.634 202.911 177.634C202.408 177.634 201.938 177.8 201.5 178.134L201.118 177.565C201.66 177.115 202.304 176.889 203.048 176.889C203.695 176.889 204.185 177.043 204.518 177.35C204.851 177.657 205.017 178.114 205.017 178.721V181.122C205.017 181.396 205.125 181.533 205.341 181.533L205.596 181.523ZM202.676 181.572C202.97 181.572 203.247 181.504 203.509 181.367C203.77 181.229 203.982 181.043 204.146 180.808V180.044C204.008 180.011 203.822 179.982 203.587 179.956C203.358 179.93 203.149 179.917 202.96 179.917C202.594 179.917 202.291 179.985 202.049 180.122C201.807 180.26 201.686 180.478 201.686 180.779C201.686 181.047 201.784 181.246 201.98 181.376C202.176 181.507 202.408 181.572 202.676 181.572ZM208.71 176.889C209.075 176.889 209.412 176.945 209.719 177.056C210.032 177.16 210.303 177.311 210.532 177.507L210.12 178.134C209.911 177.97 209.706 177.849 209.503 177.771C209.301 177.693 209.056 177.653 208.768 177.653C208.278 177.653 207.877 177.82 207.563 178.153C207.256 178.486 207.103 178.953 207.103 179.554C207.103 179.959 207.175 180.309 207.318 180.602C207.469 180.896 207.671 181.122 207.926 181.278C208.181 181.429 208.468 181.504 208.788 181.504C209.304 181.504 209.781 181.327 210.218 180.975L210.64 181.563C210.431 181.772 210.163 181.945 209.836 182.082C209.51 182.212 209.144 182.278 208.739 182.278C208.256 182.278 207.821 182.173 207.436 181.964C207.057 181.749 206.757 181.435 206.535 181.024C206.313 180.612 206.201 180.122 206.201 179.554C206.201 178.999 206.313 178.522 206.535 178.124C206.763 177.719 207.067 177.412 207.446 177.203C207.831 176.994 208.252 176.889 208.71 176.889ZM215.022 182.15L213.249 179.809L212.602 180.514V182.15H211.721V174.783H212.602V179.476L214.738 177.017H215.787L213.827 179.172L216.11 182.15H215.022ZM218.6 176.889C218.92 176.889 219.227 176.932 219.521 177.017C219.815 177.102 220.06 177.213 220.256 177.35L219.952 178.006C219.763 177.889 219.547 177.794 219.305 177.722C219.07 177.65 218.835 177.614 218.6 177.614C218.306 177.614 218.068 177.68 217.885 177.81C217.702 177.941 217.611 178.111 217.611 178.32C217.611 178.463 217.66 178.587 217.758 178.692C217.855 178.79 217.976 178.872 218.12 178.937C218.264 178.996 218.469 179.068 218.737 179.152C219.083 179.257 219.368 179.361 219.59 179.466C219.818 179.57 220.011 179.724 220.168 179.926C220.324 180.122 220.403 180.377 220.403 180.691C220.403 181.174 220.22 181.559 219.854 181.847C219.495 182.134 219.012 182.278 218.404 182.278C218.051 182.278 217.715 182.229 217.395 182.131C217.081 182.033 216.817 181.896 216.601 181.719L216.886 181.014C217.081 181.177 217.307 181.301 217.562 181.386C217.816 181.471 218.081 181.514 218.355 181.514C218.714 181.514 218.995 181.442 219.198 181.298C219.407 181.148 219.511 180.955 219.511 180.72C219.511 180.563 219.459 180.433 219.354 180.328C219.256 180.224 219.132 180.139 218.982 180.073C218.838 180.008 218.629 179.93 218.355 179.838C218.015 179.727 217.738 179.623 217.522 179.525C217.313 179.42 217.134 179.277 216.984 179.094C216.833 178.904 216.758 178.659 216.758 178.359C216.758 177.908 216.928 177.552 217.268 177.291C217.614 177.023 218.058 176.889 218.6 176.889ZM227.149 176.889C227.658 176.889 228.057 177.043 228.344 177.35C228.638 177.65 228.785 178.085 228.785 178.653V182.15H227.894V178.721C227.894 178.023 227.596 177.673 227.002 177.673C226.728 177.673 226.479 177.751 226.257 177.908C226.035 178.058 225.833 178.29 225.65 178.604V182.15H224.749V178.692C224.749 178.333 224.664 178.075 224.494 177.918C224.324 177.755 224.109 177.673 223.847 177.673C223.566 177.673 223.308 177.758 223.073 177.928C222.845 178.098 222.655 178.323 222.505 178.604V182.15H221.614V177.017H222.299L222.417 177.751H222.446C222.655 177.451 222.877 177.232 223.113 177.095C223.354 176.958 223.648 176.889 223.994 176.889C224.367 176.889 224.674 176.964 224.915 177.115C225.157 177.258 225.346 177.487 225.483 177.8C225.705 177.48 225.954 177.249 226.228 177.105C226.502 176.961 226.809 176.889 227.149 176.889ZM231.173 182.15H230.292V177.017H231.173V182.15ZM230.732 175.116C230.896 175.116 231.033 175.165 231.144 175.263C231.261 175.354 231.32 175.492 231.32 175.674C231.32 175.857 231.261 175.998 231.144 176.096C231.033 176.194 230.896 176.243 230.732 176.243C230.569 176.243 230.432 176.194 230.321 176.096C230.21 175.998 230.154 175.857 230.154 175.674C230.154 175.492 230.21 175.354 230.321 175.263C230.432 175.165 230.569 175.116 230.732 175.116ZM234.229 182.278C233.459 182.278 233.073 181.905 233.073 181.161V177.771H232.221V177.017H233.073V176.262L233.504 175.694H233.965V177.017H235.219V177.771H233.965V181.004C233.965 181.174 234.004 181.298 234.082 181.376C234.161 181.455 234.262 181.494 234.386 181.494C234.582 181.494 234.807 181.438 235.062 181.327L235.297 181.994C234.964 182.183 234.608 182.278 234.229 182.278ZM237.287 177.722C237.535 177.428 237.789 177.216 238.051 177.085C238.318 176.955 238.622 176.889 238.962 176.889C239.465 176.889 239.879 177.04 240.206 177.34C240.533 177.634 240.696 178.062 240.696 178.623V182.15H239.814V178.829C239.814 178.424 239.71 178.134 239.501 177.957C239.292 177.781 239.024 177.693 238.697 177.693C238.168 177.693 237.701 178.006 237.296 178.633V182.15H236.415V174.783H237.287V177.722ZM249.425 181.523L249.356 182.111C249.245 182.183 249.078 182.219 248.856 182.219C248.628 182.219 248.445 182.163 248.308 182.052C248.177 181.935 248.089 181.752 248.043 181.504C247.592 182.02 247.021 182.278 246.329 182.278C245.852 182.278 245.453 182.154 245.133 181.905C244.82 181.651 244.663 181.288 244.663 180.818C244.663 180.302 244.859 179.917 245.251 179.662C245.643 179.407 246.136 179.28 246.73 179.28C246.939 179.28 247.158 179.293 247.387 179.319C247.622 179.345 247.815 179.375 247.965 179.407V178.731C247.965 178.346 247.85 178.068 247.622 177.898C247.4 177.722 247.106 177.634 246.74 177.634C246.237 177.634 245.767 177.8 245.329 178.134L244.947 177.565C245.489 177.115 246.133 176.889 246.877 176.889C247.524 176.889 248.014 177.043 248.347 177.35C248.68 177.657 248.846 178.114 248.846 178.721V181.122C248.846 181.396 248.954 181.533 249.17 181.533L249.425 181.523ZM246.505 181.572C246.799 181.572 247.076 181.504 247.338 181.367C247.599 181.229 247.811 181.043 247.975 180.808V180.044C247.837 180.011 247.651 179.982 247.416 179.956C247.188 179.93 246.978 179.917 246.789 179.917C246.423 179.917 246.12 179.985 245.878 180.122C245.636 180.26 245.515 180.478 245.515 180.779C245.515 181.047 245.613 181.246 245.809 181.376C246.005 181.507 246.237 181.572 246.505 181.572ZM250.479 177.017H251.086L251.223 177.8H251.253C251.501 177.5 251.762 177.275 252.037 177.124C252.317 176.968 252.654 176.889 253.046 176.889C253.588 176.889 254.009 177.036 254.31 177.33C254.61 177.618 254.76 178.039 254.76 178.594V182.15H253.878V178.849C253.878 178.431 253.794 178.137 253.624 177.967C253.46 177.791 253.222 177.702 252.909 177.702C252.282 177.702 251.759 178.019 251.341 178.653V182.15H250.479V177.017ZM258.188 182.278C257.796 182.278 257.427 182.186 257.081 182.003C256.734 181.814 256.45 181.52 256.228 181.122C256.013 180.717 255.905 180.204 255.905 179.584C255.905 179.002 256.009 178.509 256.218 178.104C256.427 177.699 256.702 177.395 257.041 177.193C257.381 176.991 257.747 176.889 258.139 176.889C258.772 176.889 259.275 177.069 259.648 177.428V174.783H260.529V182.15H259.902L259.765 181.553H259.736C259.553 181.762 259.324 181.935 259.05 182.072C258.776 182.209 258.488 182.278 258.188 182.278ZM258.305 181.484C258.58 181.484 258.831 181.419 259.06 181.288C259.288 181.158 259.484 180.981 259.648 180.759V178.29C259.275 177.885 258.828 177.683 258.305 177.683C258.038 177.683 257.789 177.751 257.561 177.889C257.339 178.019 257.159 178.228 257.022 178.516C256.885 178.803 256.816 179.159 256.816 179.584C256.816 180.002 256.888 180.354 257.032 180.642C257.175 180.922 257.358 181.135 257.58 181.278C257.809 181.416 258.051 181.484 258.305 181.484ZM267.091 175.165C267.542 175.165 267.937 175.224 268.277 175.341C268.616 175.459 268.93 175.612 269.217 175.802L268.815 176.497C268.561 176.321 268.283 176.184 267.983 176.086C267.689 175.981 267.395 175.929 267.101 175.929C266.663 175.929 266.317 176.024 266.062 176.213C265.808 176.396 265.68 176.654 265.68 176.987C265.68 177.196 265.749 177.379 265.886 177.536C266.03 177.686 266.203 177.81 266.405 177.908C266.608 178.006 266.895 178.13 267.267 178.281C267.744 178.476 268.117 178.643 268.384 178.78C268.652 178.917 268.884 179.11 269.08 179.358C269.276 179.6 269.374 179.904 269.374 180.269C269.374 180.668 269.273 181.017 269.07 181.318C268.874 181.618 268.59 181.853 268.218 182.023C267.852 182.186 267.418 182.268 266.915 182.268C266.51 182.268 266.092 182.212 265.661 182.101C265.236 181.984 264.861 181.824 264.534 181.621L264.857 180.877C265.158 181.047 265.488 181.184 265.847 181.288C266.213 181.386 266.562 181.435 266.895 181.435C267.411 181.435 267.793 181.334 268.041 181.131C268.29 180.929 268.414 180.664 268.414 180.338C268.414 180.122 268.345 179.939 268.208 179.789C268.077 179.633 267.911 179.505 267.708 179.407C267.506 179.309 267.225 179.192 266.866 179.054C266.409 178.885 266.036 178.728 265.749 178.584C265.468 178.434 265.226 178.232 265.024 177.977C264.828 177.716 264.73 177.389 264.73 176.997C264.73 176.644 264.825 176.331 265.014 176.057C265.21 175.776 265.484 175.557 265.837 175.4C266.196 175.243 266.614 175.165 267.091 175.165ZM272.698 176.889C273.148 176.889 273.563 176.987 273.942 177.183C274.327 177.379 274.634 177.68 274.863 178.085C275.098 178.483 275.216 178.983 275.216 179.584C275.216 180.184 275.098 180.687 274.863 181.092C274.634 181.491 274.327 181.788 273.942 181.984C273.563 182.18 273.148 182.278 272.698 182.278C272.247 182.278 271.829 182.18 271.444 181.984C271.065 181.788 270.758 181.491 270.523 181.092C270.294 180.687 270.18 180.184 270.18 179.584C270.18 178.983 270.294 178.483 270.523 178.085C270.758 177.68 271.065 177.379 271.444 177.183C271.829 176.987 272.247 176.889 272.698 176.889ZM272.698 177.673C272.201 177.673 271.809 177.843 271.522 178.183C271.235 178.516 271.091 178.983 271.091 179.584C271.091 180.184 271.235 180.655 271.522 180.994C271.809 181.327 272.201 181.494 272.698 181.494C273.194 181.494 273.586 181.324 273.873 180.985C274.167 180.645 274.314 180.178 274.314 179.584C274.314 178.989 274.167 178.522 273.873 178.183C273.586 177.843 273.194 177.673 272.698 177.673ZM276.445 177.017H277.053L277.19 177.8H277.219C277.467 177.5 277.729 177.275 278.003 177.124C278.284 176.968 278.62 176.889 279.012 176.889C279.554 176.889 279.975 177.036 280.276 177.33C280.576 177.618 280.727 178.039 280.727 178.594V182.15H279.845V178.849C279.845 178.431 279.76 178.137 279.59 177.967C279.427 177.791 279.188 177.702 278.875 177.702C278.248 177.702 277.725 178.019 277.307 178.653V182.15H276.445V177.017ZM283.87 176.889C284.19 176.889 284.497 176.932 284.791 177.017C285.085 177.102 285.33 177.213 285.526 177.35L285.222 178.006C285.033 177.889 284.817 177.794 284.575 177.722C284.34 177.65 284.105 177.614 283.87 177.614C283.576 177.614 283.338 177.68 283.155 177.81C282.972 177.941 282.88 178.111 282.88 178.32C282.88 178.463 282.929 178.587 283.027 178.692C283.125 178.79 283.246 178.872 283.39 178.937C283.534 178.996 283.739 179.068 284.007 179.152C284.353 179.257 284.637 179.361 284.859 179.466C285.088 179.57 285.281 179.724 285.438 179.926C285.594 180.122 285.673 180.377 285.673 180.691C285.673 181.174 285.49 181.559 285.124 181.847C284.765 182.134 284.281 182.278 283.674 182.278C283.321 182.278 282.985 182.229 282.665 182.131C282.351 182.033 282.087 181.896 281.871 181.719L282.155 181.014C282.351 181.177 282.577 181.301 282.831 181.386C283.086 181.471 283.351 181.514 283.625 181.514C283.984 181.514 284.265 181.442 284.468 181.298C284.677 181.148 284.781 180.955 284.781 180.72C284.781 180.563 284.729 180.433 284.624 180.328C284.526 180.224 284.402 180.139 284.252 180.073C284.108 180.008 283.899 179.93 283.625 179.838C283.285 179.727 283.008 179.623 282.792 179.525C282.583 179.42 282.404 179.277 282.253 179.094C282.103 178.904 282.028 178.659 282.028 178.359C282.028 177.908 282.198 177.552 282.538 177.291C282.884 177.023 283.328 176.889 283.87 176.889Z" fill="#444A53"/>
<path d="M214.079 196.002C214.079 196.403 213.939 196.732 213.659 196.988C213.383 197.245 213.003 197.39 212.518 197.422L212.553 198.136H212.021L212.056 197.415C211.814 197.392 211.571 197.343 211.328 197.268C211.09 197.194 210.873 197.098 210.678 196.981L210.901 196.442C211.111 196.559 211.338 196.652 211.58 196.722C211.823 196.788 212.068 196.82 212.315 196.82C212.67 196.82 212.938 196.75 213.12 196.61C213.306 196.466 213.4 196.282 213.4 196.058C213.4 195.899 213.351 195.766 213.253 195.659C213.159 195.551 213.043 195.465 212.903 195.4C212.763 195.334 212.527 195.236 212.196 195.106C211.879 194.98 211.62 194.861 211.419 194.749C211.223 194.637 211.062 194.495 210.936 194.322C210.815 194.149 210.755 193.935 210.755 193.678C210.755 193.31 210.88 193.009 211.132 192.776C211.389 192.538 211.744 192.402 212.196 192.37L212.168 191.712H212.7L212.665 192.377C213.132 192.414 213.558 192.561 213.946 192.818L213.659 193.314C213.472 193.188 213.269 193.093 213.05 193.027C212.831 192.957 212.614 192.922 212.399 192.922C212.1 192.922 211.863 192.988 211.685 193.118C211.513 193.249 211.426 193.424 211.426 193.643C211.426 193.797 211.471 193.928 211.559 194.035C211.653 194.142 211.769 194.233 211.909 194.308C212.054 194.378 212.259 194.464 212.525 194.567L212.812 194.679C213.106 194.796 213.341 194.91 213.519 195.022C213.696 195.129 213.834 195.262 213.932 195.421C214.03 195.575 214.079 195.768 214.079 196.002ZM218.336 196.75V197.345H214.837V196.764L216.23 195.547C216.286 195.495 216.37 195.423 216.482 195.33C216.733 195.111 216.925 194.936 217.055 194.805C217.186 194.674 217.293 194.53 217.377 194.371C217.461 194.212 217.503 194.037 217.503 193.846C217.503 193.552 217.403 193.328 217.202 193.174C217.002 193.02 216.736 192.943 216.405 192.943C216.176 192.943 215.952 192.983 215.733 193.062C215.513 193.142 215.325 193.24 215.166 193.356L214.893 192.887C215.103 192.734 215.348 192.608 215.628 192.51C215.912 192.412 216.204 192.363 216.503 192.363C216.848 192.363 217.146 192.421 217.398 192.538C217.655 192.65 217.851 192.811 217.986 193.02C218.121 193.226 218.189 193.464 218.189 193.734C218.189 193.986 218.135 194.219 218.028 194.434C217.925 194.649 217.783 194.852 217.601 195.043C217.419 195.229 217.172 195.458 216.859 195.729L215.663 196.75H218.336ZM221.113 192.356C221.463 192.356 221.78 192.447 222.065 192.629C222.354 192.811 222.582 193.09 222.75 193.468C222.923 193.842 223.009 194.306 223.009 194.861C223.009 195.421 222.923 195.894 222.75 196.282C222.578 196.669 222.345 196.958 222.051 197.149C221.761 197.341 221.437 197.436 221.078 197.436C220.723 197.436 220.401 197.345 220.112 197.163C219.823 196.977 219.59 196.694 219.412 196.317C219.24 195.939 219.153 195.472 219.153 194.917C219.153 194.362 219.24 193.893 219.412 193.51C219.59 193.123 219.825 192.834 220.119 192.643C220.418 192.451 220.749 192.356 221.113 192.356ZM221.106 192.922C220.714 192.922 220.404 193.097 220.175 193.447C219.947 193.793 219.832 194.28 219.832 194.91C219.832 195.526 219.942 196.006 220.161 196.352C220.385 196.692 220.688 196.862 221.071 196.862C221.458 196.862 221.764 196.69 221.988 196.345C222.212 195.999 222.324 195.509 222.324 194.875C222.324 194.254 222.216 193.774 222.002 193.433C221.792 193.093 221.493 192.922 221.106 192.922ZM225.692 192.356C226.042 192.356 226.359 192.447 226.643 192.629C226.933 192.811 227.161 193.09 227.329 193.468C227.502 193.842 227.588 194.306 227.588 194.861C227.588 195.421 227.502 195.894 227.329 196.282C227.157 196.669 226.923 196.958 226.629 197.149C226.34 197.341 226.016 197.436 225.657 197.436C225.302 197.436 224.98 197.345 224.691 197.163C224.402 196.977 224.168 196.694 223.991 196.317C223.819 195.939 223.732 195.472 223.732 194.917C223.732 194.362 223.819 193.893 223.991 193.51C224.168 193.123 224.404 192.834 224.698 192.643C224.997 192.451 225.328 192.356 225.692 192.356ZM225.685 192.922C225.293 192.922 224.983 193.097 224.754 193.447C224.525 193.793 224.411 194.28 224.411 194.91C224.411 195.526 224.521 196.006 224.74 196.352C224.964 196.692 225.267 196.862 225.65 196.862C226.037 196.862 226.342 196.69 226.566 196.345C226.79 195.999 226.902 195.509 226.902 194.875C226.902 194.254 226.795 193.774 226.58 193.433C226.37 193.093 226.072 192.922 225.685 192.922ZM228.934 196.54C229.055 196.54 229.155 196.585 229.235 196.673C229.314 196.757 229.354 196.879 229.354 197.037C229.354 197.243 229.293 197.45 229.172 197.66C229.055 197.875 228.873 198.066 228.626 198.234L228.416 198.066C228.542 197.959 228.645 197.842 228.724 197.716C228.808 197.59 228.864 197.467 228.892 197.345C228.785 197.336 228.694 197.294 228.619 197.219C228.544 197.14 228.507 197.044 228.507 196.932C228.507 196.806 228.547 196.711 228.626 196.645C228.71 196.575 228.813 196.54 228.934 196.54ZM232.17 192.356C232.52 192.356 232.837 192.447 233.122 192.629C233.411 192.811 233.64 193.09 233.808 193.468C233.98 193.842 234.067 194.306 234.067 194.861C234.067 195.421 233.98 195.894 233.808 196.282C233.635 196.669 233.402 196.958 233.108 197.149C232.819 197.341 232.495 197.436 232.135 197.436C231.781 197.436 231.459 197.345 231.17 197.163C230.88 196.977 230.647 196.694 230.47 196.317C230.297 195.939 230.211 195.472 230.211 194.917C230.211 194.362 230.297 193.893 230.47 193.51C230.647 193.123 230.883 192.834 231.177 192.643C231.475 192.451 231.806 192.356 232.17 192.356ZM232.163 192.922C231.771 192.922 231.461 193.097 231.233 193.447C231.004 193.793 230.89 194.28 230.89 194.91C230.89 195.526 230.999 196.006 231.219 196.352C231.442 196.692 231.746 196.862 232.128 196.862C232.516 196.862 232.821 196.69 233.045 196.345C233.269 195.999 233.381 195.509 233.381 194.875C233.381 194.254 233.274 193.774 233.059 193.433C232.849 193.093 232.551 192.922 232.163 192.922ZM236.749 192.356C237.099 192.356 237.416 192.447 237.701 192.629C237.99 192.811 238.219 193.09 238.387 193.468C238.559 193.842 238.645 194.306 238.645 194.861C238.645 195.421 238.559 195.894 238.387 196.282C238.214 196.669 237.981 196.958 237.687 197.149C237.398 197.341 237.073 197.436 236.714 197.436C236.359 197.436 236.038 197.345 235.748 197.163C235.459 196.977 235.226 196.694 235.049 196.317C234.876 195.939 234.79 195.472 234.79 194.917C234.79 194.362 234.876 193.893 235.049 193.51C235.226 193.123 235.461 192.834 235.755 192.643C236.054 192.451 236.385 192.356 236.749 192.356ZM236.742 192.922C236.35 192.922 236.04 193.097 235.811 193.447C235.583 193.793 235.468 194.28 235.468 194.91C235.468 195.526 235.578 196.006 235.797 196.352C236.021 196.692 236.324 196.862 236.707 196.862C237.094 196.862 237.4 196.69 237.624 196.345C237.848 195.999 237.96 195.509 237.96 194.875C237.96 194.254 237.852 193.774 237.638 193.433C237.428 193.093 237.129 192.922 236.742 192.922ZM241.328 192.356C241.678 192.356 241.995 192.447 242.28 192.629C242.569 192.811 242.797 193.09 242.965 193.468C243.138 193.842 243.224 194.306 243.224 194.861C243.224 195.421 243.138 195.894 242.965 196.282C242.793 196.669 242.559 196.958 242.266 197.149C241.976 197.341 241.652 197.436 241.293 197.436C240.938 197.436 240.616 197.345 240.327 197.163C240.038 196.977 239.805 196.694 239.627 196.317C239.455 195.939 239.368 195.472 239.368 194.917C239.368 194.362 239.455 193.893 239.627 193.51C239.805 193.123 240.04 192.834 240.334 192.643C240.633 192.451 240.964 192.356 241.328 192.356ZM241.321 192.922C240.929 192.922 240.619 193.097 240.39 193.447C240.161 193.793 240.047 194.28 240.047 194.91C240.047 195.526 240.157 196.006 240.376 196.352C240.6 196.692 240.903 196.862 241.286 196.862C241.673 196.862 241.979 196.69 242.203 196.345C242.426 195.999 242.538 195.509 242.538 194.875C242.538 194.254 242.431 193.774 242.217 193.433C242.007 193.093 241.708 192.922 241.321 192.922Z" fill="#6D7582"/>
<rect x="182.472" y="146.083" width="117.916" height="63.3318" rx="5.07354" stroke="#E0E5EC" stroke-width="1.0497"/>
<circle cx="197.343" cy="194.544" r="4.19879" fill="#FFB800"/>
<path d="M138.475 20.7088L133.576 25.6074L128.677 20.7088" stroke="#444A53" stroke-width="2.0994"/>
<rect x="182.472" y="73.3037" width="117.916" height="63.3318" rx="5.07354" stroke="#E0E5EC" stroke-width="1.0497"/>
<circle cx="197.343" cy="123.165" r="4.19879" fill="#FBB188"/>
<rect x="191.744" y="85.3755" width="92.3735" height="5.59839" rx="2.7992" fill="#EFF7F8"/>
<rect x="191.744" y="99.3716" width="65.7811" height="5.59839" rx="2.7992" fill="#EFF7F8"/>
<rect x="207.141" y="120.366" width="36.3895" height="5.59839" rx="2.7992" fill="#EFF7F8"/>
<rect x="318.414" y="73.3037" width="117.916" height="63.3318" rx="5.07354" stroke="#E0E5EC" stroke-width="1.0497"/>
<circle cx="333.284" cy="123.165" r="4.19879" fill="#FFB800"/>
<rect x="327.687" y="85.3755" width="92.3735" height="5.59839" rx="2.7992" fill="#EFF7F8"/>
<rect x="327.687" y="99.3716" width="65.7811" height="5.59839" rx="2.7992" fill="#EFF7F8"/>
<rect x="343.081" y="120.366" width="36.3895" height="5.59839" rx="2.7992" fill="#EFF7F8"/>
<rect x="317.962" y="145.797" width="117.916" height="63.3318" rx="5.07354" stroke="#E0E5EC" stroke-width="1.0497"/>
<circle cx="332.833" cy="195.658" r="4.19879" fill="#FBB188"/>
<rect x="327.235" y="157.869" width="92.3735" height="5.59839" rx="2.7992" fill="#EFF7F8"/>
<rect x="327.235" y="171.865" width="65.7811" height="5.59839" rx="2.7992" fill="#EFF7F8"/>
<rect x="342.629" y="192.859" width="36.3895" height="5.59839" rx="2.7992" fill="#EFF7F8"/>
<rect x="454.807" y="73.0185" width="117.916" height="63.3318" rx="5.07354" stroke="#E0E5EC" stroke-width="1.0497"/>
<circle cx="469.677" cy="122.879" r="4.19879" fill="#2AC9A3"/>
<rect x="464.079" y="85.0903" width="92.3735" height="5.59839" rx="2.7992" fill="#EFF7F8"/>
<rect x="464.079" y="99.0859" width="65.7811" height="5.59839" rx="2.7992" fill="#EFF7F8"/>
<rect x="479.474" y="120.08" width="36.3895" height="5.59839" rx="2.7992" fill="#EFF7F8"/>
<path d="M0 4.69544C0 2.10223 2.10221 0 4.69543 0H30.5203V301.681H0V4.69544Z" fill="#000A70"/>
<g clip-path="url(#clip2_99_9487)">
<path d="M22.3021 77.189H8.22363V91.2752H22.3021V77.189ZM20.7369 86.5798H17.6067C17.6067 87.8789 16.5502 88.9275 15.2589 88.9275C13.9677 88.9275 12.9112 87.8789 12.9112 86.5798H9.78095V78.7541H20.7369V86.5798Z" fill="white"/>
</g>
<circle cx="10.5645" cy="53.7119" r="1.17386" fill="white"/>
<circle cx="15.2598" cy="53.7119" r="1.17386" fill="white"/>
<circle cx="19.9551" cy="53.7119" r="1.17386" fill="white"/>
<circle cx="10.5645" cy="58.4073" r="1.17386" fill="white"/>
<circle cx="15.2598" cy="58.4073" r="1.17386" fill="white"/>
<circle cx="19.9551" cy="58.4073" r="1.17386" fill="white"/>
<circle cx="10.5645" cy="63.1026" r="1.17386" fill="white"/>
<circle cx="15.2598" cy="63.1026" r="1.17386" fill="white"/>
<circle cx="19.9551" cy="63.1026" r="1.17386" fill="white"/>
<g clip-path="url(#clip3_99_9487)">
<path d="M15.2596 21.6047C17.1985 21.6047 18.7702 20.0329 18.7702 18.0941C18.7702 16.1552 17.1985 14.5835 15.2596 14.5835C13.3208 14.5835 11.749 16.1552 11.749 18.0941C11.749 20.0329 13.3208 21.6047 15.2596 21.6047Z" fill="white"/>
<path d="M21.1291 22.4053H17.6074L15.2709 25.5311L12.9233 22.4053H9.39062L13.5048 27.8686L9.39062 33.354H12.9233L15.2709 30.2162L17.6074 33.354H21.1291L17.0259 27.8686L21.1291 22.4053Z" fill="white"/>
</g>
</g>
<defs>
<filter id="filter0_d_99_9487" x="-33.5903" y="-22.3936" width="710.454" height="368.862" filterUnits="userSpaceOnUse" color-interpolation-filters="sRGB">
<feFlood flood-opacity="0" result="BackgroundImageFix"/>
<feColorMatrix in="SourceAlpha" type="matrix" values="0 0 0 0 0 0 0 0 0 0 0 0 0 0 0 0 0 0 127 0" result="hardAlpha"/>
<feOffset dy="11.1968"/>
<feGaussianBlur stdDeviation="16.7952"/>
<feColorMatrix type="matrix" values="0 0 0 0 0 0 0 0 0 0 0 0 0 0 0 0 0 0 0.1 0"/>
<feBlend mode="normal" in2="BackgroundImageFix" result="effect1_dropShadow_99_9487"/>
<feBlend mode="normal" in="SourceGraphic" in2="effect1_dropShadow_99_9487" result="shape"/>
</filter>
<filter id="filter1_d_99_9487" x="232.062" y="220.851" width="174.347" height="115.367" filterUnits="userSpaceOnUse" color-interpolation-filters="sRGB">
<feFlood flood-opacity="0" result="BackgroundImageFix"/>
<feColorMatrix in="SourceAlpha" type="matrix" values="0 0 0 0 0 0 0 0 0 0 0 0 0 0 0 0 0 0 127 0" result="hardAlpha"/>
<feOffset dy="5.59839"/>
<feGaussianBlur stdDeviation="8.39759"/>
<feColorMatrix type="matrix" values="0 0 0 0 0 0 0 0 0 0 0 0 0 0 0 0 0 0 0.08 0"/>
<feBlend mode="normal" in2="BackgroundImageFix" result="effect1_dropShadow_99_9487"/>
<feBlend mode="normal" in="SourceGraphic" in2="effect1_dropShadow_99_9487" result="shape"/>
</filter>
<clipPath id="clip0_99_9487">
<rect width="492" height="314" fill="white"/>
</clipPath>
<clipPath id="clip1_99_9487">
<rect width="26.0748" height="28.4452" fill="white" transform="translate(351.027 284.967) rotate(-47.84)"/>
</clipPath>
<clipPath id="clip2_99_9487">
<rect width="18.7817" height="18.7817" fill="white" transform="translate(5.86914 74.8413)"/>
</clipPath>
<clipPath id="clip3_99_9487">
<rect width="11.7386" height="18.7817" fill="white" transform="translate(9.39062 14.9746)"/>
</clipPath>
</defs>
</svg>
