<svg xmlns="http://www.w3.org/2000/svg" viewBox="0 0 151.8 78.65"><defs><style>.cls-1,.cls-10,.cls-11,.cls-12,.cls-13,.cls-14,.cls-15,.cls-16,.cls-17,.cls-18,.cls-2,.cls-3,.cls-4,.cls-5,.cls-6,.cls-7,.cls-8,.cls-9{fill:none;stroke:#005fec;stroke-miterlimit:10;}.cls-1{stroke-width:5.5px;}.cls-2{stroke-width:5.25px;}.cls-3{stroke-width:5px;}.cls-4{stroke-width:4.75px;}.cls-5{stroke-width:4.5px;}.cls-6{stroke-width:4.25px;}.cls-7{stroke-width:4px;}.cls-8{stroke-width:3.75px;}.cls-9{stroke-width:3.5px;}.cls-10{stroke-width:3.25px;}.cls-11{stroke-width:3px;}.cls-12{stroke-width:2.75px;}.cls-13{stroke-width:2.5px;}.cls-14{stroke-width:2.25px;}.cls-15{stroke-width:2px;}.cls-16{stroke-width:1.75px;}.cls-17{stroke-width:1.5px;}.cls-18{stroke-width:1.25px;}</style></defs><g id="Layer_2" data-name="Layer 2"><g id="Layer_1-2" data-name="Layer 1"><line class="cls-1" x1="96.66" y1="75.9" x2="151.8" y2="75.9"/><line class="cls-2" x1="96.34" y1="72.29" x2="150.64" y2="62.72"/><line class="cls-3" x1="95.41" y1="68.8" x2="147.22" y2="49.94"/><line class="cls-4" x1="93.88" y1="65.52" x2="141.63" y2="37.95"/><line class="cls-5" x1="91.8" y1="62.55" x2="134.04" y2="27.11"/><line class="cls-6" x1="89.24" y1="59.99" x2="124.68" y2="17.76"/><line class="cls-7" x1="86.28" y1="57.92" x2="113.85" y2="10.17"/><line class="cls-8" x1="83" y1="56.39" x2="101.86" y2="4.58"/><line class="cls-9" x1="79.5" y1="55.45" x2="89.08" y2="1.15"/><line class="cls-10" x1="75.9" y1="55.14" x2="75.9"/><line class="cls-11" x1="72.29" y1="55.45" x2="62.72" y2="1.15"/><line class="cls-12" x1="68.8" y1="56.39" x2="49.94" y2="4.58"/><line class="cls-13" x1="65.52" y1="57.92" x2="37.95" y2="10.17"/><line class="cls-14" x1="62.55" y1="59.99" x2="27.11" y2="17.76"/><line class="cls-14" x1="59.99" y1="62.55" x2="17.76" y2="27.11"/><line class="cls-15" x1="57.92" y1="65.52" x2="10.17" y2="37.95"/><line class="cls-16" x1="56.39" y1="68.8" x2="4.58" y2="49.94"/><line class="cls-17" x1="55.45" y1="72.29" x2="1.15" y2="62.72"/><line class="cls-18" x1="55.14" y1="75.9" y2="75.9"/></g></g></svg>