<svg width="258" height="248" viewBox="0 0 258 248" fill="none" xmlns="http://www.w3.org/2000/svg">
<path d="M252.866 70.5315L248.556 64.6572L171.245 121.38L175.555 127.254L252.866 70.5315Z" fill="#CB9AEA"/>
<path d="M239.448 54.0452L234.448 49.0967L166.995 117.246L171.995 122.195L239.448 54.0452Z" fill="#CB9AEA"/>
<path d="M223.682 39.8266L218.172 35.8696L162.237 113.759L167.747 117.716L223.682 39.8266Z" fill="#CB9AEA"/>
<path d="M205.809 28.3458L199.972 25.415L156.949 111.111L162.787 114.042L205.809 28.3458Z" fill="#CB9AEA"/>
<path d="M186.385 19.8096L180.399 17.9072L151.356 109.289L157.342 111.191L186.385 19.8096Z" fill="#CB9AEA"/>
<path d="M165.779 14.4846L159.816 13.582L145.463 108.397L151.425 109.299L165.779 14.4846Z" fill="#CB9AEA"/>
<path d="M145.36 108.348L144.659 12.4629L138.881 12.5051L139.582 108.39L145.36 108.348Z" fill="#CB9AEA"/>
<path d="M139.174 108.302L123.439 13.7095L117.987 14.6164L133.722 109.209L139.174 108.302Z" fill="#CB9AEA"/>
<path d="M132.895 109.404L102.521 18.4556L97.9939 19.9676L128.368 110.916L132.895 109.404Z" fill="#CB9AEA"/>
<path d="M127.078 111.419L82.8076 26.356L78.7959 28.4438L123.066 113.507L127.078 111.419Z" fill="#CB9AEA"/>
<path d="M121.643 114.274L64.5977 37.2017L61.1647 39.7425L118.21 116.815L121.643 114.274Z" fill="#CB9AEA"/>
<path d="M116.819 117.911L48.3604 50.7646L45.3696 53.8139L113.829 120.96L116.819 117.911Z" fill="#CB9AEA"/>
<path d="M112.578 122.428L34.4414 66.8442L32.1113 70.1198L110.248 125.704L112.578 122.428Z" fill="#CB9AEA"/>
<path d="M109.117 127.469L23.2188 84.8403L21.5434 88.2163L107.442 130.844L109.117 127.469Z" fill="#CB9AEA"/>
<path d="M106.458 133.039L14.9385 104.416L13.8885 107.773L105.408 136.396L106.458 133.039Z" fill="#CB9AEA"/>
<path d="M104.779 138.997L9.90332 125.062L9.42869 128.294L104.304 142.228L104.779 138.997Z" fill="#CB9AEA"/>
<path d="M104.008 148.112L103.973 145.098L8.08447 146.222L8.11982 149.237L104.008 148.112Z" fill="#CB9AEA"/>
<path d="M104.74 153.956L104.273 151.232L9.76092 167.428L10.2277 170.152L104.74 153.956Z" fill="#CB9AEA"/>
<path d="M106.316 159.673L105.511 157.293L14.6813 188.026L15.4865 190.406L106.316 159.673Z" fill="#CB9AEA"/>
<path d="M108.763 165.149L107.672 163.074L22.7954 207.7L23.8867 209.775L108.763 165.149Z" fill="#CB9AEA"/>
<path d="M111.96 169.992L110.707 168.314L33.8897 225.703L35.1427 227.38L111.96 169.992Z" fill="#CB9AEA"/>
</svg>
