<?xml version="1.0" encoding="UTF-8"?>
<svg width="1143px" height="476px" viewBox="0 0 1143 476" version="1.1" xmlns="http://www.w3.org/2000/svg" xmlns:xlink="http://www.w3.org/1999/xlink">
    <!-- Generator: Sketch 64 (93537) - https://sketch.com -->
    <title>portside-brand-card</title>
    <desc>Created with Sketch.</desc>
    <defs>
        <rect id="path-1" x="0" y="0" width="462" height="476"></rect>
    </defs>
    <g id="Page-1" stroke="none" stroke-width="1" fill="none" fill-rule="evenodd">
        <g id="Case-Study/-Portside-Productionds-Copy-2" transform="translate(-148.000000, -1732.000000)">
            <g id="portside-brand-card" transform="translate(148.000000, 1732.000000)">
                <rect id="Rectangle" fill="#FFFFFF" x="0" y="0" width="1143" height="476"></rect>
                <g id="about-top" transform="translate(681.000000, 0.000000)">
                    <mask id="mask-2" fill="white">
                        <use xlink:href="#path-1"></use>
                    </mask>
                    <use id="Mask" fill="#0B0B0B" xlink:href="#path-1"></use>
                    <g mask="url(#mask-2)" stroke="#FFFFFF">
                        <g transform="translate(308.000000, 200.500000) rotate(-4.000000) translate(-308.000000, -200.500000) translate(-415.000000, -267.000000)">
                            <path d="M469,934.239704 C480.342778,794.60057 524.560649,740.624365 564.784314,717.836965 C643.808288,673.068408 717.393629,743.02586 854.052941,696.771211 C921.163263,674.056584 902.860796,657.374422 1003.47647,614.423266 C1110.22617,568.854211 1173.47255,569.428732 1193.12941,520.58491 C1208.17521,483.198943 1179.6334,461.704214 1198.87647,422.916417 C1217.34177,385.695145 1256.41411,379.704811 1304.23922,355.889019 C1341.99356,337.088792 1393.96421,302.814811 1446,235.239704" id="Stroke-1"></path>
                            <path d="M376,841.239704 C387.880375,801.401773 409.631986,770.434171 432.802263,741.198486 C466.882854,698.201339 494.920692,671.766609 523.236512,657.242642 C554.234378,641.343104 583.782905,637.130177 619.623409,639.046015 C650.805319,640.712794 694.642119,648.418293 758.819532,644.24943 C783.95102,642.542419 808.474782,638.944476 833.374299,632.344414 C874.381434,621.475867 888.92085,611.580564 911.70387,594.445311 C928.536159,581.785455 938.790818,570.347903 971.631034,550.095582 C976.360562,547.181593 981.64222,543.945743 987.543106,540.658165 C1025.81068,519.336806 1064.38116,502.66327 1099.13274,494.706795 C1145.16272,484.167772 1169.87628,488.48607 1191.25405,464.777577 C1212.94432,440.720402 1192.19152,420.029354 1212.94432,390.194012 C1234.52339,359.168935 1272.21774,351.467267 1312.11103,330.228289 C1318.43177,326.862162 1324.68732,323.266134 1330.75116,319.505345 C1367.301,296.846731 1404.88992,262.589635 1440,215.239704" id="Stroke-3"></path>
                            <path d="M284,747.239704 C303.588333,718.832564 336.79075,696.127937 373.609917,669.01081 C419.540917,635.184845 451.38825,610.227964 482.572417,595.658283 C514.852917,580.57873 545.142,569.884841 585.016333,573.400273 C609.787333,575.583521 656.276083,578.874685 733.375917,575.593105 C762.407667,574.276255 788.55675,571.726897 813.283667,566.921451 C855.835583,558.654245 874.868083,549.938505 898.523583,531.5122 C918.895833,515.642921 921.970167,504.368238 956.355167,477.649808 C960.82675,474.176547 966.022833,470.084155 972.048833,465.880588 C1006.11567,442.102547 1047.14958,418.625444 1087.97458,412.59324 C1136.62533,405.407115 1151.56,418.497018 1189.625,407.964141 C1209.56217,390.850852 1205.78825,377.511763 1227.24342,356.478595 C1252.59325,331.630973 1288.07267,321.958744 1320.11358,303.574609 C1326.30825,300.020841 1331.94517,296.455573 1336.90742,293.177826 C1374.88808,268.081018 1406.98458,232.878782 1434,194.239704" id="Stroke-5"></path>
                            <path d="M191,653.239704 C218.315645,636.303872 262.279967,620.493523 313.503274,596.954094 C370.539522,570.744516 406.985953,548.860771 441.092633,534.336687 C474.658484,520.044208 505.408961,510.223033 549.683972,508.063944 C568.238972,507.158581 617.241433,509.635409 707.333389,507.244715 C740.293206,506.318298 768.103651,504.894218 792.667211,501.820196 C836.823316,496.29423 860.307138,488.603433 884.891794,468.966825 C908.787949,449.875732 904.990647,439.153023 940.673781,405.706286 C944.925609,401.721159 950.063474,396.819185 956.162172,391.62627 C986.375657,365.889471 1029.55751,334.915732 1076.52323,331.114358 C1127.80024,326.962705 1137.22062,360.003656 1187.79186,351.771173 C1210.93623,348.002338 1219.98455,336.278561 1241.37793,323.461842 C1271.37087,305.494318 1303.66328,292.939828 1328.02739,277.715189 C1334.0743,273.934869 1339.09902,270.411037 1342.98454,267.66241 C1382.2521,239.900508 1409.05952,204.101359 1428,174.239704" id="Stroke-7"></path>
                            <path d="M98,560.239704 C132.996597,554.733808 187.70249,544.633601 253.191304,525.768006 C385.801316,487.569535 414.193661,456.196459 513.75942,443.41895 C526.042525,441.842827 577.510475,441.090195 680.446377,439.588761 C786.35582,438.041365 831.033672,439.016148 870.124638,407.032157 C897.476626,384.652365 887.161194,374.71877 923.771014,334.258572 C945.643409,310.086251 998.540652,251.626082 1063.63478,249.994421 C1117.48233,248.64428 1120.0382,287.679648 1184.33913,295.956685 C1264.52322,306.277129 1331.23632,254.676827 1347.1942,242.334044 C1387.27763,211.330582 1409.16152,175.388091 1420,154.239704" id="Stroke-9"></path>
                            <path d="M73,514.922497 C112.218215,516.801247 164.379477,510.249608 222.008902,497.522464 C233.401389,495.004669 243.940973,492.734432 253.545238,490.260776 C318.593963,473.676339 359.514152,455.332133 396.233073,443.219085 C423.560476,434.262875 444.22565,428.125751 473.866433,423.184195 C477.222463,422.625751 482.587129,422.22275 490.177009,421.529973 C524.503968,418.390406 563.772016,423.495081 634.095324,419.449722 C689.380703,416.269855 716.713856,405.987581 755.769157,398.510959 C789.197213,392.109006 808.718156,390.598713 830.901306,377.568359 C839.208009,372.690132 845.226247,368.120872 850.700161,362.891459 C861.914401,352.177398 865.728507,340.417455 895.752618,311.347675 C908.07659,299.382393 927.265954,280.18229 952.485057,261.481141 C983.850813,238.220327 1002.5591,227.947648 1024.33976,223.719979 C1030.77391,222.470677 1037.17164,221.762548 1043.5617,221.674271 C1097.84085,220.883622 1107.69044,262.91851 1171.71185,267.364951 C1229.67477,271.391119 1277.38369,241.123851 1310.22909,215.694509 C1316.62682,210.741439 1321.77874,206.59629 1325.24402,203.637113 C1362.1776,172.086 1383.71484,137.809835 1395,116.239704" id="Stroke-11"></path>
                            <path d="M49,467.174164 C92.4428949,476.454775 142.28009,474.047695 191.822016,466.914822 C203.078669,465.293452 213.342144,463.966004 222.453302,462.242819 C284.952554,450.660785 329.519005,432.875669 361.072528,422.523109 C392.142883,412.424129 408.401854,406.134599 434.962645,400.692253 C438.569146,399.952648 443.690338,399.343673 450.565888,398.44462 C494.668345,392.675696 525.021619,403.552702 588.728789,397.055698 C646.288995,391.186879 663.278468,371.22905 712.055379,360.029306 C749.715603,351.380722 767.464339,355.653146 792.667661,345.863455 C800.992714,342.630322 808.188458,339.103267 815.629621,334.339053 C828.886051,325.847995 834.396461,315.971857 868.732032,286.285812 C882.699791,274.165883 903.052264,255.82174 930.165247,235.923464 C973.088545,204.422023 986.797465,196.976018 1004.28928,193.431674 C1011.19742,192.033147 1017.90617,191.299304 1024.4922,191.276251 C1079.20133,191.049567 1096.30393,234.436568 1160.09355,236.647701 C1212.17402,238.453492 1252.70257,207.27863 1290.18065,175.270031 C1295.82335,170.450106 1300.65503,166.256446 1304.29604,162.848496 C1338.28074,131.056976 1359.26785,98.2107973 1371,76.2397043" id="Stroke-13"></path>
                            <path d="M24,420.673241 C71.6345796,437.341009 119.236577,439.736377 160.527291,437.559817 C171.66643,436.972491 181.621126,436.454262 190.230385,435.484983 C250.134884,428.93035 298.309938,411.736676 324.676274,403.16671 C359.465962,391.942262 371.268236,385.32429 394.767375,379.57771 C398.617776,378.637221 403.482046,377.767749 409.65342,376.740888 C463.413377,367.788969 484.873278,384.564221 541.954661,376.047997 C601.709667,367.132546 608.415766,338.040726 666.840669,323.002499 C708.729354,312.219504 724.468276,321.658943 752.871932,315.641733 C761.141957,313.891272 769.484812,311.401855 778.97953,307.288655 C794.110897,300.735942 801.472466,293.068077 840.089555,262.8208 C855.694317,250.57141 877.232798,233.174283 906.180762,212.061265 C960.701599,172.483952 969.314691,167.722007 982.517983,164.921653 C989.889135,163.35929 996.909552,162.614576 1003.68465,162.658721 C1058.78429,162.99461 1083.03664,212.013281 1146.63439,207.623692 C1192.84303,204.435626 1226.49236,175.620195 1268.1913,136.65516 C1273.13032,132.039087 1277.60361,127.762741 1281.39843,123.89522 C1312.58687,92.114369 1332.82974,60.5676809 1345,38.2397043" id="Stroke-15"></path>
                            <path d="M0,374.570551 C69.0984615,406.634387 126.603183,409.995686 159.133527,409.124167 C216.486784,407.588451 268.31063,390.968161 289.507983,384.168777 C335.721893,369.347196 337.019885,362.100534 370.033382,355.374097 C433.320594,342.479839 445.982254,365.561655 496.573295,355.374097 C558.457064,342.913679 555.028983,305.254076 623.113208,286.266864 C681.333071,270.030503 688.016679,296.406431 743.901306,280.507928 C767.788591,273.712383 776.261013,266.135543 883.862119,188.36495 C949.960051,140.590736 953.537679,138.552073 962.470247,136.534525 C1032.72291,120.659058 1063.78462,189.693345 1135.02467,178.766723 C1175.45034,172.566269 1202.75037,144.614313 1248.14369,98.141618 C1283.58637,61.8545616 1306.64922,26.0685327 1321,0.239704329" id="Stroke-17"></path>
                        </g>
                    </g>
                </g>
                <g id="Logo-black" transform="translate(207.000000, 124.000000)" fill="#151515" fill-rule="nonzero">
                    <g id="Group" transform="translate(0.000000, 169.000000)">
                        <path d="M0,28.1364444 L0,0.624305556 L11.535772,0.624305556 C12.8307166,0.624305556 14.0172215,0.896583333 15.0960782,1.43872222 C16.1749349,1.98166667 17.1010261,2.69297222 17.8759349,3.57022222 C18.6508436,4.44747222 19.2587394,5.44233333 19.7035798,6.55319444 C20.1476287,7.66405556 20.3700489,8.78780556 20.3700489,9.92444444 C20.3700489,11.1392222 20.1602932,12.3016389 19.7415733,13.4116944 C19.3228534,14.5225556 18.7387036,15.5174167 17.9899153,16.3954722 C17.241127,17.2743333 16.3340326,17.9719444 15.2678404,18.4891111 C14.2016482,19.0054722 13.0214756,19.26325 11.7273225,19.26325 L6.24438762,19.26325 L6.24438762,28.13725 L0,28.13725 L0,28.1364444 Z M6.24438762,13.7226389 L11.3458046,13.7226389 C12.0819283,13.7226389 12.7167362,13.3996111 13.250228,12.7535556 C13.7821368,12.1083056 14.0496743,11.1641944 14.0496743,9.92444444 C14.0496743,9.27919444 13.967355,8.72416667 13.8019251,8.25855556 C13.6372866,7.79375 13.4148664,7.40627778 13.1362476,7.09694444 C12.8568371,6.78680556 12.5402248,6.56125 12.1848274,6.41866667 C11.82943,6.27608333 11.4740326,6.20519444 11.1186352,6.20519444 L6.24438762,6.20519444 L6.24438762,13.7226389 Z" id="Shape"></path>
                        <path d="M41.6020749,28.3684444 C39.673114,28.3684444 37.9222476,27.9688889 36.3478925,27.1681667 C34.774329,26.3674444 33.4223941,25.3145833 32.2928795,24.0103889 C31.1633648,22.7061944 30.2879316,21.2135 29.6665798,19.5339167 C29.0444365,17.8551389 28.7333648,16.1248056 28.7333648,14.3421111 C28.7333648,12.5336389 29.057101,10.7904167 29.7037818,9.11083333 C30.3512541,7.43205556 31.2528078,5.95305556 32.4076515,4.67383333 C33.5624951,3.39541667 34.9326352,2.37477778 36.5196547,1.61272222 C38.1058827,0.851472222 39.8377524,0.469638889 41.7160554,0.469638889 C43.6458078,0.469638889 45.3966743,0.87 46.9702378,1.67072222 C48.5438013,2.47144444 49.8957362,3.53155556 51.0252508,4.84783333 C52.155557,6.16572222 53.0238664,7.66325 53.6333453,9.34283333 C54.2428241,11.0224167 54.5475635,12.7269722 54.5475635,14.4573056 C54.5475635,16.2665833 54.2238274,18.0098056 53.576355,19.6885833 C52.9288827,21.3673611 52.0344528,22.8463611 50.8922736,24.1255833 C49.7500945,25.404 48.3854951,26.4310833 46.7992671,27.2060278 C45.2122476,27.9817778 43.4803779,28.3684444 41.6020749,28.3684444 Z M35.0909414,14.4194444 C35.0909414,15.47875 35.2373746,16.5058333 35.528658,17.4998889 C35.8207329,18.49475 36.2394528,19.37925 36.7856091,20.1541944 C37.3317655,20.9291389 38.0164397,21.5494167 38.841215,22.0150278 C39.6659902,22.4798333 40.6118697,22.7118333 41.6772704,22.7118333 C42.7687915,22.7118333 43.7210033,22.4669444 44.5323225,21.9763611 C45.3444332,21.4849722 46.0235668,20.8461667 46.5689316,20.0575278 C47.1142964,19.2696944 47.5203518,18.37875 47.7878893,17.3838889 C48.0538436,16.3898333 48.1876124,15.3756389 48.1876124,14.3429167 C48.1876124,13.2844167 48.0419707,12.2565278 47.7498958,11.2616667 C47.4578208,10.2676111 47.0327687,9.38955556 46.4739479,8.62669444 C45.915127,7.86544444 45.2304528,7.25805556 44.418342,6.80533333 C43.6054397,6.35341667 42.678557,6.12705556 41.6384853,6.12705556 C40.5469642,6.12705556 39.595544,6.36630556 38.7826417,6.844 C37.9705309,7.3225 37.2921889,7.94922222 36.7460326,8.72336111 C36.2006678,9.49911111 35.7882801,10.3836111 35.5088697,11.3776667 C35.2302508,12.3725278 35.0909414,13.3867222 35.0909414,14.4194444 Z" id="Shape"></path>
                        <path d="M64.8509218,28.1364444 L64.8509218,0.624305556 L77.0349577,0.624305556 C78.3037818,0.624305556 79.4776221,0.896583333 80.5572704,1.43872222 C81.636127,1.98166667 82.5685505,2.69297222 83.3561238,3.57022222 C84.1429055,4.44827778 84.7587166,5.44233333 85.2027655,6.55319444 C85.6468143,7.66405556 85.8692345,8.78780556 85.8692345,9.92444444 C85.8692345,10.7775278 85.7679186,11.5975833 85.5652866,12.3862222 C85.3618632,13.1740556 85.0697883,13.9159722 84.6890619,14.6135833 C84.309127,15.3111944 83.8452899,15.9379167 83.2999251,16.4929444 C82.7545603,17.0487778 82.1387492,17.5200278 81.4532834,17.9075 L87.658886,28.13725 L80.6150521,28.13725 L75.1701107,19.26325 L71.0953094,19.26325 L71.0953094,28.13725 L64.8509218,28.13725 L64.8509218,28.1364444 Z M71.0953094,13.7226389 L76.8054137,13.7226389 C77.5415375,13.7226389 78.1755537,13.3673889 78.7090456,12.6568889 C79.2417459,11.9471944 79.5084919,11.0353056 79.5084919,9.92444444 C79.5084919,8.78861111 79.204544,7.88397222 78.5950651,7.21294444 C77.9855863,6.54111111 77.3254495,6.20519444 76.6154463,6.20519444 L71.0953094,6.20519444 L71.0953094,13.7226389 Z" id="Shape"></path>
                        <polygon id="Path" points="117.987977 6.20519444 109.763971 6.20519444 109.763971 28.13725 103.520375 28.13725 103.520375 6.20519444 95.2583746 6.20519444 95.2583746 0.624305556 117.988769 0.624305556 117.988769 6.20519444"></polygon>
                        <path d="M159.507733,8.6855 C159.405625,8.58158333 159.127007,8.38825 158.669502,8.10308333 C158.212788,7.81872222 157.642094,7.52147222 156.956629,7.21294444 C156.270371,6.90280556 155.521583,6.63133333 154.710264,6.39933333 C153.897362,6.16652778 153.085251,6.04972222 152.27314,6.04972222 C151.206948,6.04972222 150.387713,6.24386111 149.816228,6.63133333 C149.245534,7.01880556 148.960583,7.58752778 148.960583,8.33588889 C148.960583,8.8015 149.087228,9.18897222 149.340518,9.49830556 C149.594599,9.80844444 149.955537,10.0855556 150.424915,10.3320556 C150.895085,10.5769444 151.479235,10.8025 152.177365,11.0095278 C152.875495,11.2165556 153.680482,11.4485556 154.595492,11.7063333 C155.890436,12.0680278 157.057153,12.4619444 158.098016,12.8888889 C159.138879,13.3158333 160.027769,13.8450833 160.763101,14.4774444 C161.499225,15.1106111 162.064378,15.8791111 162.457769,16.7829444 C162.85116,17.6867778 163.048251,18.7726667 163.048251,20.0373889 C163.048251,21.5880833 162.762508,22.8987222 162.191023,23.9709167 C161.619537,25.0431111 160.865208,25.9082778 159.925661,26.5672222 C158.986114,27.2261667 157.900925,27.7038611 156.670886,28.0011111 C155.439264,28.2975556 154.176772,28.4465833 152.882619,28.4465833 C151.892414,28.4465833 150.884003,28.3684444 149.855805,28.2145833 C148.827606,28.0599167 147.818404,27.83275 146.82899,27.5355 C145.839577,27.2390556 144.8747,26.8838056 143.935153,26.4705556 C142.995606,26.0573056 142.133629,25.5796111 141.346055,25.0366667 L144.087919,19.4960556 C144.214564,19.6249444 144.557296,19.8706389 145.116117,20.2315278 C145.674147,20.5932222 146.358821,20.9549167 147.172515,21.3174167 C147.983834,21.6791111 148.898052,22.0029444 149.913586,22.2865 C150.928329,22.5708611 151.956528,22.7118333 152.997391,22.7118333 C155.205762,22.7118333 156.310739,22.0279167 156.310739,20.6584722 C156.310739,20.1413056 156.145309,19.7151667 155.81445,19.37925 C155.484381,19.0441389 155.028459,18.7404444 154.444309,18.4689722 C153.860951,18.1975 153.174694,17.9453611 152.388704,17.7133611 C151.60113,17.4805556 150.738362,17.2227778 149.799606,16.9384167 C148.556111,16.5509444 147.477254,16.13125 146.563827,15.6793333 C145.649609,15.2274167 144.888156,14.7046111 144.278678,14.1109167 C143.669199,13.5164167 143.218818,12.8316944 142.927534,12.05675 C142.635459,11.2818056 142.489026,10.3779722 142.489026,9.34363889 C142.489026,7.89766667 142.75498,6.61844444 143.288472,5.50758333 C143.821173,4.39672222 144.544632,3.46066667 145.45885,2.69941667 C146.372277,1.93655556 147.432137,1.36219444 148.63843,0.973916667 C149.843932,0.58725 151.119879,0.392305556 152.465482,0.392305556 C153.429567,0.392305556 154.368322,0.482527778 155.282541,0.663777778 C156.196759,0.845027778 157.06586,1.07783333 157.890635,1.36138889 C158.716202,1.64575 159.49586,1.96797222 160.232775,2.32966667 C160.968899,2.69136111 161.629036,3.05305556 162.212394,3.41555556 L159.507733,8.6855 Z" id="Path"></path>
                        <polygon id="Path" points="172.896479 28.1364444 172.896479 0.624305556 179.141658 0.624305556 179.141658 28.1364444"></polygon>
                        <path d="M190.467674,28.1364444 L190.467674,0.624305556 L200.557319,0.624305556 C202.79102,0.624305556 204.745309,0.986805556 206.420189,1.71019444 C208.09586,2.43277778 209.498453,3.41555556 210.627967,4.6545 C211.757482,5.89425 212.607586,7.34908333 213.17828,9.01416667 C213.749765,10.6800556 214.035508,12.4563056 214.035508,14.3421111 C214.035508,16.4341389 213.718104,18.3263889 213.083296,20.0188611 C212.44928,21.7113333 211.541394,23.1573056 210.362013,24.3591944 C209.18184,25.5602778 207.760251,26.4906944 206.097244,27.1488333 C204.434238,27.8077778 202.587596,28.13725 200.557319,28.13725 L190.467674,28.13725 L190.467674,28.1364444 Z M207.677932,14.3421111 C207.677932,13.1273333 207.518042,12.0237222 207.200638,11.0296667 C206.883235,10.0356111 206.42098,9.17527778 205.811502,8.45269444 C205.202023,7.72930556 204.453235,7.17347222 203.564345,6.78680556 C202.676248,6.40013889 201.672586,6.20519444 200.556528,6.20519444 L196.712062,6.20519444 L196.712062,22.5571667 L200.556528,22.5571667 C201.698707,22.5571667 202.714241,22.3509444 203.60313,21.9368889 C204.491228,21.5236389 205.233684,20.9484722 205.829707,20.2121944 C206.42573,19.4759167 206.883235,18.6115556 207.199847,17.6158889 C207.518042,16.6218333 207.677932,15.5311111 207.677932,14.3421111 Z" id="Shape"></path>
                        <polygon id="Path" points="242.878104 22.5563611 242.878104 28.1364444 223.878987 28.1364444 223.878987 0.624305556 242.535371 0.624305556 242.535371 6.20519444 230.122583 6.20519444 230.122583 11.5532778 240.783713 11.5532778 240.783713 16.7064167 230.122583 16.7064167 230.122583 22.5571667 242.878104 22.5571667"></polygon>
                    </g>
                    <g id="Group" transform="translate(28.000000, 213.000000)">
                        <path d="M0.0103103448,15.748 L0.0103103448,0.852 L6.31310345,0.852 C7.02055172,0.852 7.66851724,0.9992 8.2577931,1.292 C8.84706897,1.5856 9.35306897,1.9712 9.77658621,2.4456 C10.1993103,2.9216 10.5324138,3.4608 10.7751034,4.0616 C11.0177931,4.6632 11.1383448,5.272 11.1383448,5.8872 C11.1383448,6.5448 11.0241379,7.1736 10.7957241,7.7752 C10.5673103,8.3768 10.2476897,8.9152 9.83844828,9.3912 C9.4292069,9.8672 8.93351724,10.244 8.35137931,10.524 C7.76924138,10.8048 7.12444828,10.9432 6.4177931,10.9432 L3.42224138,10.9432 L3.42224138,15.748 L0.0103103448,15.748 L0.0103103448,15.748 Z M3.42065517,7.9432 L6.20841379,7.9432 C6.61051724,7.9432 6.95631034,7.768 7.24817241,7.4184 C7.53924138,7.0688 7.68517241,6.5584 7.68517241,5.8872 C7.68517241,5.5376 7.63996552,5.2368 7.55034483,4.9848 C7.45993103,4.7336 7.33858621,4.5232 7.18631034,4.3552 C7.03403448,4.1872 6.86034483,4.0656 6.66603448,3.988 C6.47172414,3.9112 6.27741379,3.8728 6.08389655,3.8728 L3.42144828,3.8728 L3.42144828,7.9432 L3.42065517,7.9432 Z" id="Shape"></path>
                        <path d="M16.5457241,15.748 L16.5457241,0.852 L23.2022414,0.852 C23.8962069,0.852 24.5370345,0.9992 25.1263103,1.292 C25.7155862,1.5856 26.2255517,1.9712 26.6554138,2.4456 C27.0852759,2.9216 27.4215517,3.4608 27.6634483,4.0616 C27.9061379,4.6632 28.0274828,5.272 28.0274828,5.8872 C28.0274828,6.3488 27.9719655,6.7928 27.860931,7.2192 C27.7498966,7.6464 27.5904828,8.048 27.3826897,8.4256 C27.1741034,8.804 26.9211034,9.1424 26.6236897,9.4432 C26.3254828,9.744 25.9892069,9.9992 25.6148621,10.2088 L29.0053793,15.748 L25.1572414,15.748 L22.1831034,10.9432 L19.9576552,10.9432 L19.9576552,15.748 L16.5457241,15.748 L16.5457241,15.748 Z M19.9576552,7.9432 L23.0777241,7.9432 C23.4798276,7.9432 23.8256207,7.7512 24.1174828,7.3656 C24.4085517,6.9816 24.5544828,6.488 24.5544828,5.8864 C24.5544828,5.2704 24.387931,4.7816 24.0556207,4.4176 C23.7225172,4.0536 23.3624483,3.872 22.9738276,3.872 L19.9576552,3.872 L19.9576552,7.9432 L19.9576552,7.9432 Z" id="Shape"></path>
                        <path d="M40.3205862,15.8736 C39.2665517,15.8736 38.3092759,15.6568 37.4495517,15.2232 C36.5898276,14.7896 35.8514483,14.2192 35.2352069,13.5128 C34.6173793,12.8064 34.139931,11.9984 33.7988966,11.0896 C33.4594483,10.1808 33.288931,9.2432 33.288931,8.2776 C33.288931,7.2992 33.4665862,6.3552 33.8195172,5.4456 C34.1724483,4.536 34.6641724,3.7352 35.2962759,3.0432 C35.9267931,2.3512 36.6762759,1.7976 37.5423448,1.3856 C38.4092069,0.9728 39.3553793,0.7672 40.3816552,0.7672 C41.4356897,0.7672 42.3921724,0.984 43.2526897,1.4176 C44.1116207,1.8512 44.85,2.4248 45.4670345,3.1376 C46.0832759,3.8512 46.5591379,4.6616 46.8922414,5.5712 C47.2245517,6.4808 47.3911034,7.404 47.3911034,8.3408 C47.3911034,9.32 47.2142414,10.264 46.8605172,11.1736 C46.5067931,12.0832 46.0174483,12.8832 45.394069,13.576 C44.7698966,14.268 44.0243793,14.824 43.1583103,15.2432 C42.2930345,15.664 41.3468621,15.8736 40.3205862,15.8736 Z M36.7635172,8.3208 C36.7635172,8.8944 36.8436207,9.4504 37.0030345,9.9888 C37.1624483,10.5272 37.3916552,11.0064 37.689069,11.4264 C37.9872759,11.8456 38.3616207,12.1816 38.8128966,12.4336 C39.2633793,12.6848 39.7804828,12.8112 40.3626207,12.8112 C40.9582414,12.8112 41.4785172,12.6784 41.9226552,12.4128 C42.366,12.1472 42.7371724,11.8008 43.0353793,11.3736 C43.3335862,10.9472 43.5556552,10.4648 43.7015862,9.9264 C43.8475172,9.3872 43.9196897,8.8384 43.9196897,8.2784 C43.9196897,7.7048 43.8395862,7.1488 43.6801724,6.6112 C43.5207586,6.072 43.2883793,5.596 42.9838276,5.184 C42.6784828,4.7712 42.3041379,4.4424 41.8607931,4.1984 C41.4158621,3.9536 40.9106552,3.8312 40.342,3.8312 C39.7455862,3.8312 39.2253103,3.9608 38.7819655,4.2192 C38.3378276,4.4784 37.9666552,4.8168 37.6692414,5.236 C37.3710345,5.6552 37.1457931,6.1352 36.9935172,6.6736 C36.8396552,7.212 36.7635172,7.7616 36.7635172,8.3208 Z" id="Shape"></path>
                        <path d="M53.030069,15.748 L53.030069,0.852 L58.5413448,0.852 C59.761931,0.852 60.8302414,1.0472 61.7446897,1.4384 C62.6607241,1.8304 63.4268621,2.3616 64.0431034,3.0336 C64.6601379,3.7048 65.1248966,4.4912 65.4365862,5.3936 C65.749069,6.2952 65.9045172,7.2576 65.9045172,8.2776 C65.9045172,9.4104 65.7316207,10.4352 65.3850345,11.352 C65.0384483,12.268 64.5427586,13.0512 63.8979655,13.7016 C63.2531724,14.352 62.4767241,14.856 61.5686207,15.2128 C60.6597241,15.5696 59.6516897,15.748 58.5421379,15.748 L53.030069,15.748 L53.030069,15.748 Z M62.4307241,8.2784 C62.4307241,7.6216 62.3442759,7.024 62.1713793,6.4848 C61.9976897,5.9472 61.7438966,5.4816 61.4115862,5.0896 C61.0784828,4.6984 60.6692414,4.3976 60.1846552,4.1872 C59.6984828,3.9776 59.1512414,3.8728 58.5413448,3.8728 L56.4404138,3.8728 L56.4404138,12.7264 L58.5413448,12.7264 C59.1655172,12.7264 59.7198966,12.6144 60.2052759,12.3904 C60.6906552,12.1672 61.0967241,11.8552 61.4226897,11.4568 C61.7478621,11.0584 61.9976897,10.5896 62.1713793,10.0512 C62.3442759,9.5128 62.4307241,8.9224 62.4307241,8.2784 Z" id="Shape"></path>
                        <path d="M77.9057586,12.8104 C78.4878966,12.8104 78.9804138,12.6888 79.3833103,12.444 C79.7846207,12.1984 80.1105862,11.8736 80.3604138,11.468 C80.6094483,11.0616 80.7863103,10.5968 80.8902069,10.0728 C80.9941034,9.548 81.0464483,9.0128 81.0464483,8.4672 L81.0464483,0.8512 L84.4575862,0.8512 L84.4575862,8.4672 C84.4575862,9.5024 84.3291034,10.468 84.072931,11.3624 C83.8159655,12.2576 83.421,13.0416 82.8872414,13.7128 C82.3534828,14.384 81.6737931,14.9128 80.8489655,15.2968 C80.0233448,15.6808 79.0422759,15.8736 77.9049655,15.8736 C76.7264138,15.8736 75.7215517,15.6712 74.8895862,15.2656 C74.0576207,14.8592 73.3811034,14.3176 72.8616207,13.6392 C72.3421379,12.9608 71.9598621,12.1744 71.7171724,11.2792 C71.4744828,10.384 71.3531379,9.4464 71.3531379,8.4672 L71.3531379,0.8512 L74.7642759,0.8512 L74.7642759,8.4672 C74.7642759,9.0416 74.8197931,9.5856 74.9308276,10.104 C75.041069,10.6216 75.2218966,11.0832 75.4717241,11.488 C75.7207586,11.8944 76.0435517,12.216 76.4385172,12.4536 C76.8334828,12.6912 77.3244138,12.8104 77.9057586,12.8104 Z" id="Path"></path>
                        <path d="M89.8665517,8.1736 C89.8665517,7.2784 90.0259655,6.3872 90.3447931,5.4984 C90.6636207,4.6104 91.1283793,3.816 91.7382759,3.1168 C92.3489655,2.4176 93.0936897,1.8512 93.9748276,1.4176 C94.8551724,0.984 95.8576552,0.7672 96.9806897,0.7672 C98.2980345,0.7672 99.4424828,1.068 100.412448,1.6696 C101.384,2.2712 102.104138,3.0536 102.576034,4.02 L99.9556207,5.8664 C99.8025517,5.4752 99.6082414,5.1496 99.3726897,4.8904 C99.1371379,4.632 98.8809655,4.4224 98.6033793,4.2608 C98.3257931,4.1008 98.0378966,3.988 97.7396897,3.9256 C97.4414828,3.8624 97.1615172,3.8312 96.8974138,3.8312 C96.2867241,3.8312 95.7593103,3.964 95.3167586,4.2296 C94.8718276,4.496 94.5054138,4.8384 94.2135517,5.2576 C93.9224828,5.6768 93.7043793,6.1528 93.5584483,6.6848 C93.4125172,7.216 93.3403448,7.7544 93.3403448,8.3008 C93.3403448,8.8872 93.4267931,9.4536 93.6004828,10 C93.7733793,10.5456 94.016069,11.0272 94.3285517,11.4472 C94.6410345,11.8672 95.0177586,12.1992 95.4626897,12.4448 C95.9060345,12.6896 96.3985517,12.8112 96.9386552,12.8112 C97.2162414,12.8112 97.5041379,12.7728 97.8023448,12.6952 C98.1005517,12.6184 98.3876552,12.5 98.6652414,12.3392 C98.9428276,12.1784 99.1918621,11.9688 99.413931,11.7096 C99.636,11.4512 99.8160345,11.1328 99.9556207,10.756 L102.763207,12.4128 C102.541138,12.9584 102.218345,13.448 101.795621,13.8816 C101.372897,14.3152 100.89069,14.6784 100.350586,14.9728 C99.8088966,15.2664 99.2378621,15.4896 98.6343103,15.644 C98.0307586,15.7984 97.4383103,15.8744 96.8561724,15.8744 C95.8298966,15.8744 94.890069,15.6544 94.0374828,15.2136 C93.1848966,14.7728 92.4504828,14.1896 91.8334483,13.4624 C91.2164138,12.7352 90.7342069,11.9096 90.3876207,10.9864 C90.0394483,10.0624 89.8665517,9.1256 89.8665517,8.1736 Z" id="Path"></path>
                        <polygon id="Path" points="119.361276 3.8728 114.868345 3.8728 114.868345 15.748 111.457207 15.748 111.457207 3.8728 106.943655 3.8728 106.943655 0.852 119.361276 0.852 119.361276 3.8728"></polygon>
                        <polygon id="Path" points="124.686172 15.748 124.686172 0.852 128.09731 0.852 128.09731 15.748"></polygon>
                        <path d="M140.763966,15.8736 C139.709931,15.8736 138.753448,15.6568 137.893724,15.2232 C137.033207,14.7896 136.294828,14.2192 135.678586,13.5128 C135.061552,12.8064 134.582517,11.9984 134.243069,11.0896 C133.902034,10.1808 133.73231,9.2432 133.73231,8.2776 C133.73231,7.2992 133.909966,6.3552 134.26369,5.4456 C134.616621,4.536 135.109138,3.7352 135.739655,3.0432 C136.370966,2.3512 137.119655,1.7976 137.986517,1.3856 C138.853379,0.9736 139.798759,0.7672 140.825034,0.7672 C141.879069,0.7672 142.836345,0.984 143.695276,1.4176 C144.555793,1.8512 145.294172,2.4248 145.911207,3.1376 C146.527448,3.8512 147.00331,4.6616 147.336414,5.5712 C147.668724,6.4808 147.835276,7.404 147.835276,8.3408 C147.835276,9.32 147.657621,10.264 147.30469,11.1736 C146.950966,12.0832 146.461621,12.8832 145.838241,13.576 C145.214069,14.268 144.467759,14.824 143.602483,15.2432 C142.736414,15.664 141.790241,15.8736 140.763966,15.8736 Z M137.206897,8.3208 C137.206897,8.8944 137.287,9.4504 137.447207,9.9888 C137.605828,10.5272 137.835034,11.0064 138.133241,11.4264 C138.431448,11.8464 138.805793,12.1816 139.256276,12.4336 C139.706759,12.6856 140.223862,12.8112 140.806,12.8112 C141.401621,12.8112 141.921897,12.6784 142.366034,12.4128 C142.810172,12.1472 143.180552,11.8008 143.477966,11.3736 C143.776172,10.9472 143.998241,10.4648 144.144172,9.9264 C144.290103,9.3872 144.362276,8.8384 144.362276,8.2784 C144.362276,7.7048 144.282172,7.1488 144.122759,6.6112 C143.963345,6.072 143.730966,5.596 143.426414,5.184 C143.121069,4.7712 142.746724,4.4424 142.303379,4.1984 C141.858448,3.9536 141.353241,3.8312 140.784586,3.8312 C140.188172,3.8312 139.667897,3.9608 139.223759,4.2192 C138.780414,4.4784 138.409241,4.8168 138.111828,5.236 C137.813621,5.6552 137.588379,6.1352 137.43531,6.6736 C137.282241,7.212 137.206897,7.7616 137.206897,8.3208 Z" id="Shape"></path>
                        <polygon id="Path" points="156.884586 7.2296 156.884586 15.748 153.473448 15.748 153.473448 0.852 156.135103 0.852 163.020828 9.6 163.020828 0.8512 166.431966 0.8512 166.431966 15.7472 163.686241 15.7472"></polygon>
                        <path d="M181.78169,5.216 C181.726172,5.16 181.573103,5.0552 181.324069,4.9 C181.075034,4.7472 180.762552,4.5856 180.388207,4.4176 C180.013069,4.2496 179.604621,4.1024 179.161276,3.9768 C178.716345,3.8512 178.273793,3.788 177.829655,3.788 C177.246724,3.788 176.799414,3.8936 176.487724,4.1032 C176.176034,4.3136 176.019793,4.6208 176.019793,5.0264 C176.019793,5.2776 176.088793,5.488 176.228379,5.6552 C176.366379,5.8232 176.564655,5.9736 176.820828,6.1064 C177.077,6.2392 177.396621,6.3616 177.778103,6.4736 C178.158793,6.5864 178.598966,6.7112 179.098621,6.8512 C179.806069,7.0472 180.442931,7.2608 181.011586,7.4912 C181.580241,7.7216 182.065621,8.0088 182.467724,8.3512 C182.870621,8.6952 183.178345,9.1104 183.393276,9.6 C183.608207,10.0904 183.716069,10.6776 183.716069,11.3624 C183.716069,12.2016 183.559828,12.9128 183.247345,13.492 C182.935655,14.0728 182.523241,14.5416 182.010103,14.8984 C181.496966,15.2544 180.903724,15.5144 180.231172,15.6744 C179.558621,15.8344 178.869414,15.916 178.161966,15.916 C177.621069,15.916 177.070655,15.8736 176.508345,15.7904 C175.946828,15.7064 175.396414,15.584 174.854724,15.4232 C174.313828,15.2624 173.786414,15.0704 173.274069,14.8456 C172.761724,14.6224 172.289828,14.3632 171.859966,14.0696 L173.357345,11.0688 C173.427138,11.1392 173.61431,11.272 173.919655,11.468 C174.224207,11.6632 174.598552,11.8592 175.04269,12.0544 C175.486828,12.2504 175.984897,12.4256 176.540069,12.5792 C177.095241,12.7328 177.656759,12.8096 178.225414,12.8096 C179.431724,12.8096 180.034483,12.4392 180.034483,11.6976 C180.034483,11.4176 179.944862,11.1872 179.764034,11.0056 C179.584,10.8232 179.334172,10.6584 179.016138,10.512 C178.69731,10.3656 178.322172,10.2288 177.89231,10.1032 C177.462448,9.9776 176.990552,9.8376 176.478207,9.684 C175.798517,9.4736 175.209241,9.2464 174.710379,9.0016 C174.211517,8.7568 173.795931,8.4744 173.462828,8.152 C173.129724,7.8296 172.883862,7.4592 172.723655,7.0392 C172.565034,6.62 172.484931,6.1296 172.484931,5.5704 C172.484931,4.7872 172.630862,4.0944 172.921138,3.4928 C173.212207,2.892 173.607966,2.3848 174.106828,1.972 C174.606483,1.5592 175.184655,1.2488 175.843724,1.0384 C176.502,0.828 177.199138,0.7232 177.934345,0.7232 C178.460966,0.7232 178.974897,0.7728 179.472966,0.8704 C179.971828,0.9688 180.44769,1.0944 180.898172,1.2488 C181.348655,1.4032 181.774552,1.5768 182.176655,1.7728 C182.579552,1.9688 182.939621,2.1648 183.258448,2.36 L181.78169,5.216 Z" id="Path"></path>
                    </g>
                    <path d="M188.598751,55.0951023 C187.691034,50.6635311 186.338186,46.3041663 184.5775,42.1392035 C182.846966,38.0504146 180.707007,34.1060385 178.213958,30.4179556 C175.747094,26.7647857 172.911271,23.3298221 169.790596,20.2082821 C166.668334,17.086742 163.232656,14.2532343 159.57957,11.7855196 C155.891572,9.29320714 151.947287,7.15319863 147.857798,5.42341793 C143.692138,3.66189814 139.332873,2.30901919 134.900611,1.40286802 C130.35409,0.471325567 125.676648,0 120.996033,0 C116.317004,0 111.638769,0.471325567 107.093835,1.40207454 C102.663159,2.30901919 98.3038948,3.66189814 94.1390278,5.42262446 C90.0511264,7.15240516 86.106841,9.29241367 82.4188429,11.7847261 C78.7657571,14.2524408 75.3308725,17.086742 72.2094042,20.2082821 C69.0871425,23.3298221 66.2536999,26.7647857 63.786042,30.4179556 C61.2937869,34.106832 59.1538276,38.0504146 57.4232932,42.1392035 C55.6618139,46.3049598 54.3089661,50.6635311 53.4020423,55.0951023 C52.4721082,59.6409342 52,64.3192769 52,68.9992065 C52,73.6799296 52.4721082,78.3574788 53.4020423,82.9041042 C54.3089661,87.3356754 55.6618139,91.6950402 57.4232932,95.860003 C59.1530341,99.9495854 61.2929934,103.893168 63.786042,107.582044 C66.2536999,111.235214 69.0871425,114.670178 72.2094042,117.792511 C75.3308725,120.914051 78.7657571,123.747559 82.4188429,126.215274 C86.1076345,128.707586 90.0511264,130.847595 94.1390278,132.577376 C98.3038948,134.339689 102.663159,135.691774 107.093835,136.598719 C111.639563,137.528674 116.317004,138 120.996033,138 C125.676648,138 130.35409,137.528674 134.899817,136.598719 C139.33208,135.692568 143.691344,134.339689 147.857005,132.577376 C151.946493,130.848388 155.890779,128.70838 159.578777,126.215274 C163.231863,123.747559 166.668334,120.914051 169.789802,117.792511 C172.911271,114.670178 175.7463,111.235214 178.213958,107.582044 C180.706213,103.893168 182.846172,99.9495854 184.576707,95.860003 C186.338186,91.6942467 187.691034,87.3356754 188.597958,82.9041042 C189.527892,78.3582723 190,73.6799296 190,68.9992065 C190,64.3192769 189.527892,59.6409342 188.598751,55.0951023 Z M120.996033,132.965386 C85.7275675,132.965386 57.0344982,104.27007 57.0344982,68.9992065 C57.0344982,33.7291367 85.7275675,5.03461401 120.996033,5.03461401 C156.269259,5.03461401 184.966295,33.7291367 184.966295,68.9992065 C184.966295,104.27007 156.268465,132.965386 120.996033,132.965386 Z" id="Shape"></path>
                    <path d="M174.945485,83.5131222 C176.309094,78.6492204 177,73.6064638 177,68.5035613 C177,64.7389045 176.620912,60.9758304 175.872233,57.3195945 C175.143339,53.7543687 174.055142,50.247706 172.638508,46.8969478 C171.2472,43.6079182 169.525871,40.4352234 167.522006,37.4674994 C165.536345,34.5298484 163.257067,31.7663038 160.746697,29.2552136 C158.236327,26.7441234 155.473495,24.4649113 152.534968,22.4793061 C149.568743,20.4747075 146.396749,18.7534276 143.107625,17.3621586 C139.757563,15.9447736 136.251592,14.8566081 132.687056,14.1277351 C129.030715,13.3798687 125.268326,13 121.505144,13 C115.300446,13 109.215251,14.0153573 103.404677,16.0175818 C103.208406,16.0856416 103.012135,16.1544928 102.815864,16.2241353 C97.0306157,18.2920454 91.6545293,21.2961735 86.8387651,25.1518405 C82.0673202,28.9718949 77.9820327,33.5176566 74.696075,38.6617115 C71.4069516,43.8113062 69.0113365,49.4199089 67.5733343,55.3379462 C67.5852055,55.2920454 67.5986596,55.2485188 67.6105308,55.2034094 C66.5405369,59.2775009 66,63.7195902 66,68.5027699 C66,76.5449062 67.4664932,84.1486108 70.3567431,91.1041644 C73.1338205,97.7858961 77.1478806,103.696811 82.2849595,108.673882 C92.4894727,118.556798 106.417597,124 121.505144,124 C127.61883,124 133.627257,123.01155 139.365021,121.06314 C144.912053,119.178833 150.108488,116.431117 154.81108,112.898338 C159.460647,109.405129 163.516652,105.226574 166.86988,100.477424 C170.193826,95.7686352 172.749307,90.6063782 174.466679,85.1283554 C174.599636,84.7302847 174.722306,84.3314226 174.835478,83.9309777 M168.648982,64.812504 C169.430901,60.6877634 169.677031,56.6120891 169.368379,52.4659808 C171.061217,57.5071546 171.978468,62.9004984 171.978468,68.5035613 C171.978468,73.1704062 171.343752,77.7794794 170.092524,82.2207773 L170.082236,82.2184031 C170.082236,82.2184031 169.341471,86.4958826 164.568443,92.1828332 C159.571445,98.1364832 151.152365,101.962869 150.061795,102.441661 C141.49472,106.127179 132.339624,107.14491 124.176172,105.477445 C125.095797,105.414134 126.024127,105.317584 126.960372,105.185421 C134.015843,104.189849 141.145706,101.268817 147.578332,96.7380917 C154.17953,92.0886574 159.690157,85.9719804 163.515069,79.0496653 C165.973997,74.603619 167.700866,69.8133168 168.648982,64.812504 Z M126.798132,18.2967938 C137.846294,19.4530191 147.845039,24.1895066 155.61041,31.3207495 C164.607223,40.6536479 168.331625,59.9580989 159.120338,76.6224627 C159.022202,76.8005262 158.922484,76.9785896 158.821183,77.1550703 C159.493095,74.3749064 159.884054,71.4665369 159.987729,68.4497465 C160.16105,63.4465596 159.550077,58.2154514 158.173013,52.9028298 C156.970062,48.2636836 155.1688,43.591299 152.963916,39.3890018 C150.740829,35.1558403 147.501565,31.2336962 143.333179,27.7325733 C141.418744,26.1244626 139.31437,24.615276 137.079412,23.2477488 C134.925179,21.929288 132.640362,20.7358672 130.285109,19.6999337 C129.136765,19.1942335 127.971801,18.7273116 126.798923,18.2999594 L126.798923,18.2967938 L126.798132,18.2967938 Z M87.5344195,31.0738348 C92.5456633,26.5256989 98.4622865,23.0055825 104.953478,20.7722713 C111.092489,19.2670417 119.958718,20.6409 128.263834,24.2955532 C137.441881,28.334032 144.824206,34.6857528 148.518534,41.7220285 C156.613925,57.1470708 159.793833,80.1528672 142.169006,94.2958527 C137.180714,97.3664578 131.734983,99.4414904 126.259969,100.214681 C117.670735,101.426304 109.95839,99.1969499 104.474671,93.9373516 C99.7594168,88.6057365 96.8414673,82.1550917 96.6135396,75.773298 C96.3452497,68.2780142 99.8282699,62.0331316 106.419971,58.1893354 C114.228077,53.6372425 122.416064,54.0638034 130.758376,59.4579385 C134.146426,61.6493059 136.87681,64.2529891 138.571231,66.0510342 C140.429475,68.0231857 141.485223,69.489637 141.493137,69.5015079 L144.972201,74.3812376 L146.010538,68.4790281 C146.04536,68.2788056 146.856561,63.5059141 145.565762,56.9816696 C144.811543,53.167155 143.491462,49.5132933 141.642715,46.122174 C139.337321,41.8937608 136.204898,38.0729151 132.330919,34.7648921 C127.710634,30.8190063 120.411408,28.0744551 112.305729,27.2339957 C108.160294,26.8042692 103.995865,26.8810344 99.9256141,27.4627083 C95.5387972,28.0894916 91.4060247,29.2876607 87.6412606,31.0231857 M67.9880361,53.8469617 C68.0046558,53.7915642 68.0228584,53.7385408 68.0402695,53.6831433 C68.0236498,53.7385408 68.0046558,53.7915642 67.9880361,53.8469617 Z M71.0223236,68.5035613 C71.0223236,48.4290848 81.2030944,39.5219558 89.7448433,35.5839839 C94.8708424,33.2200928 100.876104,31.9839369 107.034109,31.9839369 C108.612983,31.9839369 110.202146,32.0654503 111.788143,32.2300601 C118.906135,32.9684298 125.205012,35.2840459 129.070286,38.5849464 C135.188721,43.808932 139.067449,50.2579941 140.598046,57.7516951 C140.872668,59.0931063 141.042822,60.3514213 141.14254,61.4910273 C139.186161,59.5347037 136.640177,57.2998096 133.612221,55.3260753 C129.242815,52.4778517 124.776065,50.7621115 120.333849,50.2279212 C114.707675,49.5512801 109.174889,50.7708168 103.889024,53.8525014 C102.64571,54.5774175 101.491826,55.3719761 100.425789,56.2330118 C99.5955937,56.8091459 95.6733378,59.7103929 92.2314712,65.2873398 C90.0250045,68.8636451 88.4508788,72.8261502 87.5518306,77.0664342 C86.4391002,82.3181186 86.3686642,88.0019036 87.3421055,93.9595106 C87.7995437,96.7570851 88.6052048,99.4501957 89.7377206,101.962869 C90.8369969,104.401942 92.2552137,106.696191 93.9528003,108.785468 C95.6021104,110.816183 97.5315818,112.668834 99.6850237,114.291981 C99.9509394,114.492995 100.221604,114.690052 100.494642,114.884735 C82.6260597,107.364126 71.0223236,90.1260026 71.0223236,68.5035613 Z M151.179273,109.427288 L151.144451,109.371099 C137.581961,117.832674 121.319953,119.537335 108.704788,113.820311 C99.6319989,109.708233 93.8055969,102.367271 92.299533,93.1491241 C91.5508538,88.5693324 91.4772521,84.2522833 92.0716053,80.2225098 C92.3683862,81.8203324 92.8004991,83.422112 93.3631956,85.0151862 C94.4197355,88.0058606 95.9178853,90.907899 97.8149086,93.6405792 C101.779901,99.3504802 107.296068,104.047398 113.766682,107.224841 C116.779601,108.705538 120.047357,109.795286 123.477352,110.464804 C126.727696,111.099502 130.137115,111.359079 133.608264,111.237204 C140.210253,111.004534 146.962611,109.391675 153.136444,106.571942 C154.367887,106.010053 155.569256,105.401472 156.735011,104.751738 C154.996271,106.445319 153.140401,108.006738 151.179273,109.427288 Z" id="Shape"></path>
                </g>
            </g>
        </g>
    </g>
</svg>