<?xml version="1.0" encoding="UTF-8"?>
<svg width="312px" height="92px" viewBox="0 0 312 92" version="1.1" xmlns="http://www.w3.org/2000/svg" xmlns:xlink="http://www.w3.org/1999/xlink">
    <!-- Generator: Sketch 54.1 (76490) - https://sketchapp.com -->
    <title>Public Welfare Found</title>
    <desc>Created with Sketch.</desc>
    <g id="Page-1" stroke="none" stroke-width="1" fill="none" fill-rule="evenodd">
        <g id="Case-Study/-Public-Welfare-Foundation" transform="translate(-564.000000, -6921.000000)" fill="#081633">
            <path d="M593.25,6932.69606 C593.25,6938.69825 588.516184,6941.84694 579.845826,6943.0769 L579.596678,6942.19133 C583.284072,6940.66618 584.92845,6938.50146 584.92845,6932.99125 C584.92845,6927.57945 582.835605,6925.07034 579.2977,6925.07034 C578.251278,6925.07034 577.752981,6925.11953 576.706559,6925.31633 L576.706559,6946.81596 C576.706559,6954.34329 577.055366,6954.98287 580.443782,6955.67165 L582.08816,6956.01603 L582.08816,6957 C581.141397,6957 574.414395,6956.9016 572.620528,6956.9016 C570.826661,6956.9016 564.996593,6957 564,6957 L564,6956.01603 L565.644378,6955.67165 C568.13586,6955.13047 568.534497,6953.75292 568.534497,6946.86516 L568.534497,6933.38484 C568.534497,6926.49708 568.13586,6925.11953 565.644378,6924.57835 L564,6924.23397 L564,6923.25 C564.996593,6923.25 571.125639,6923.3484 572.919506,6923.3484 C574.713373,6923.3484 577.90247,6923.2992 580.094974,6923.2992 C588.017888,6923.2992 593.25,6926.49708 593.25,6932.69606 Z M622.5,6955.80242 L622.5,6956.8004 C621.506969,6956.8004 614.90331,6956.8503 612.817944,6956.8503 L611.874564,6953.35736 C609.292683,6955.50302 606.462544,6957 603.533101,6957 C599.263066,6957 596.979094,6954.50504 596.979094,6949.56502 L596.979094,6940.38357 C596.979094,6937.53931 596.53223,6936.69103 594.94338,6935.69304 L594,6935.09425 L594,6934.29587 L603.880662,6932.25 L604.77439,6932.84879 L604.77439,6947.86845 C604.77439,6951.1119 606.114983,6952.65877 608.647213,6952.65877 C609.888502,6952.65877 610.831882,6952.45917 611.874564,6952.10988 L611.874564,6940.88256 C611.874564,6937.98841 611.129791,6936.84073 609.342334,6935.69304 L608.398955,6935.09425 L608.398955,6934.29587 L618.776132,6932.25 L619.669861,6932.84879 L619.669861,6949.01613 C619.669861,6954.55494 620.116725,6955.20363 621.904181,6955.65272 L622.5,6955.80242 Z M648.75,6943.77605 C648.75,6952.52842 643.261797,6957.35217 635.176497,6957.35217 C632.334392,6957.35217 629.492287,6956.70568 627.581216,6956.00947 L625.474138,6957.75 L624.690109,6957.75 L624.690109,6929.10589 C624.690109,6926.27131 624.249093,6925.42591 622.681034,6924.43133 L621.75,6923.83457 L621.75,6923.0389 L631.501361,6921 L632.383394,6921.59675 L632.383394,6936.01827 C634.44147,6933.92963 636.205535,6932.63667 639.194646,6932.63667 C644.731851,6932.63667 648.75,6937.01286 648.75,6943.77605 Z M641.25,6947.6131 C641.25,6940.66865 638.4,6936.75 634.45,6936.75 C633.5,6936.75 632.95,6936.89881 632.25,6937.19643 L632.25,6949.05159 C632.25,6953.51587 633.95,6955.5 636.6,6955.5 C639.7,6955.5 641.25,6952.82143 641.25,6947.6131 Z M663,6956.00963 L663,6957 C661.976534,6957 658.516245,6956.95048 656.469314,6956.95048 C654.422383,6956.95048 650.523466,6957 649.5,6957 L649.5,6956.00963 L650.377256,6955.81155 C651.98556,6955.46492 652.424188,6954.62311 652.424188,6949.2751 L652.424188,6929.07153 C652.424188,6926.24897 651.98556,6925.40715 650.425993,6924.41678 L649.5,6923.82256 L649.5,6923.03026 L659.198556,6921 L660.075812,6921.59422 L660.075812,6949.2751 C660.075812,6954.62311 660.51444,6955.46492 662.122744,6955.81155 L663,6956.00963 Z M674.25,6925.875 C674.25,6928.23933 672.342391,6930 669.75,6930 C667.157609,6930 665.25,6928.23933 665.25,6925.875 C665.25,6923.51067 667.157609,6921.75 669.75,6921.75 C672.342391,6921.75 674.25,6923.51067 674.25,6925.875 Z M677.25,6955.27439 L677.25,6956.25 C676.226534,6956.25 672.766245,6956.20122 670.719314,6956.20122 C668.672383,6956.20122 664.773466,6956.25 663.75,6956.25 L663.75,6955.27439 L664.627256,6955.07927 C666.23556,6954.7378 666.674188,6953.90854 666.674188,6948.64024 L666.674188,6940.20122 C666.674188,6937.42073 666.23556,6936.59146 664.675993,6935.61585 L663.75,6935.03049 L663.75,6934.25 L673.448556,6932.25 L674.325812,6932.83537 L674.325812,6948.64024 C674.325812,6953.90854 674.76444,6954.7378 676.372744,6955.07927 L677.25,6955.27439 Z M699.15411,6951.31485 L699.75,6952.14802 C696.820205,6955.23564 693.791096,6957 689.222603,6957 C682.767123,6957 678,6952.5401 678,6945.6297 C678,6938.13119 683.760274,6932.25 691.059932,6932.25 C695.976027,6932.25 699.402397,6934.06337 699.402397,6936.85693 C699.402397,6939.30743 697.565068,6940.72871 695.578767,6940.72871 C692.996575,6940.72871 691.953767,6939.20941 691.109589,6934.06337 C691.010274,6934.06337 690.761986,6934.01436 690.613014,6934.01436 C687.484589,6934.01436 685.398973,6936.66089 685.398973,6941.95396 C685.398973,6948.91337 688.67637,6952.68713 693.741438,6952.68713 C695.777397,6952.68713 697.167808,6952.34406 699.15411,6951.31485 Z M762,6923.25 L762,6924.23571 L761.60114,6924.33429 C758.659544,6925.07357 757.712251,6926.55214 756.066952,6931.13571 L746.693732,6957.20786 L744.200855,6957.75 L735.974359,6936.11357 L727.249288,6957.20786 L724.75641,6957.75 L714.934473,6930.44571 C713.538462,6926.60143 712.34188,6924.87643 710.447293,6924.48214 L709.5,6924.285 L709.5,6923.25 C710.497151,6923.25 716.031339,6923.34857 717.826211,6923.34857 C719.621083,6923.34857 725.404558,6923.25 726.401709,6923.25 L726.401709,6924.23571 L725.354701,6924.43286 C723.310541,6924.82714 722.462963,6925.76357 722.462963,6926.94643 C722.462963,6927.48857 722.712251,6928.57286 723.061254,6929.75571 L728.844729,6948.18857 L734.92735,6933.35357 L733.182336,6928.72071 C732.185185,6926.05929 731.188034,6924.77786 729.44302,6924.38357 L728.745014,6924.23571 L728.745014,6923.25 C729.692308,6923.25 734.72792,6923.34857 736.57265,6923.34857 C738.367521,6923.34857 744.400285,6923.25 745.347578,6923.25 L745.347578,6924.23571 L744.5,6924.43286 C741.807692,6925.07357 740.910256,6925.665 740.910256,6926.89714 C740.910256,6927.88286 741.159544,6928.96714 741.608262,6930.29786 L747.790598,6948.18857 L753.274929,6931.28357 C753.823362,6929.50929 754.07265,6928.12929 754.07265,6927.29143 C754.07265,6926.15786 753.374644,6924.975 750.732194,6924.43286 L749.7849,6924.23571 L749.7849,6923.25 C750.782051,6923.25 753.873219,6923.34857 755.668091,6923.34857 C757.512821,6923.34857 761.002849,6923.25 762,6923.25 Z M778.5,6943.08119 L762.960784,6943.08119 C763.303922,6949.10941 766.784314,6952.68713 771.637255,6952.68713 C773.647059,6952.68713 775.460784,6952.24604 777.470588,6950.77574 L778.107843,6951.5599 C774.921569,6955.28465 771.637255,6957 767.127451,6957 C761.04902,6957 756,6952.93218 756,6945.43366 C756,6937.39604 762.22549,6932.25 768.5,6932.25 C775.411765,6932.25 778.401961,6936.36683 778.5,6943.08119 Z M762.75,6941.25 L771,6941.25 C770.847222,6935.89286 769.523148,6933.75 767.027778,6933.75 C764.481481,6933.75 762.902778,6936.30102 762.75,6941.25 Z M792.75,6956.00963 L792.75,6957 C791.726534,6957 788.266245,6956.95048 786.219314,6956.95048 C784.172383,6956.95048 780.273466,6957 779.25,6957 L779.25,6956.00963 L780.127256,6955.81155 C781.73556,6955.46492 782.174188,6954.62311 782.174188,6949.2751 L782.174188,6929.07153 C782.174188,6926.24897 781.73556,6925.40715 780.175993,6924.41678 L779.25,6923.82256 L779.25,6923.03026 L788.948556,6921 L789.825812,6921.59422 L789.825812,6949.2751 C789.825812,6954.62311 790.26444,6955.46492 791.872744,6955.81155 L792.75,6956.00963 Z M815.25,6924.29508 C815.25,6926.36066 814.068381,6928.27869 812.39442,6928.27869 C810.671225,6928.27869 808.997265,6927.19672 806.043217,6923.85246 C804.516958,6925.32787 804.172319,6927.54098 804.172319,6930.59016 L804.172319,6933.2459 L809.883479,6933.2459 L809.883479,6935.90164 L804.172319,6935.90164 L804.172319,6949.27869 C804.172319,6954.68852 804.615427,6955.13115 807.618709,6955.86885 L808.209519,6956.01639 L808.209519,6957 C807.077133,6957 802.15372,6956.95082 800.085886,6956.95082 C798.018053,6956.95082 794.522429,6957 793.488512,6957 L793.488512,6956.01639 L794.374726,6955.81967 C795.999453,6955.47541 796.44256,6954.63934 796.44256,6949.32787 L796.44256,6935.90164 L792.75,6935.90164 L792.75,6934.47541 L796.44256,6932.90164 L796.44256,6932.7541 C796.44256,6926.7541 802.202954,6921 809.194201,6921 C812.837527,6921 815.25,6922.62295 815.25,6924.29508 Z M832.251037,6954.921 L832.5,6955.9605 C831.205394,6956.4555 829.661826,6956.802 827.271784,6956.802 C824.63278,6956.802 822.641079,6955.614 821.894191,6953.4855 C819.70332,6955.713 817.711618,6957 814.524896,6957 C811.686722,6957 808.5,6955.02 808.5,6951.258 C808.5,6947.595 810.441909,6946.11 816.118257,6944.328 C818.010373,6943.734 819.852697,6943.2885 821.794606,6942.843 L821.794606,6939.8235 C821.794606,6935.616 820.10166,6934.6755 817.960581,6934.6755 C817.512448,6934.6755 817.114108,6934.725 816.815353,6934.824 C815.919087,6940.269 814.823651,6941.754 812.83195,6941.754 C811.188797,6941.754 809.794606,6940.566 809.794606,6938.7345 C809.794606,6936.507 814.126556,6932.25 821.246888,6932.25 C827.271784,6932.25 829.612033,6934.527 829.612033,6939.279 L829.612033,6953.04 C829.612033,6954.327 830.259336,6954.9705 831.255187,6954.9705 C831.553942,6954.9705 831.802905,6954.9705 832.251037,6954.921 Z M822,6952.25592 L822,6944.25 C820.96875,6944.64053 820.078125,6944.98225 818.90625,6945.56805 C816.984375,6946.5932 816,6947.61834 816,6949.32692 C816,6951.37722 817.734375,6952.5 819.9375,6952.5 C820.875,6952.5 821.390625,6952.45118 822,6952.25592 Z M853.5,6935.55 C853.5,6938.85 852.405213,6940.1 851.111374,6940.1 C850.116114,6940.1 848.473934,6939.8 845.13981,6938.95 C844.393365,6939.2 843.845972,6939.4 843.298578,6939.65 L843.298578,6949.15 C843.298578,6954.65 843.746445,6955.1 846.781991,6955.85 L847.379147,6956 L847.379147,6957 C846.234597,6957 841.258294,6956.95 839.168246,6956.95 C837.078199,6956.95 833.545024,6957 832.5,6957 L832.5,6956 L833.395735,6955.8 C835.037915,6955.45 835.485782,6954.6 835.485782,6949.2 L835.485782,6940.4 C835.485782,6937.55 835.037915,6936.7 833.445498,6935.7 L832.5,6935.1 L832.5,6934.3 L842.402844,6932.25 L843.298578,6932.85 L843.298578,6937.8 C846.632701,6933 848.026066,6932.3 850.265403,6932.3 C852.206161,6932.3 853.5,6933.4 853.5,6935.55 Z M875.25,6943.08119 L859.710784,6943.08119 C860.053922,6949.10941 863.534314,6952.68713 868.387255,6952.68713 C870.397059,6952.68713 872.210784,6952.24604 874.220588,6950.77574 L874.857843,6951.5599 C871.671569,6955.28465 868.387255,6957 863.877451,6957 C857.79902,6957 852.75,6952.93218 852.75,6945.43366 C852.75,6937.39604 858.97549,6932.25 865.25,6932.25 C872.161765,6932.25 875.151961,6936.36683 875.25,6943.08119 Z M859.5,6941.25 L867.75,6941.25 C867.597222,6935.89286 866.273148,6933.75 863.777778,6933.75 C861.231481,6933.75 859.652778,6936.30102 859.5,6941.25 Z M590.982804,6978.7992 L592.5,6987.1137 L591.42328,6987.1137 L589.710317,6984.85058 C587.556878,6981.99708 585.452381,6980.66873 581.390212,6980.66873 L581.194444,6980.66873 C579.775132,6980.66873 578.453704,6980.81633 577.230159,6981.01312 L577.230159,6994.24745 L579.579365,6994.14905 C585.207672,6993.90306 585.990741,6992.8207 586.333333,6989.81961 L586.382275,6989.37682 L587.556878,6989.37682 C587.556878,6990.45918 587.458995,6993.46028 587.458995,6995.23141 C587.458995,6997.05175 587.556878,7000.34803 587.556878,7001.3812 L586.382275,7001.3812 L586.333333,7000.93841 C585.990741,6997.93732 585.403439,6996.65816 579.579365,6996.41217 L577.230159,6996.31378 L577.230159,7002.31596 C577.230159,7009.84329 577.572751,7010.48287 580.900794,7011.17165 L582.515873,7011.51603 L582.515873,7012.5 C581.585979,7012.5 574.978836,7012.4016 573.216931,7012.4016 C571.455026,7012.4016 565.728836,7012.5 564.75,7012.5 L564.75,7011.51603 L566.365079,7011.17165 C568.812169,7010.63047 569.203704,7009.25292 569.203704,7002.36516 L569.203704,6988.88484 C569.203704,6981.99708 568.812169,6980.61953 566.365079,6980.07835 L564.75,6979.73397 L564.75,6978.75 C565.728836,6978.75 572.140212,6978.8484 573.853175,6978.8484 C575.615079,6978.8484 586.137566,6978.7992 587.06746,6978.7992 L590.982804,6978.7992 Z M615,7000.24752 C615,7006.91287 610.145192,7012.5 602.200962,7012.5 C594.452885,7012.5 589.5,7007.94208 589.5,7000.00248 C589.5,6993.33713 594.354808,6987.75 602.299038,6987.75 C610.047115,6987.75 615,6992.30792 615,7000.24752 Z M606.75,7002.20958 C606.75,6994.1224 605.233696,6989.25 601.76087,6989.25 C599.021739,6989.25 597.75,6991.3597 597.75,6998.04042 C597.75,7006.1276 599.266304,7011 602.73913,7011 C605.478261,7011 606.75,7008.8903 606.75,7002.20958 Z M644.25,7011.30242 L644.25,7012.3004 C643.256969,7012.3004 636.65331,7012.3503 634.567944,7012.3503 L633.624564,7008.85736 C631.042683,7011.00302 628.212544,7012.5 625.283101,7012.5 C621.013066,7012.5 618.729094,7010.00504 618.729094,7005.06502 L618.729094,6995.88357 C618.729094,6993.03931 618.28223,6992.19103 616.69338,6991.19304 L615.75,6990.59425 L615.75,6989.79587 L625.630662,6987.75 L626.52439,6988.34879 L626.52439,7003.36845 C626.52439,7006.6119 627.864983,7008.15877 630.397213,7008.15877 C631.638502,7008.15877 632.581882,7007.95917 633.624564,7007.60988 L633.624564,6996.38256 C633.624564,6993.48841 632.879791,6992.34073 631.092334,6991.19304 L630.148955,6990.59425 L630.148955,6989.79587 L640.526132,6987.75 L641.419861,6988.34879 L641.419861,7004.51613 C641.419861,7010.05494 641.866725,7010.70363 643.654181,7011.15272 L644.25,7011.30242 Z M672.75,7011.5 L672.75,7012.5 C671.756969,7012.5 668.033101,7012.45 665.947735,7012.45 C663.912021,7012.45 660.486063,7012.5 659.294425,7012.5 L659.294425,7011.5 L659.890244,7011.35 C661.6777,7010.9 662.124564,7010.05 662.124564,7005.65 L662.124564,6997 C662.124564,6993.75 660.783972,6992.2 658.251742,6992.2 C657.010453,6992.2 656.067073,6992.4 655.02439,6992.75 L655.02439,7005.65 C655.02439,7010.05 655.471254,7010.9 657.258711,7011.35 L657.85453,7011.5 L657.85453,7012.5 C656.712544,7012.5 653.187282,7012.45 651.101916,7012.45 C649.016551,7012.45 645.292683,7012.5 644.25,7012.5 L644.25,7011.5 L645.143728,7011.3 C646.78223,7010.95 647.229094,7010.1 647.229094,7004.7 L647.229094,6995.9 C647.229094,6993.05 646.78223,6992.2 645.19338,6991.2 L644.25,6990.6 L644.25,6989.8 L654.130662,6987.75 L655.02439,6988.35 L655.02439,6991.5 C657.606272,6989.35 660.436411,6987.85 663.365854,6987.85 C667.635889,6987.85 669.919861,6990.35 669.919861,6995.3 L669.919861,7004.7 C669.919861,7010.25 670.366725,7010.9 672.154181,7011.35 L672.75,7011.5 Z M700.5,7011.31806 L700.5,7012.30301 C699.514599,7012.30301 692.961679,7012.35226 690.892336,7012.35226 L689.956204,7009.15116 C687.886861,7011.21956 686.113139,7012.5 683.107664,7012.5 C677.540146,7012.5 673.5,7008.16621 673.5,7001.46854 C673.5,6992.80096 679.018248,6988.02394 687.14781,6988.02394 C688.182482,6988.02394 689.167883,6988.12244 689.956204,6988.27018 L689.956204,6985.01984 C689.956204,6982.16347 689.217153,6981.03078 687.443431,6979.89808 L686.507299,6979.30711 L686.507299,6978.51915 L696.804745,6976.5 L697.691606,6977.09097 L697.691606,7004.62038 C697.691606,7010.08687 698.135036,7010.72709 699.908759,7011.17031 L700.5,7011.31806 Z M690,7008.30357 L690,6996.44841 C690,6991.98413 688.3,6990 685.65,6990 C682.55,6990 681,6992.67857 681,6997.8869 C681,7004.83135 683.85,7008.75 687.8,7008.75 C688.75,7008.75 689.3,7008.60119 690,7008.30357 Z M724.251037,7010.421 L724.5,7011.4605 C723.205394,7011.9555 721.661826,7012.302 719.271784,7012.302 C716.63278,7012.302 714.641079,7011.114 713.894191,7008.9855 C711.70332,7011.213 709.711618,7012.5 706.524896,7012.5 C703.686722,7012.5 700.5,7010.52 700.5,7006.758 C700.5,7003.095 702.441909,7001.61 708.118257,6999.828 C710.010373,6999.234 711.852697,6998.7885 713.794606,6998.343 L713.794606,6995.3235 C713.794606,6991.116 712.10166,6990.1755 709.960581,6990.1755 C709.512448,6990.1755 709.114108,6990.225 708.815353,6990.324 C707.919087,6995.769 706.823651,6997.254 704.83195,6997.254 C703.188797,6997.254 701.794606,6996.066 701.794606,6994.2345 C701.794606,6992.007 706.126556,6987.75 713.246888,6987.75 C719.271784,6987.75 721.612033,6990.027 721.612033,6994.779 L721.612033,7008.54 C721.612033,7009.827 722.259336,7010.4705 723.255187,7010.4705 C723.553942,7010.4705 723.802905,7010.4705 724.251037,7010.421 Z M713.25,7007.75592 L713.25,6999.75 C712.21875,7000.14053 711.328125,7000.48225 710.15625,7001.06805 C708.234375,7002.0932 707.25,7003.11834 707.25,7004.82692 C707.25,7006.87722 708.984375,7008 711.1875,7008 C712.125,7008 712.640625,7007.95118 713.25,7007.75592 Z M740.197772,7008.23308 L741,7009.32462 C738.89415,7011.25962 736.337047,7012.5 733.428969,7012.5 C728.966574,7012.5 726.559889,7010.76346 726.559889,7005.95077 L726.559889,6990.91731 L723,6990.91731 L723,6989.47846 L727.111421,6987.74192 L731.724234,6980.25 L734.431755,6980.25 L734.431755,6988.23808 L740.348189,6988.23808 L740.348189,6990.91731 L734.431755,6990.91731 L734.431755,7006.34769 C734.431755,7008.43154 735.534819,7009.22538 737.089136,7009.22538 C738.192201,7009.22538 738.994429,7008.97731 740.197772,7008.23308 Z M752.25,6981.375 C752.25,6983.73933 750.342391,6985.5 747.75,6985.5 C745.157609,6985.5 743.25,6983.73933 743.25,6981.375 C743.25,6979.01067 745.157609,6977.25 747.75,6977.25 C750.342391,6977.25 752.25,6979.01067 752.25,6981.375 Z M754.5,7010.77439 L754.5,7011.75 C753.476534,7011.75 750.016245,7011.70122 747.969314,7011.70122 C745.922383,7011.70122 742.023466,7011.75 741,7011.75 L741,7010.77439 L741.877256,7010.57927 C743.48556,7010.2378 743.924188,7009.40854 743.924188,7004.14024 L743.924188,6995.70122 C743.924188,6992.92073 743.48556,6992.09146 741.925993,6991.11585 L741,6990.53049 L741,6989.75 L750.698556,6987.75 L751.575812,6988.33537 L751.575812,7004.14024 C751.575812,7009.40854 752.01444,7010.2378 753.622744,7010.57927 L754.5,7010.77439 Z M780.75,7000.24752 C780.75,7006.91287 775.895192,7012.5 767.950962,7012.5 C760.202885,7012.5 755.25,7007.94208 755.25,7000.00248 C755.25,6993.33713 760.104808,6987.75 768.049038,6987.75 C775.797115,6987.75 780.75,6992.30792 780.75,7000.24752 Z M772.5,7002.20958 C772.5,6994.1224 770.983696,6989.25 767.51087,6989.25 C764.771739,6989.25 763.5,6991.3597 763.5,6998.04042 C763.5,7006.1276 765.016304,7011 768.48913,7011 C771.228261,7011 772.5,7008.8903 772.5,7002.20958 Z M810.75,7011.5 L810.75,7012.5 C809.756969,7012.5 806.033101,7012.45 803.947735,7012.45 C801.912021,7012.45 798.486063,7012.5 797.294425,7012.5 L797.294425,7011.5 L797.890244,7011.35 C799.6777,7010.9 800.124564,7010.05 800.124564,7005.65 L800.124564,6997 C800.124564,6993.75 798.783972,6992.2 796.251742,6992.2 C795.010453,6992.2 794.067073,6992.4 793.02439,6992.75 L793.02439,7005.65 C793.02439,7010.05 793.471254,7010.9 795.258711,7011.35 L795.85453,7011.5 L795.85453,7012.5 C794.712544,7012.5 791.187282,7012.45 789.101916,7012.45 C787.016551,7012.45 783.292683,7012.5 782.25,7012.5 L782.25,7011.5 L783.143728,7011.3 C784.78223,7010.95 785.229094,7010.1 785.229094,7004.7 L785.229094,6995.9 C785.229094,6993.05 784.78223,6992.2 783.19338,6991.2 L782.25,6990.6 L782.25,6989.8 L792.130662,6987.75 L793.02439,6988.35 L793.02439,6991.5 C795.606272,6989.35 798.436411,6987.85 801.365854,6987.85 C805.635889,6987.85 807.919861,6990.35 807.919861,6995.3 L807.919861,7004.7 C807.919861,7010.25 808.366725,7010.9 810.154181,7011.35 L810.75,7011.5 Z" id="Public-Welfare-Found"></path>
        </g>
    </g>
</svg>