<?xml version="1.0" encoding="UTF-8"?>
<svg id="Layer_1" data-name="Layer 1" xmlns="http://www.w3.org/2000/svg" version="1.1" viewBox="0 0 25 21">
  <defs>
    <style>
      .cls-1 {
        fill: #fff;
        stroke-width: 0px;
      }
    </style>
  </defs>
  <g id="Page-1">
    <g id="Desktop-HD-Copy">
      <g id="twitter-logo">
        <path id="Shape" class="cls-1" d="M7.9,21c9.4,0,14.6-8.1,14.6-15.1s0-.5,0-.7c1-.7,1.9-1.7,2.6-2.7-.9.4-1.9.7-3,.8,1.1-.7,1.9-1.7,2.3-2.9-1,.6-2.1,1-3.3,1.3-.9-1-2.3-1.7-3.7-1.7-2.8,0-5.1,2.4-5.1,5.3s0,.8.1,1.2c-4.3-.2-8-2.3-10.6-5.5-.4.8-.7,1.7-.7,2.7,0,1.8.9,3.5,2.3,4.4-.8,0-1.6-.3-2.3-.7h0c0,2.6,1.8,4.8,4.1,5.3-.4.1-.9.2-1.4.2s-.7,0-1,0c.7,2.1,2.6,3.6,4.8,3.7-1.8,1.4-4,2.3-6.4,2.3s-.8,0-1.2,0c2.3,1.5,5,2.4,7.9,2.4Z"/>
      </g>
    </g>
  </g>
</svg>